<svg width="219" height="50" viewBox="0 0 219 50" fill="none" xmlns="http://www.w3.org/2000/svg">
<g opacity="0.6">
<path fill-rule="evenodd" clip-rule="evenodd" d="M139.042 3.23573C138.878 3.75126 138.708 4.28393 138.466 4.7824C138.402 4.91386 138.538 5.07738 138.699 5.06285C139.312 5.00901 139.939 5.0268 140.546 5.04415C141.777 5.0791 142.94 5.11204 143.813 4.54769C145.036 3.75746 145.301 2.23828 144.405 1.16046C143.508 0.0826478 141.784 -0.151216 140.561 0.639026C139.688 1.20335 139.374 2.19059 139.042 3.23573ZM184.345 26.8974C184.181 27.4149 184.011 27.9497 183.768 28.4501C183.705 28.582 183.841 28.7462 184.002 28.7316C184.615 28.6776 185.242 28.6954 185.849 28.7128C187.08 28.7479 188.243 28.781 189.116 28.2145C190.339 27.4211 190.604 25.8961 189.707 24.8141C188.811 23.7321 187.087 23.4973 185.865 24.2906C184.991 24.8571 184.677 25.8482 184.345 26.8974ZM195.297 29.1526H193.631C190.847 29.1526 189.334 29.6573 187.58 32.0063L180.783 41.3438V29.1526H176.267V46.9737H181.463L190.781 34.3358V46.9737H195.297V29.1526ZM213.981 29.1647H218.502V46.9737H213.981V39.8153H203.993V46.9737H199.472V29.1647H203.993V36.071H213.981V29.1647ZM153.922 35.7146V40.4044C153.922 46.8108 154.535 46.9737 161.283 46.9737H172.522V43.2335H161.065C158.735 43.2335 158.408 42.8847 158.408 40.6175V39.823H169.756V36.1216H158.408V35.5209C158.408 33.2536 158.735 32.9047 161.065 32.9047H172.399V29.1647H160.224C154.474 29.1647 153.922 29.9248 153.922 35.7146ZM120.104 5.60035H115.156C109.421 5.60035 107.757 7.02718 107.757 12.1175V16.7836C107.757 21.8353 109.99 23.3008 115.725 23.3008H119.556C125.335 23.3008 127.525 21.8353 127.525 16.7836V12.1175C127.525 7.02718 125.905 5.60035 120.104 5.60035ZM123.015 16.7836C123.015 19.0395 122.468 19.5794 120.125 19.5794H115.178C112.836 19.5794 112.288 19.0395 112.288 16.7836V12.1175C112.288 9.86154 112.836 9.32166 115.178 9.32166H120.125C122.468 9.32166 123.015 9.86154 123.015 12.1175V16.7836ZM127.503 29.1647H115.134C109.399 29.1647 107.735 30.6003 107.757 35.7218V40.4165C107.757 45.4992 109.421 46.9737 115.156 46.9737H127.525V43.2294H115.156C112.814 43.2294 112.267 42.6862 112.267 40.4165V35.7218C112.267 33.452 112.814 32.9088 115.156 32.9088H123.059V34.7571H127.094C127.505 33.5032 127.504 33.198 127.503 31.6974V31.6904C127.503 31.5911 127.503 31.4866 127.503 31.3762V29.1647ZM137.725 29.1647H150.094V31.3762C150.094 31.4892 150.094 31.596 150.094 31.6973C150.095 33.1979 150.096 33.5032 149.686 34.7571H145.65V32.9088H137.747C135.405 32.9088 134.858 33.452 134.858 35.7218V40.4165C134.858 42.6862 135.405 43.2294 137.747 43.2294H150.116V46.9737H137.747C132.012 46.9737 130.348 45.4992 130.348 40.4165V35.7218C130.326 30.6003 131.99 29.1647 137.725 29.1647ZM85.0436 35.7218C85.0436 30.542 86.7664 29.1647 92.4147 29.1647H103.951V46.9737H99.4586V40.9986H89.536V46.9737H85.0436V35.7218ZM89.536 37.3127H99.4586V32.9282H92.4147C89.8193 32.9282 89.536 33.7236 89.536 35.7412V37.3127ZM80.637 32.967V29.1647H62.4526V46.9737H68.5869H74.7217C79.1693 46.9737 81.3603 44.9559 81.3603 41.6387C81.3603 41.0954 81.2504 40.5522 81.0974 40.0284C80.5056 38.1079 78.49 36.8276 76.2334 36.8276H66.9657V32.967H80.637ZM74.7656 39.7764H66.9657V43.2294H74.7656C76.2773 43.2294 76.8248 42.4922 76.8248 41.4446C76.8248 40.4165 76.2773 39.7764 74.7656 39.7764ZM103.399 10.305C103.399 12.1753 102.523 13.3901 101.471 13.9492C102.873 14.4891 104.298 15.8002 104.32 17.9984C104.32 21.2955 102.129 23.3008 97.681 23.3008H85.4119V5.60035H97.2211C101.844 5.60035 103.421 7.91412 103.399 10.305ZM96.7172 9.3795H89.925V12.561H96.7172C98.2724 12.561 98.8858 11.9825 98.8858 10.9028C98.8858 9.86154 98.2724 9.3795 96.7172 9.3795ZM89.925 19.5794H97.725C99.2367 19.5794 99.7841 18.8467 99.7841 17.8055C99.7841 16.7836 99.2367 16.1473 97.725 16.1473H89.925V19.5794ZM150.116 5.54852H148.449C145.665 5.54852 144.152 6.03196 142.398 8.39121L135.602 17.6927V5.54852H131.085V23.3008H136.281L145.599 10.7117V23.3008H150.116V5.54852ZM81.3603 5.60035V9.45664L74.0357 9.36025V23.3008H69.5317V9.36025L62.207 9.45664V5.60035H81.3603Z" fill="white"/>
<path fill-rule="evenodd" clip-rule="evenodd" d="M13.4799 3.2821C6.35878 3.2821 0.585938 8.56969 0.585938 15.0923V37.2161C0.585938 43.7387 6.35878 49.0262 13.4799 49.0262H36.751C43.8721 49.0262 49.645 43.7387 49.645 37.2161V15.0923C49.645 8.56969 43.8721 3.2821 36.751 3.2821H13.4799ZM14.054 8.70183C9.81053 8.70183 6.37057 11.8526 6.37057 15.7394V36.5689C6.37057 40.4558 9.81053 43.6065 14.054 43.6065H36.1769C40.4204 43.6065 43.8603 40.4558 43.8603 36.5689V15.7394C43.8603 11.8526 40.4204 8.70183 36.1769 8.70183H14.054Z" fill="white"/>
<path d="M26.0195 12.0805C28.7074 12.0805 31.3996 12.0231 34.0833 12.1073C35.7987 12.1608 37.2304 12.8719 38.3322 14.1069C40.5193 16.5616 39.8181 20.1977 37.005 21.9564C35.8864 22.6561 34.6426 22.9352 33.3153 22.8435C31.5874 22.7211 30.1516 22.0176 29.129 20.7406C27.2925 18.4465 26.8877 14.7225 26.0195 12.0805Z" fill="#929292"/>
</g>
</svg>
