<svg width="152" height="35" viewBox="0 0 152 35" fill="none" xmlns="http://www.w3.org/2000/svg">
<g opacity="0.6">
<path fill-rule="evenodd" clip-rule="evenodd" d="M96.5704 2.13787C96.4561 2.49746 96.3378 2.86901 96.1686 3.21671C96.124 3.3084 96.2189 3.42246 96.3315 3.41233C96.7587 3.37477 97.1964 3.38718 97.6197 3.39928C98.4783 3.42366 99.2894 3.44664 99.8987 3.05299C100.752 2.50179 100.937 1.44213 100.311 0.690328C99.6857 -0.0614715 98.4835 -0.224597 97.6304 0.326614C97.0214 0.720241 96.8021 1.40886 96.5704 2.13787ZM128.17 18.6424C128.056 19.0034 127.938 19.3764 127.768 19.7254C127.724 19.8175 127.819 19.932 127.931 19.9218C128.358 19.8841 128.796 19.8965 129.22 19.9087C130.078 19.9332 130.889 19.9562 131.498 19.5611C132.351 19.0077 132.536 17.9439 131.911 17.1892C131.285 16.4345 130.083 16.2708 129.23 16.8241C128.621 17.2193 128.402 17.9106 128.17 18.6424ZM135.81 20.2154H134.647C132.706 20.2154 131.65 20.5675 130.427 22.2059L125.686 28.719V20.2154H122.536V32.646H126.16L132.66 23.8309V32.646H135.81V20.2154ZM148.842 20.2239H151.996V32.646H148.842V27.6529H141.876V32.646H138.722V20.2239H141.876V25.0412H148.842V20.2239ZM106.949 24.7926V28.0638C106.949 32.5324 107.378 32.646 112.084 32.646H119.924V30.0371H111.932C110.307 30.0371 110.079 29.7938 110.079 28.2125V27.6583H117.994V25.0765H110.079V24.6574C110.079 23.0759 110.307 22.8326 111.932 22.8326H119.838V20.2239H111.345C107.335 20.2239 106.949 20.7541 106.949 24.7926ZM83.3607 3.78725H79.9098C75.9093 3.78725 74.7489 4.78249 74.7489 8.33307V11.5878C74.7489 15.1115 76.3062 16.1337 80.3067 16.1337H82.9788C87.0098 16.1337 88.5369 15.1115 88.5369 11.5878V8.33307C88.5369 4.78249 87.407 3.78725 83.3607 3.78725ZM85.3915 11.5878C85.3915 13.1614 85.0096 13.5379 83.3758 13.5379H79.9251C78.2912 13.5379 77.9094 13.1614 77.9094 11.5878V8.33307C77.9094 6.75952 78.2912 6.38294 79.9251 6.38294H83.3758C85.0096 6.38294 85.3915 6.75952 85.3915 8.33307V11.5878ZM88.5216 20.2239H79.8945C75.8942 20.2239 74.7336 21.2252 74.7489 24.7976V28.0722C74.7489 31.6175 75.9093 32.646 79.9098 32.646H88.5369V30.0343H79.9098C78.2762 30.0343 77.8943 29.6554 77.8943 28.0722V24.7976C77.8943 23.2144 78.2762 22.8355 79.9098 22.8355H85.4219V24.1247H88.2369C88.523 23.2501 88.5227 23.0372 88.5216 21.9905V21.9856C88.5216 21.9164 88.5216 21.8435 88.5216 21.7665V20.2239ZM95.6522 20.2239H104.279V21.7665C104.279 21.8453 104.279 21.9198 104.279 21.9904C104.28 23.0371 104.281 23.2501 103.995 24.1247H101.18V22.8355H95.6676C94.0339 22.8355 93.6521 23.2144 93.6521 24.7976V28.0722C93.6521 29.6554 94.0339 30.0343 95.6676 30.0343H104.295V32.646H95.6676C91.667 32.646 90.5067 31.6175 90.5067 28.0722V24.7976C90.4913 21.2252 91.652 20.2239 95.6522 20.2239ZM58.9056 24.7976C58.9056 21.1846 60.1073 20.2239 64.0471 20.2239H72.0939V32.646H68.9603V28.4783H62.0391V32.646H58.9056V24.7976ZM62.0391 25.9073H68.9603V22.849H64.0471C62.2367 22.849 62.0391 23.4038 62.0391 24.8111V25.9073ZM55.8319 22.8761V20.2239H43.1478V32.646H47.4267H51.7058C54.8081 32.646 56.3364 31.2386 56.3364 28.9247C56.3364 28.5458 56.2597 28.1669 56.153 27.8016C55.7402 26.462 54.3343 25.5689 52.7602 25.5689H46.2958V22.8761H55.8319ZM51.7365 27.6258H46.2958V30.0343H51.7365C52.7909 30.0343 53.1728 29.5201 53.1728 28.7894C53.1728 28.0722 52.7909 27.6258 51.7365 27.6258ZM71.7091 7.06886C71.7091 8.37342 71.0978 9.22073 70.3642 9.61077C71.3423 9.98733 72.3357 10.9019 72.351 12.4351C72.351 14.7349 70.8227 16.1337 67.7204 16.1337H59.1624V3.78725H67.3996C70.624 3.78725 71.7244 5.40115 71.7091 7.06886ZM67.0481 6.42328H62.3105V8.64242H67.0481C68.1329 8.64242 68.5608 8.23895 68.5608 7.48579C68.5608 6.75952 68.1329 6.42328 67.0481 6.42328ZM62.3105 13.5379H67.7511C68.8055 13.5379 69.1874 13.0269 69.1874 12.3006C69.1874 11.5878 68.8055 11.144 67.7511 11.144H62.3105V13.5379ZM104.295 3.75109H103.132C101.19 3.75109 100.135 4.0883 98.9113 5.73393L94.1708 12.2219V3.75109H91.0204V16.1337H94.6446L101.144 7.35254V16.1337H104.295V3.75109ZM56.3364 3.78725V6.47709L51.2273 6.40985V16.1337H48.0857V6.40985L42.9766 6.47709V3.78725H56.3364Z" fill="white"/>
<path fill-rule="evenodd" clip-rule="evenodd" d="M8.99384 2.17041C4.02668 2.17041 0 5.85862 0 10.4082V25.8401C0 30.3898 4.02668 34.0779 8.99384 34.0779H25.2259C30.193 34.0779 34.2197 30.3898 34.2197 25.8401V10.4082C34.2197 5.85862 30.193 2.17041 25.2259 2.17041H8.99384ZM9.39425 5.95078C6.43435 5.95078 4.03491 8.14854 4.03491 10.8596V25.3887C4.03491 28.0998 6.43435 30.2975 9.39425 30.2975H24.8255C27.7854 30.2975 30.1848 28.0998 30.1848 25.3887V10.8596C30.1848 8.14854 27.7854 5.95078 24.8255 5.95078H9.39425Z" fill="white"/>
<path d="M17.7422 8.30726C19.6171 8.30726 21.4949 8.26725 23.3668 8.32594C24.5634 8.36326 25.562 8.85931 26.3306 9.72072C27.8561 11.4329 27.367 13.9692 25.4048 15.1959C24.6245 15.684 23.757 15.8787 22.8312 15.8147C21.6259 15.7293 20.6244 15.2386 19.9111 14.3478C18.6301 12.7477 18.3477 10.1501 17.7422 8.30726Z" fill="#929292"/>
</g>
</svg>
