<svg width="231" height="51" viewBox="0 0 231 51" fill="none" xmlns="http://www.w3.org/2000/svg">
<path d="M78.1856 8.17779H80.3204V21.8814H88.7276V8.17779H90.8734V21.8814H92.3479V28.0284H90.4552V23.7149H78.1856V8.17779Z" fill="black"/>
<path d="M94.9009 23.7149V8.17779H106.565V10.0113H97.0357V14.7699H105.96V16.5928H97.0357V21.8814H106.939V23.7149H94.9009Z" fill="black"/>
<path d="M109.955 23.7149V8.17779H112.089V14.5579H120.474V8.17779H122.609V23.7149H120.474V16.3915H112.089V23.7149H109.955Z" fill="black"/>
<path d="M130.279 23.7149V10.0113H124.964V8.17779H137.751V10.0113H132.414V23.7149H130.279Z" fill="black"/>
<path d="M139.952 23.7149V8.17779H146.037C147.108 8.17779 147.926 8.22725 148.491 8.32617C149.283 8.45334 149.947 8.6971 150.483 9.05744C151.018 9.41072 151.447 9.90884 151.77 10.5518C152.1 11.1948 152.265 11.9013 152.265 12.6715C152.265 13.9927 151.829 15.1126 150.956 16.0311C150.083 16.9426 148.506 17.3983 146.224 17.3983H142.087V23.7149H139.952ZM142.087 15.5648H146.257C147.636 15.5648 148.616 15.3175 149.195 14.8229C149.775 14.3283 150.065 13.6324 150.065 12.735C150.065 12.085 149.892 11.5304 149.547 11.0711C149.21 10.6048 148.762 10.2974 148.205 10.1491C147.845 10.0572 147.182 10.0113 146.213 10.0113H142.087V15.5648Z" fill="black"/>
<path d="M78.1086 48.6597V33.1226H81.3218L85.1402 44.1236C85.4924 45.1481 85.7491 45.9148 85.9105 46.4235C86.0939 45.8582 86.38 45.028 86.7688 43.9329L90.6313 33.1226H93.5034V48.6597H91.4456V35.6556L86.7578 48.6597H84.8321L80.1664 35.4331V48.6597H78.1086Z" fill="black"/>
<path d="M96.9917 48.6597V33.1226H108.656V34.9561H99.1265V39.7148H108.051V41.5377H99.1265V46.8262H109.03V48.6597H96.9917Z" fill="black"/>
<path d="M116.084 48.6597V34.9561H110.769V33.1226H123.556V34.9561H118.219V48.6597H116.084Z" fill="black"/>
<path d="M125.756 48.6597V33.1226H131.842C132.913 33.1226 133.731 33.1721 134.296 33.271C135.088 33.3982 135.752 33.642 136.287 34.0023C136.823 34.3556 137.252 34.8537 137.575 35.4967C137.905 36.1396 138.07 36.8462 138.07 37.6163C138.07 38.9376 137.634 40.0574 136.761 40.976C135.888 41.8874 134.31 42.3431 132.029 42.3431H127.891V48.6597H125.756ZM127.891 40.5096H132.062C133.441 40.5096 134.42 40.2623 135 39.7678C135.579 39.2732 135.869 38.5772 135.869 37.6799C135.869 37.0299 135.697 36.4752 135.352 36.016C135.015 35.5496 134.567 35.2423 134.01 35.0939C133.65 35.0021 132.986 34.9561 132.018 34.9561H127.891V40.5096Z" fill="black"/>
<path d="M139.633 41.0925C139.633 38.5136 140.352 36.4964 141.79 35.0409C143.227 33.5784 145.083 32.8471 147.358 32.8471C148.847 32.8471 150.189 33.1898 151.385 33.8751C152.581 34.5605 153.491 35.5178 154.114 36.7472C154.745 37.9696 155.06 39.358 155.06 40.9124C155.06 42.488 154.73 43.8975 154.07 45.1411C153.41 46.3846 152.475 47.3279 151.264 47.9708C150.054 48.6067 148.748 48.9247 147.347 48.9247C145.828 48.9247 144.471 48.5714 143.275 47.8648C142.079 47.1583 141.173 46.1938 140.557 44.9715C139.941 43.7492 139.633 42.4562 139.633 41.0925ZM141.834 41.1243C141.834 42.9967 142.354 44.4734 143.396 45.5544C144.445 46.6284 145.758 47.1654 147.336 47.1654C148.942 47.1654 150.263 46.6213 151.297 45.5332C152.339 44.4451 152.86 42.9013 152.86 40.9018C152.86 39.637 152.636 38.5348 152.188 37.5951C151.748 36.6483 151.099 35.917 150.241 35.4013C149.39 34.8784 148.432 34.617 147.369 34.617C145.857 34.617 144.555 35.1186 143.462 36.122C142.376 37.1182 141.834 38.7857 141.834 41.1243Z" fill="black"/>
<path d="M158.736 33.1226H168.838V48.6597H166.703V34.9561H160.871V42.9578C160.871 44.5829 160.79 45.7734 160.629 46.5295C160.475 47.2855 160.144 47.8754 159.638 48.2994C159.132 48.7162 158.49 48.9247 157.712 48.9247C157.243 48.9247 156.678 48.8399 156.018 48.6703L156.381 46.8474C156.733 46.9887 157.034 47.0594 157.283 47.0594C157.767 47.0594 158.131 46.8863 158.373 46.5401C158.615 46.1868 158.736 45.3601 158.736 44.0601V33.1226Z" fill="black"/>
<path d="M171.699 41.0925C171.699 38.5136 172.418 36.4964 173.856 35.0409C175.293 33.5784 177.149 32.8471 179.424 32.8471C180.913 32.8471 182.255 33.1898 183.451 33.8751C184.647 34.5605 185.557 35.5178 186.18 36.7472C186.811 37.9696 187.127 39.358 187.127 40.9124C187.127 42.488 186.796 43.8975 186.136 45.1411C185.476 46.3846 184.541 47.3279 183.33 47.9708C182.12 48.6067 180.814 48.9247 179.413 48.9247C177.894 48.9247 176.537 48.5714 175.341 47.8648C174.145 47.1583 173.239 46.1938 172.623 44.9715C172.007 43.7492 171.699 42.4562 171.699 41.0925ZM173.9 41.1243C173.9 42.9967 174.42 44.4734 175.462 45.5544C176.511 46.6284 177.824 47.1654 179.402 47.1654C181.008 47.1654 182.329 46.6213 183.363 45.5332C184.405 44.4451 184.926 42.9013 184.926 40.9018C184.926 39.637 184.702 38.5348 184.254 37.5951C183.814 36.6483 183.165 35.917 182.307 35.4013C181.456 34.8784 180.498 34.617 179.435 34.617C177.923 34.617 176.621 35.1186 175.528 36.122C174.442 37.1182 173.9 38.7857 173.9 41.1243Z" fill="black"/>
<path d="M189.922 33.1226H200.354V34.9561H192.056V48.6597H189.922V33.1226Z" fill="black"/>
<path d="M202.136 33.1226H204.073V45.4272L212.656 33.1226H214.802V48.6597H212.865V36.3869L204.271 48.6597H202.136V33.1226Z" fill="black"/>
<path d="M218.334 33.1226H220.271V45.4272L228.854 33.1226H231V48.6597H229.063V36.3869L220.469 48.6597H218.334V33.1226Z" fill="black"/>
<path d="M0.116406 35.5471C1.02364 41.2561 3.56359 46.6091 7.45165 51.0062L16.1883 43.8402C13.682 41.0058 12.0447 37.5551 11.4599 33.875L0.116406 35.5471Z" fill="#1356AF"/>
<path d="M6.91472 11.3012C3.14688 15.7944 0.752548 21.2092 0 26.9391L11.3848 28.3261C11.87 24.6325 13.4134 21.142 15.8422 18.2456L6.91472 11.3012Z" fill="#216CFF"/>
<path d="M27.835 0.00616455C21.8893 0.757507 16.2782 3.0886 11.6305 6.73826L18.8821 15.3042C21.8781 12.9516 25.4951 11.4489 29.3279 10.9646L27.835 0.00616455Z" fill="#76A0EA"/>
<path d="M52.5083 6.79125C47.8709 3.12956 42.2663 0.783921 36.3227 0.0171667L34.7992 10.9717C38.6306 11.4659 42.2434 12.978 45.2328 15.3384L52.5083 6.79125Z" fill="#A4C2F6"/>
<path d="M64.1758 27.8378C63.5965 22.0892 61.3667 16.6096 57.7361 12.0129L48.6027 18.7044C50.9431 21.6675 52.3805 25.1998 52.7539 28.9054L64.1758 27.8378Z" fill="#CADDEF"/>
<path d="M57.1715 50.3651C60.936 45.8694 63.3262 40.4528 64.0745 34.7224L52.6886 33.3434C52.2063 37.0373 50.6655 40.5289 48.2388 43.427L57.1715 50.3651Z" fill="#EAEDF2"/>
<path fill-rule="evenodd" clip-rule="evenodd" d="M33.0103 18.671C34.0861 19.9743 34.7665 20.8247 35.489 21.769C38.1163 25.2028 40.0917 28.3398 41.1989 30.8362C42.0825 32.8285 42.3002 34.2184 41.999 35.9458C41.7806 37.1984 41.3515 38.3377 40.7101 39.3677C40.2539 40.1003 39.8658 40.5683 39.1195 41.2859C38.3027 42.0711 37.7823 42.4537 36.9236 42.9002C35.7152 43.5285 34.5279 43.8964 33.193 44.056C32.6498 44.121 31.4688 44.1204 30.9173 44.0549C29.0586 43.834 27.3561 43.1583 25.9064 42.0662C24.3188 40.8703 23.1399 39.2654 22.5257 37.4638C22.0514 36.0725 21.9019 34.7318 22.0876 33.5358C22.2038 32.788 22.5553 31.6581 22.9231 30.8497C23.1825 30.2797 24.0413 28.6274 24.4277 27.9549C25.6918 25.7552 27.6285 23.008 29.9641 20.1019C30.6444 19.2553 32.0376 17.5691 32.0644 17.5597C32.0765 17.5554 32.5022 18.0555 33.0103 18.671ZM38.1324 29.8105C38.3043 30.5172 38.4039 31.0455 38.4703 31.6027C38.6031 32.7167 38.5696 33.995 38.3844 34.8751C38.2407 35.558 38.126 35.9436 37.9043 36.4879C37.417 37.6845 36.6905 38.733 35.7065 39.6598C35.2186 40.1193 34.8344 40.4156 34.1896 40.8296C33.9006 41.0152 33.6641 41.17 33.6641 41.1736C33.6641 41.1805 33.6712 41.1801 34.1826 41.1366C35.7214 41.006 37.1375 40.3777 38.1924 39.3576C38.9092 38.6645 39.4408 37.7815 39.6908 36.869C39.9905 35.7749 40.0481 34.4003 39.8434 33.2265C39.678 32.2779 39.2991 31.175 38.8732 30.4025C38.6398 29.9792 38.0089 29.0875 37.9872 29.1503C37.9823 29.1647 38.0476 29.4618 38.1324 29.8105Z" fill="#2D7FC8"/>
</svg>
