<svg width="255" height="54" viewBox="0 0 255 54" fill="none" xmlns="http://www.w3.org/2000/svg">
<g opacity="0.6">
<path d="M86.2275 9.26128H88.5718V23.5502H97.8037V9.26128H100.16V23.5502H101.779V29.9597H99.7009V25.462H86.2275V9.26128Z" fill="white"/>
<path d="M104.583 25.462V9.26128H117.391V11.1731H106.927V16.135H116.727V18.0357H106.927V23.5502H117.802V25.462H104.583Z" fill="white"/>
<path d="M121.113 25.462V9.26128H123.458V15.914H132.665V9.26128H135.01V25.462H132.665V17.8258H123.458V25.462H121.113Z" fill="white"/>
<path d="M143.432 25.462V11.1731H137.596V9.26128H151.637V11.1731H145.776V25.462H143.432Z" fill="white"/>
<path d="M154.054 25.462V9.26128H160.736C161.912 9.26128 162.81 9.31285 163.431 9.416C164.301 9.54861 165.03 9.80278 165.618 10.1785C166.206 10.5469 166.677 11.0663 167.032 11.7367C167.394 12.4071 167.575 13.1438 167.575 13.9469C167.575 15.3246 167.096 16.4923 166.137 17.45C165.179 18.4004 163.447 18.8756 160.941 18.8756H156.398V25.462H154.054ZM156.398 16.9638H160.978C162.492 16.9638 163.568 16.7059 164.204 16.1902C164.84 15.6745 165.159 14.9488 165.159 14.0132C165.159 13.3354 164.969 12.7571 164.591 12.2782C164.22 11.7919 163.729 11.4715 163.116 11.3168C162.722 11.221 161.993 11.1731 160.929 11.1731H156.398V16.9638Z" fill="white"/>
<path d="M86.1429 51.4723V35.2716H89.6714L93.8644 46.7425C94.2511 47.8107 94.5331 48.6101 94.7103 49.1405C94.9117 48.5511 95.2259 47.6855 95.6528 46.5435L99.8942 35.2716H103.048V51.4723H100.788V37.9128L95.6407 51.4723H93.5261L88.4026 37.6807V51.4723H86.1429Z" fill="white"/>
<path d="M106.879 51.4723V35.2716H119.687V37.1834H109.223V42.1453H119.023V44.046H109.223V49.5605H120.098V51.4723H106.879Z" fill="white"/>
<path d="M127.844 51.4723V37.1834H122.007V35.2716H136.049V37.1834H130.188V51.4723H127.844Z" fill="white"/>
<path d="M138.466 51.4723V35.2716H145.148C146.324 35.2716 147.222 35.3232 147.843 35.4263C148.713 35.5589 149.442 35.8131 150.03 36.1888C150.618 36.5572 151.089 37.0766 151.443 37.747C151.806 38.4174 151.987 39.1541 151.987 39.9572C151.987 41.3349 151.508 42.5026 150.549 43.4603C149.591 44.4107 147.859 44.8859 145.353 44.8859H140.81V51.4723H138.466ZM140.81 42.9741H145.39C146.904 42.9741 147.979 42.7162 148.616 42.2005C149.252 41.6848 149.571 40.9591 149.571 40.0235C149.571 39.3457 149.381 38.7674 149.003 38.2885C148.632 37.8022 148.141 37.4818 147.528 37.3271C147.134 37.2313 146.405 37.1834 145.341 37.1834H140.81V42.9741Z" fill="white"/>
<path d="M153.703 43.5819C153.703 40.8928 154.493 38.7895 156.072 37.2718C157.651 35.7468 159.689 34.9843 162.186 34.9843C163.821 34.9843 165.295 35.3416 166.609 36.0562C167.922 36.7708 168.921 37.7691 169.605 39.051C170.298 40.3255 170.645 41.7732 170.645 43.394C170.645 45.0369 170.282 46.5067 169.557 47.8034C168.832 49.1 167.805 50.0835 166.476 50.754C165.146 51.417 163.713 51.7485 162.174 51.7485C160.506 51.7485 159.016 51.3802 157.703 50.6434C156.39 49.9067 155.395 48.9011 154.718 47.6265C154.041 46.352 153.703 45.0038 153.703 43.5819ZM156.12 43.615C156.12 45.5674 156.692 47.1071 157.836 48.2343C158.988 49.3542 160.43 49.9141 162.162 49.9141C163.926 49.9141 165.376 49.3468 166.512 48.2122C167.656 47.0777 168.228 45.4679 168.228 43.383C168.228 42.0642 167.982 40.9149 167.491 39.9351C167.007 38.9479 166.294 38.1853 165.352 37.6475C164.417 37.1024 163.366 36.8298 162.198 36.8298C160.539 36.8298 159.109 37.3528 157.908 38.399C156.716 39.4378 156.12 41.1765 156.12 43.615Z" fill="white"/>
<path d="M174.681 35.2716H185.773V51.4723H183.429V37.1834H177.025V45.5269C177.025 47.2213 176.936 48.4627 176.759 49.251C176.59 50.0393 176.227 50.6545 175.671 51.0965C175.116 51.5312 174.411 51.7485 173.557 51.7485C173.041 51.7485 172.421 51.6601 171.696 51.4833L172.095 49.5826C172.481 49.7299 172.812 49.8036 173.085 49.8036C173.617 49.8036 174.016 49.6231 174.282 49.2621C174.548 48.8937 174.681 48.0317 174.681 46.6762V35.2716Z" fill="white"/>
<path d="M188.915 43.5819C188.915 40.8928 189.705 38.7895 191.284 37.2718C192.863 35.7468 194.901 34.9843 197.398 34.9843C199.033 34.9843 200.508 35.3416 201.821 36.0562C203.134 36.7708 204.133 37.7691 204.817 39.051C205.51 40.3255 205.857 41.7732 205.857 43.394C205.857 45.0369 205.494 46.5067 204.769 47.8034C204.044 49.1 203.017 50.0835 201.688 50.754C200.359 51.417 198.925 51.7485 197.386 51.7485C195.718 51.7485 194.228 51.3802 192.915 50.6434C191.602 49.9067 190.607 48.9011 189.93 47.6265C189.254 46.352 188.915 45.0038 188.915 43.5819ZM191.332 43.615C191.332 45.5674 191.904 47.1071 193.048 48.2343C194.2 49.3542 195.642 49.9141 197.374 49.9141C199.138 49.9141 200.588 49.3468 201.724 48.2122C202.868 47.0777 203.44 45.4679 203.44 43.383C203.44 42.0642 203.194 40.9149 202.703 39.9351C202.219 38.9479 201.506 38.1853 200.564 37.6475C199.629 37.1024 198.578 36.8298 197.41 36.8298C195.751 36.8298 194.321 37.3528 193.12 38.399C191.928 39.4378 191.332 41.1765 191.332 43.615Z" fill="white"/>
<path d="M208.926 35.2716H220.381V37.1834H211.27V51.4723H208.926V35.2716Z" fill="white"/>
<path d="M222.339 35.2716H224.466V48.1017L233.891 35.2716H236.247V51.4723H234.12V38.6753L224.683 51.4723H222.339V35.2716Z" fill="white"/>
<path d="M240.126 35.2716H242.253V48.1017L251.678 35.2716H254.035V51.4723H251.908V38.6753L242.47 51.4723H240.126V35.2716Z" fill="white"/>
<path d="M0.49892 37.7996C1.49517 43.7525 4.28431 49.3341 8.55382 53.9189L18.1477 46.4469C15.3954 43.4914 13.5975 39.8934 12.9553 36.056L0.49892 37.7996Z" fill="#434343"/>
<path d="M7.96421 12.5181C3.82672 17.2032 1.19747 22.8493 0.371094 28.8239L12.8729 30.2702C13.4056 26.4188 15.1005 22.7792 17.7676 19.7591L7.96421 12.5181Z" fill="#767676"/>
<path d="M30.937 0.740631C24.4079 1.52406 18.2463 3.95473 13.1427 7.76027L21.1057 16.6921C24.3957 14.239 28.3675 12.6721 32.5763 12.1671L30.937 0.740631Z" fill="#969696"/>
<path d="M58.031 7.81552C52.9386 3.99743 46.7842 1.55161 40.2574 0.752103L38.5845 12.1745C42.7917 12.6899 46.759 14.2665 50.0417 16.7277L58.031 7.81552Z" fill="#A7A7A7"/>
<path d="M70.8432 29.761C70.2071 23.7669 67.7585 18.0533 63.7717 13.2602L53.7422 20.2375C56.3122 23.3272 57.8907 27.0103 58.3007 30.8742L70.8432 29.761Z" fill="#CBCBCB"/>
<path d="M63.1517 53.2505C67.2855 48.5628 69.9103 42.9149 70.7319 36.9397L58.229 35.5018C57.6993 39.3535 56.0073 42.9942 53.3426 46.0161L63.1517 53.2505Z" fill="white"/>
<path fill-rule="evenodd" clip-rule="evenodd" d="M36.62 20.2027C37.8013 21.5616 38.5485 22.4483 39.3419 23.433C42.2269 27.0135 44.3962 30.2844 45.6121 32.8875C46.5823 34.9648 46.8213 36.4142 46.4906 38.2153C46.2508 39.5215 45.7796 40.7094 45.0753 41.7834C44.5743 42.5473 44.1481 43.0353 43.3286 43.7835C42.4317 44.6022 41.8602 45.0012 40.9172 45.4667C39.5903 46.1219 38.2866 46.5055 36.8207 46.672C36.2242 46.7397 34.9273 46.7391 34.3216 46.6707C32.2807 46.4404 30.4111 45.7359 28.8192 44.5972C27.0758 43.3502 25.7813 41.6767 25.1068 39.7981C24.586 38.3475 24.4218 36.9494 24.6258 35.7024C24.7533 34.9226 25.1392 33.7445 25.5432 32.9016C25.828 32.3072 26.7711 30.5843 27.1954 29.8831C28.5835 27.5895 30.7103 24.7249 33.2749 21.6947C34.0221 20.8119 35.5519 19.0537 35.5813 19.0439C35.5946 19.0394 36.0621 19.5609 36.62 20.2027ZM42.2447 31.818C42.4334 32.5548 42.5428 33.1058 42.6157 33.6867C42.7616 34.8483 42.7247 36.1812 42.5214 37.0989C42.3636 37.811 42.2376 38.213 41.9942 38.7806C41.4591 40.0283 40.6613 41.1216 39.5807 42.088C39.045 42.5671 38.6231 42.876 37.9151 43.3077C37.5976 43.5012 37.338 43.6626 37.338 43.6664C37.338 43.6736 37.3458 43.6731 37.9074 43.6279C39.5971 43.4917 41.1522 42.8365 42.3106 41.7728C43.0976 41.0501 43.6814 40.1294 43.9559 39.1779C44.2851 38.0371 44.3483 36.6039 44.1235 35.3798C43.9419 34.3908 43.5258 33.2407 43.0581 32.4352C42.8018 31.9938 42.109 31.0641 42.0853 31.1296C42.0798 31.1446 42.1516 31.4544 42.2447 31.818Z" fill="#E0E0E0"/>
</g>
</svg>
