<svg width="137" height="93" viewBox="0 0 137 93" fill="none" xmlns="http://www.w3.org/2000/svg">
<path fill-rule="evenodd" clip-rule="evenodd" d="M26.1811 24.0703C11.7817 37.3031 0 48.2896 0 48.4839C0 48.908 3.12251 51.7522 3.58811 51.7522C3.76768 51.7525 6.12381 49.6868 8.82433 47.1616L13.7343 42.5705V67.5134V92.4562H16.4812H19.2281V65.0396V37.6233L35.9315 22.254L52.6345 6.8851L65.0417 18.2834L77.4487 29.6817L83.1034 29.5946L88.7582 29.5075L88.8506 22.4869L88.9429 15.4663H92.1983H95.4537V22.408V29.3497H106.269H117.085V26.8255V24.3012H109.016H100.947V17.3595V10.4178H92.1918H83.4361V17.5173V24.6168H81.5264H79.6166L66.2768 12.311C58.9403 5.54282 52.8079 0.00617414 52.6496 0.0077518C52.4916 0.00901393 40.5809 10.8371 26.1811 24.0703ZM91.7691 35.0104C90.9698 35.13 90.2594 35.2896 90.1897 35.3654C89.8236 35.7629 90.8156 37.6738 91.8821 38.6258C93.9357 40.4584 97.3713 40.5319 99.6681 38.7924C100.82 37.9196 101.951 35.8459 101.5 35.4319C101.389 35.3294 100.602 35.1489 99.7526 35.0303C98.3791 34.8387 98.1494 34.8962 97.6845 35.5481C96.7059 36.9206 94.4102 36.7973 93.9086 35.3452C93.7887 34.9978 93.5851 34.7315 93.4564 34.7532C93.3273 34.775 92.5681 34.8908 91.7691 35.0104ZM65.7532 41.3434C62.7704 42.1916 59.7327 44.6089 58.3147 47.2628C57.6516 48.5041 57.5174 49.2586 57.5153 51.7525C57.5129 54.3652 57.6307 54.9729 58.4331 56.4855C60.0201 59.4765 62.2581 61.2387 65.6873 62.197C68.4534 62.97 70.7851 62.952 73.5079 62.1361C77.0686 61.069 79.1675 59.3648 80.7779 56.2334C81.7324 54.3771 81.7901 54.0543 81.6507 51.3427C81.4732 47.8794 80.5863 45.9922 78.1783 43.9523C75.703 41.8556 73.8544 41.2131 70.0452 41.1257C68.2511 41.0844 66.3197 41.1825 65.7532 41.3434ZM29.8722 51.7525V62.1651H32.9545H36.0372L36.1306 56.4619L36.2243 50.7586L38.9406 54.5687C40.4349 56.6641 41.7483 58.3743 41.8592 58.3686C41.9704 58.3633 43.143 56.8036 44.4649 54.9025C45.7869 53.0017 47.0566 51.1959 47.2867 50.8896C47.6225 50.4428 47.7073 51.5017 47.7159 56.2489L47.7268 62.1651H50.8171H53.9073V51.7525V41.34L50.5596 41.3453L47.2118 41.3504L45.324 44.264C42.6671 48.3637 42.0855 49.2008 41.8898 49.2071C41.7953 49.21 40.5592 47.4446 39.1429 45.2841L36.5677 41.3558L33.22 41.3479L29.8722 41.34V51.7525ZM85.1529 51.7525V62.1651H88.1954H91.2379L92.588 60.3508C93.3307 59.3528 95.0873 56.9746 96.4917 55.0656C97.896 53.1567 99.2413 51.407 99.4813 51.178C99.8346 50.84 99.9174 51.8444 99.9174 56.4631V62.1651H103.008H106.098V51.7525V41.34H103.008C101.308 41.34 99.9174 41.4602 99.9174 41.6072C99.9174 41.7543 99.6468 42.1686 99.3165 42.5283C98.9862 42.8877 97.4023 44.9878 95.7971 47.1953C94.1919 49.4028 92.5358 51.5796 92.1169 52.0327L91.355 52.8569L91.3444 47.0984L91.3334 41.34H88.2432H85.1529V51.7525ZM72.277 46.8896C73.7648 47.8084 74.1785 48.2337 74.699 49.3778C76.5044 53.3485 73.8636 57.4321 69.4906 57.4321C68.2387 57.4321 66.5731 56.7809 65.5715 55.8999C63.1124 53.7363 63.3661 49.2497 66.0574 47.3064C67.7124 46.1111 70.6934 45.9114 72.277 46.8896ZM94.6983 66.9565C90.8633 67.408 87.2203 69.896 85.5423 73.2087C84.8213 74.6318 84.6609 75.4266 84.6506 77.6262C84.6396 79.9185 84.7759 80.5748 85.5883 82.1434C88.159 87.1064 94.0439 89.6016 99.9228 88.2215C104.492 87.1487 107.532 84.3565 108.699 80.1609C109.627 76.8203 108.968 73.9461 106.614 71.0679C103.971 67.8374 99.7079 66.3664 94.6983 66.9565ZM62.5685 72.4988C62.2032 77.3643 61.7462 79.8646 60.8085 82.1225C60.5252 82.805 60.2261 82.9902 59.4096 82.9902H58.371V87.7232V92.4562H61.2686H64.1658L64.354 91.1152C64.4577 90.3778 64.583 89.4192 64.6328 88.9854L64.7231 88.1965L70.646 88.1101L76.569 88.0239V90.2399V92.4562H79.2413H81.9137L82.3319 89.222C82.5616 87.443 82.7494 85.3132 82.7494 84.489V82.9902H81.5477H80.3459V75.102V67.2136H71.6555H62.9651L62.5685 72.4988ZM112.278 77.6262V88.0388H115.361H118.444L118.537 82.1336L118.63 76.2284L120.587 79.0571C121.662 80.613 122.964 82.4393 123.478 83.1158C124.586 84.5727 124.23 84.8535 127.901 79.6273L130.305 76.2063L130.398 82.1225L130.491 88.0388H133.574H136.657V77.6262V67.2136H133.247H129.838L128.208 69.659C125.914 73.1015 124.535 75.102 124.456 75.102C124.419 75.102 123.574 73.8597 122.578 72.341C121.583 70.8227 120.382 69.0478 119.91 68.3969L119.052 67.2136H115.665H112.278V77.6262ZM99.735 72.8872C101.725 74.0171 102.49 75.3367 102.483 77.6262C102.475 80.1631 101.497 81.724 99.3203 82.6719C97.5712 83.4336 96.538 83.4667 94.8418 82.8158C91.8587 81.6707 90.5334 79.1127 91.3341 76.0457C91.6493 74.8388 92.073 74.2084 93.1254 73.3807C93.8835 72.7844 94.8332 72.2312 95.2364 72.1511C96.4721 71.9062 98.6291 72.259 99.735 72.8872ZM73.8221 77.6262V82.9902H70.5372C67.572 82.9902 67.2688 82.9366 67.4236 82.4381C68.2374 79.8182 68.7208 77.4031 68.9028 75.048L69.1178 72.2621H71.4701H73.8221V77.6262Z" fill="#065689"/>
</svg>
