<svg width="137" height="94" viewBox="0 0 137 94" fill="none" xmlns="http://www.w3.org/2000/svg">
<path opacity="0.6" fill-rule="evenodd" clip-rule="evenodd" d="M26.2123 24.7152C11.8129 37.948 0.03125 48.9346 0.03125 49.1289C0.03125 49.553 3.15376 52.3972 3.61936 52.3972C3.79893 52.3975 6.15506 50.3317 8.85558 47.8065L13.7656 43.2155V68.1584V93.1012H16.5125H19.2593V65.6846V38.2683L35.9627 22.899L52.6657 7.53009L65.073 18.9284L77.4799 30.3267L83.1347 30.2396L88.7895 30.1525L88.8818 23.1319L88.9742 16.1113H92.2296H95.4849V23.053V29.9947H106.301H117.117V27.4705V24.9462H109.048H100.979V18.0045V11.0628H92.223H83.4674V18.1623V25.2617H81.5576H79.6479L66.308 12.956C58.9715 6.18781 52.8391 0.651163 52.6808 0.652741C52.5229 0.654003 40.6121 11.4821 26.2123 24.7152ZM91.8004 35.6554C91.001 35.775 90.2906 35.9346 90.2209 36.0104C89.8549 36.4079 90.8469 38.3188 91.9133 39.2708C93.967 41.1034 97.4026 41.1769 99.6993 39.4374C100.852 38.5646 101.982 36.4909 101.531 36.0769C101.42 35.9744 100.633 35.7939 99.7838 35.6753C98.4104 35.4837 98.1807 35.5412 97.7158 36.1931C96.7372 37.5656 94.4415 37.4422 93.9398 35.9902C93.82 35.6428 93.6164 35.3765 93.4876 35.3982C93.3585 35.42 92.5993 35.5358 91.8004 35.6554ZM65.7844 41.9884C62.8017 42.8366 59.764 45.2539 58.3459 47.9078C57.6829 49.1491 57.5486 49.9036 57.5466 52.3975C57.5442 55.0101 57.6619 55.6179 58.4644 57.1305C60.0514 60.1215 62.2894 61.8837 65.7185 62.842C68.4846 63.615 70.8163 63.597 73.5392 62.7811C77.0998 61.7139 79.1988 60.0097 80.8091 56.8784C81.7636 55.0221 81.8213 54.6993 81.6819 51.9877C81.5044 48.5244 80.6175 46.6372 78.2096 44.5973C75.7343 42.5005 73.8856 41.8581 70.0764 41.7707C68.2824 41.7294 66.351 41.8275 65.7844 41.9884ZM29.9035 52.3975V62.8101H32.9858H36.0685L36.1618 57.1068L36.2556 51.4036L38.9719 55.2137C40.4662 57.3091 41.7795 59.0193 41.8904 59.0136C42.0017 59.0082 43.1743 57.4486 44.4962 55.5475C45.8181 53.6467 47.0879 51.8409 47.3179 51.5346C47.6537 51.0878 47.7385 52.1467 47.7471 56.8939L47.7581 62.8101H50.8483H53.9386V52.3975V41.985L50.5908 41.9903L47.2431 41.9954L45.3553 44.909C42.6984 49.0087 42.1167 49.8458 41.921 49.8521C41.8266 49.855 40.5905 48.0896 39.1741 45.9291L36.5989 42.0007L33.2512 41.9929L29.9035 41.985V52.3975ZM85.1842 52.3975V62.8101H88.2267H91.2692L92.6193 60.9958C93.362 59.9978 95.1186 57.6196 96.5229 55.7106C97.9273 53.8017 99.2725 52.052 99.5125 51.8229C99.8658 51.485 99.9486 52.4893 99.9486 57.1081V62.8101H103.039H106.129V52.3975V41.985H103.039C101.339 41.985 99.9486 42.1052 99.9486 42.2522C99.9486 42.3993 99.678 42.8136 99.3477 43.1733C99.0174 43.5326 97.4335 45.6328 95.8283 47.8403C94.2231 50.0478 92.5671 52.2246 92.1482 52.6777L91.3863 53.5019L91.3756 47.7434L91.3646 41.985H88.2744H85.1842V52.3975ZM72.3082 47.5345C73.796 48.4534 74.2098 48.8787 74.7303 50.0228C76.5357 53.9935 73.8949 58.0771 69.5219 58.0771C68.27 58.0771 66.6044 57.4259 65.6028 56.5449C63.1437 54.3813 63.3974 49.8947 66.0886 47.9514C67.7436 46.7561 70.7247 46.5564 72.3082 47.5345ZM94.7296 67.6015C90.8946 68.053 87.2515 70.541 85.5736 73.8537C84.8525 75.2768 84.6922 76.0716 84.6819 78.2712C84.6709 80.5635 84.8072 81.2198 85.6196 82.7883C88.1903 87.7514 94.0751 90.2466 99.9541 88.8664C104.524 87.7936 107.564 85.0015 108.73 80.8059C109.658 77.4653 109 74.5911 106.645 71.7128C104.002 68.4824 99.7392 67.0114 94.7296 67.6015ZM62.5998 73.1438C62.2344 78.0093 61.7774 80.5096 60.8397 82.7675C60.5564 83.45 60.2574 83.6352 59.4409 83.6352H58.4022V88.3682V93.1012H61.2998H64.1971L64.3852 91.7602C64.4889 91.0228 64.6143 90.0642 64.664 89.6303L64.7544 88.8415L70.6773 88.7551L76.6002 88.6689V90.8849V93.1012H79.2726H81.9449L82.3632 89.867C82.5929 88.088 82.7807 85.9582 82.7807 85.134V83.6352H81.5789H80.3772V75.7469V67.8586H71.6868H62.9964L62.5998 73.1438ZM112.31 78.2712V88.6838H115.392H118.475L118.568 82.7786L118.662 76.8734L120.618 79.7021C121.694 81.258 122.995 83.0843 123.509 83.7608C124.617 85.2177 124.261 85.4985 127.932 80.2723L130.336 76.8513L130.429 82.7675L130.523 88.6838H133.605H136.688V78.2712V67.8586H133.279H129.87L128.24 70.304C125.945 73.7465 124.566 75.7469 124.487 75.7469C124.45 75.7469 123.605 74.5047 122.61 72.986C121.614 71.4677 120.413 69.6928 119.941 69.0419L119.083 67.8586H115.696H112.31V78.2712ZM99.7663 73.5322C101.756 74.6621 102.521 75.9817 102.514 78.2712C102.507 80.8081 101.528 82.369 99.3515 83.3169C97.6024 84.0786 96.5693 84.1117 94.8731 83.4608C91.89 82.3157 90.5646 79.7577 91.3653 76.6907C91.6805 75.4838 92.1042 74.8534 93.1566 74.0257C93.9148 73.4294 94.8645 72.8762 95.2676 72.7961C96.5033 72.5512 98.6603 72.904 99.7663 73.5322ZM73.8534 78.2712V83.6352H70.5685C67.6032 83.6352 67.3 83.5816 67.4549 83.0831C68.2686 80.4632 68.7521 78.0481 68.9341 75.693L69.149 72.9071H71.5013H73.8534V78.2712Z" fill="white"/>
</svg>
