<svg width="217" height="49" viewBox="0 0 217 49" fill="none" xmlns="http://www.w3.org/2000/svg">
<g opacity="0.6">
<path d="M129.589 32.1893V18.9708L132.169 16.5982H137.403V32.1893H134.823V18.4285H133.938L132.169 20.0554V32.1893H129.589Z" fill="#D0D0D0"/>
<path fill-rule="evenodd" clip-rule="evenodd" d="M91.6225 16.7338H96.6355L99.142 18.6996V29.8845L96.6355 32.1893H94.129V39.7814H91.6225V16.7338ZM93.9816 30.2234V18.6318H95.456L96.6355 19.3775V29.071L95.456 30.2234H93.9816Z" fill="#D0D0D0"/>
<path fill-rule="evenodd" clip-rule="evenodd" d="M63.2399 12.1243V14.2935H65.083L63.6823 16.0559V24.3937L66.1151 26.6307H69.4325V30.2912L67.0734 30.6301V32.1215H74.3718V30.6301L72.0127 30.2912V26.6307H75.109L77.5418 24.2582V15.5136L74.7404 12.1243H63.2399ZM69.4325 14.2935H67.3683L66.2625 15.717V23.5125L67.8844 25.0038H69.4325V14.2935ZM71.7916 14.2935H73.8558L74.9616 15.717V23.5125L73.3397 25.0038H71.7916V14.2935Z" fill="#D0D0D0"/>
<path fill-rule="evenodd" clip-rule="evenodd" d="M80.8593 18.903V30.0879L82.9972 32.1893H86.0197L88.3788 30.0879V18.903L86.0197 16.7338H82.9972L80.8593 18.903ZM84.103 18.903L83.292 19.6486V29.6811L84.103 30.4268H85.1351L86.0197 29.6811V19.6486L85.1351 18.903H84.103Z" fill="#D0D0D0"/>
<path d="M35.3214 27.1931C37.2647 23.3173 42.2572 21.624 46.4722 23.4109C50.3763 25.066 52.2442 29.1263 50.9544 32.796C50.8259 33.1132 50.6904 33.4272 50.548 33.7379C46.5822 42.3899 37.2729 48.4633 26.4209 48.4633C19.5062 48.4633 13.2178 45.9975 8.53899 41.97C9.5896 42.1493 10.6078 42.3023 11.5945 42.4259C18.7862 43.4613 23.7992 42.6485 27.7072 39.8536C30.6407 37.7557 32.9115 34.4163 34.6124 29.4657C34.7174 28.6984 34.9505 27.9327 35.3214 27.1931Z" fill="#8D8D8D"/>
<path d="M17.9424 21.464C15.999 25.3398 11.0066 27.0331 6.79149 25.2461C2.88745 23.591 1.01957 19.5308 2.30933 15.861C2.43778 15.5438 2.57331 15.2298 2.71572 14.9191C6.68148 6.26719 15.9908 0.193756 26.8428 0.193756C33.7576 0.193756 40.046 2.65959 44.7247 6.68712C43.6741 6.50778 42.6559 6.35481 41.6693 6.23115C34.4775 5.1958 29.4645 6.00855 25.5565 8.80342C22.6231 10.9014 20.3523 14.2408 18.6513 19.1914C18.5463 19.9586 18.3133 20.7243 17.9424 21.464Z" fill="#989898"/>
<path d="M23.5619 32.6837C27.7769 34.4706 29.6185 39.0612 27.6751 42.937C25.8751 46.5268 21.4594 48.2443 17.4684 47.0584C17.1235 46.9403 16.782 46.8157 16.4441 46.6847C7.03477 43.0382 0.429688 34.4782 0.429688 24.4996C0.429688 18.1415 3.11137 12.3592 7.49146 8.05706C7.29643 9.0231 7.13006 9.95939 6.99558 10.8666C5.8696 17.4795 6.75349 22.089 9.79302 25.6824C12.0746 28.3797 15.7063 30.4678 21.0903 32.0318C21.9247 32.1284 22.7575 32.3426 23.5619 32.6837Z" fill="#D3D3D3"/>
<path d="M29.7924 15.8901C25.5774 14.1032 23.7358 9.51258 25.6792 5.63679C27.4792 2.04699 31.8949 0.329451 35.8859 1.5154C36.2308 1.63351 36.5723 1.75813 36.9102 1.88908C46.3195 5.53562 52.9246 14.0956 52.9246 24.0742C52.9246 30.4323 50.2429 36.2146 45.8628 40.5167C46.0579 39.5507 46.2242 38.6144 46.3587 37.7072C47.4847 31.0943 46.6008 26.4848 43.5613 22.8914C41.2797 20.1941 37.648 18.106 32.264 16.542C31.4296 16.4454 30.5968 16.2311 29.7924 15.8901Z" fill="#4A4A4A"/>
<path d="M102.312 32.1215V16.5982H105.335L108.283 19.5809H109.537L112.78 16.5982H115.508V32.1215H113.149V19.5809L110.274 22.0212V32.1215H107.546V22.0212L104.892 19.5809V32.1215H102.312Z" fill="#D0D0D0"/>
<path d="M181.783 32.1215V16.5982H184.806L187.755 19.5809H189.008L192.252 16.5982H194.979V32.1215H192.62V19.5809L189.745 22.0212V32.1215H187.017V22.0212L184.363 19.5809V32.1215H181.783Z" fill="#D0D0D0"/>
<path d="M118.826 16.7338H121.332V29.071L122.143 30.2912H123.765V16.7338H126.345V37.2055L123.765 39.7136H121.332L118.826 37.4766V34.3584H120.963V36.392L122.143 37.4766H123.249L124.207 36.392V32.257H121.332L118.826 30.2912V16.7338Z" fill="#D0D0D0"/>
<path fill-rule="evenodd" clip-rule="evenodd" d="M142.416 20.5977H140.352V18.6318L142.564 16.5982H146.102L148.314 18.6318V30.8335H149.715V32.0537L146.692 32.1215H142.564L140.352 30.2234V24.5293L142.859 22.2246H146.102V19.9198L145.144 19.0386H143.006L142.416 20.5977ZM146.102 24.1904H144.112L142.564 25.6817V28.9355L143.743 29.8845H145.144L146.102 28.9355V24.1904Z" fill="#D0D0D0"/>
<path fill-rule="evenodd" clip-rule="evenodd" d="M172.052 20.5977H169.988V18.6318L172.2 16.5982H175.738L177.95 18.6318V30.8335H179.35V32.0537L176.328 32.1215H172.2L169.988 30.2234V24.5293L172.494 22.2246H175.738V19.9198L174.78 19.0386H172.642L172.052 20.5977ZM175.738 24.1904H173.748L172.2 25.6817V28.9355L173.379 29.8845H174.78L175.738 28.9355V24.1904Z" fill="#D0D0D0"/>
<path d="M158.193 14.429V12.531H162.395V14.429H161.51V19.0386H163.058L164.016 18.1573V14.429H163.353V12.531H167.629V14.429H166.67V18.6318L164.754 20.0554V20.6655L166.67 22.1568V30.2912H167.629V32.1215H163.353V30.2912H164.385V23.5125L162.395 21.3433H161.51V30.2912H162.395V32.1215H158.193V30.2912H159.151V16.1237L160.625 14.429H158.193Z" fill="#D0D0D0"/>
<path d="M198.297 16.7338H200.73V23.4447H203.383V16.7338H205.89V32.1893H203.383V25.3428H200.73V32.1893H198.297V16.7338Z" fill="#D0D0D0"/>
<path fill-rule="evenodd" clip-rule="evenodd" d="M211.566 32.1893H209.06V26.4951L210.756 25.2072V24.8005L209.06 23.5803V18.8352L211.566 16.7338H216.58V32.1893H214.368V26.0884H212.672L211.566 26.9696V32.1893ZM212.672 23.7837L211.198 22.8346V19.5809L212.672 18.4285H213.999L214.368 19.1741V23.7837H212.672Z" fill="#D0D0D0"/>
</g>
</svg>
