<svg width="217" height="49" viewBox="0 0 217 49" fill="none" xmlns="http://www.w3.org/2000/svg">
<path d="M129.159 32.0032V18.7848L131.739 16.4122H136.974V32.0032H134.393V18.2425H133.509L131.739 19.8694V32.0032H129.159Z" fill="#302F2F"/>
<path fill-rule="evenodd" clip-rule="evenodd" d="M91.1928 16.5478H96.2058L98.7124 18.5136V29.6985L96.2058 32.0032H93.6993V39.5954H91.1928V16.5478ZM93.5519 30.0374V18.4458H95.0263L96.2058 19.1915V28.885L95.0263 30.0374H93.5519Z" fill="#302F2F"/>
<path fill-rule="evenodd" clip-rule="evenodd" d="M62.8103 11.9383V14.1075H64.6533L63.2526 15.8699V24.2077L65.6854 26.4447H69.0028V30.1052L66.6437 30.4441V31.9355H73.9421V30.4441L71.583 30.1052V26.4447H74.6793L77.1121 24.0722V15.3276L74.3107 11.9383H62.8103ZM69.0028 14.1075H66.9386L65.8328 15.531V23.3265L67.4547 24.8178H69.0028V14.1075ZM71.3619 14.1075H73.4261L74.5319 15.531V23.3265L72.91 24.8178H71.3619V14.1075Z" fill="#302F2F"/>
<path fill-rule="evenodd" clip-rule="evenodd" d="M80.4296 18.717V29.9018L82.5675 32.0032H85.59L87.9491 29.9018V18.717L85.59 16.5478H82.5675L80.4296 18.717ZM83.6733 18.717L82.8624 19.4626V29.4951L83.6733 30.2408H84.7054L85.59 29.4951V19.4626L84.7054 18.717H83.6733Z" fill="#302F2F"/>
<path d="M34.8917 27.0071C36.8351 23.1313 41.8275 21.438 46.0425 23.2249C49.9466 24.88 51.8145 28.9403 50.5247 32.61C50.3963 32.9272 50.2607 33.2412 50.1183 33.5519C46.1526 42.2039 36.8432 48.2773 25.9912 48.2773C19.0765 48.2773 12.7881 45.8115 8.1093 41.7839C9.15992 41.9633 10.1782 42.1163 11.1648 42.2399C18.3565 43.2753 23.3695 42.4625 27.2775 39.6676C30.211 37.5697 32.4818 34.2303 34.1828 29.2797C34.2878 28.5124 34.5208 27.7467 34.8917 27.0071Z" fill="#329570"/>
<path d="M17.5127 21.278C15.5693 25.1538 10.5769 26.8471 6.36181 25.0601C2.45776 23.405 0.589879 19.3448 1.87964 15.675C2.00809 15.3578 2.14362 15.0438 2.28603 14.7331C6.25179 6.08119 15.5611 0.00775103 26.4131 0.00775146C33.3279 0.00775174 39.6163 2.47358 44.295 6.50111C43.2444 6.32178 42.2262 6.1688 41.2396 6.04514C34.0478 5.0098 29.0348 5.82255 25.1268 8.61742C22.1934 10.7154 19.9226 14.0548 18.2216 19.0054C18.1166 19.7726 17.8836 20.5383 17.5127 21.278Z" fill="#329572"/>
<path d="M23.1322 32.4977C27.3472 34.2846 29.1888 38.8752 27.2454 42.751C25.4454 46.3408 21.0297 48.0583 17.0387 46.8724C16.6938 46.7543 16.3523 46.6297 16.0144 46.4987C6.60508 42.8522 0 34.2922 0 24.3136C0 17.9555 2.68168 12.1732 7.06177 7.87105C6.86674 8.8371 6.70037 9.77338 6.56589 10.6806C5.43991 17.2935 6.3238 21.903 9.36333 25.4964C11.6449 28.1937 15.2766 30.2818 20.6606 31.8458C21.495 31.9424 22.3278 32.1566 23.1322 32.4977Z" fill="#5AE0AE"/>
<path d="M29.3627 15.7041C25.1477 13.9171 23.3061 9.32658 25.2495 5.45078C27.0495 1.86098 31.4652 0.143446 35.4562 1.32939C35.8011 1.44751 36.1427 1.57213 36.4805 1.70307C45.8898 5.34962 52.4949 13.9096 52.4949 23.8882C52.4949 30.2463 49.8132 36.0286 45.4332 40.3307C45.6282 39.3647 45.7946 38.4284 45.929 37.5212C47.055 30.9083 46.1711 26.2988 43.1316 22.7054C40.85 20.0081 37.2183 17.92 31.8343 16.356C30.9999 16.2594 30.1672 16.0451 29.3627 15.7041Z" fill="#225542"/>
<path d="M101.882 31.9355V16.4122H104.905L107.854 19.3949H109.107L112.351 16.4122H115.078V31.9355H112.719V19.3949L109.844 21.8352V31.9355H107.117V21.8352L104.463 19.3949V31.9355H101.882Z" fill="#302F2F"/>
<path d="M181.354 31.9355V16.4122H184.376L187.325 19.3949H188.578L191.822 16.4122H194.55V31.9355H192.191V19.3949L189.315 21.8352V31.9355H186.588V21.8352L183.934 19.3949V31.9355H181.354Z" fill="#302F2F"/>
<path d="M118.396 16.5478H120.902V28.885L121.713 30.1052H123.335V16.5478H125.915V37.0195L123.335 39.5276H120.902L118.396 37.2906V34.1724H120.534V36.206L121.713 37.2906H122.819L123.777 36.206V32.071H120.902L118.396 30.1052V16.5478Z" fill="#302F2F"/>
<path fill-rule="evenodd" clip-rule="evenodd" d="M141.987 20.4117H139.922V18.4458L142.134 16.4122H145.673L147.884 18.4458V30.6475H149.285V31.8677L146.262 31.9355H142.134L139.922 30.0374V24.3433L142.429 22.0385H145.673V19.7338L144.714 18.8526H142.576L141.987 20.4117ZM145.673 24.0044H143.682L142.134 25.4957V28.7495L143.314 29.6985H144.714L145.673 28.7495V24.0044Z" fill="#302F2F"/>
<path fill-rule="evenodd" clip-rule="evenodd" d="M171.622 20.4117H169.558V18.4458L171.77 16.4122H175.308L177.52 18.4458V30.6475H178.921V31.8677L175.898 31.9355H171.77L169.558 30.0374V24.3433L172.065 22.0385H175.308V19.7338L174.35 18.8526H172.212L171.622 20.4117ZM175.308 24.0044H173.318L171.77 25.4957V28.7495L172.949 29.6985H174.35L175.308 28.7495V24.0044Z" fill="#302F2F"/>
<path d="M157.763 14.243V12.345H161.965V14.243H161.08V18.8526H162.628L163.587 17.9713V14.243H162.923V12.345H167.199V14.243H166.241V18.4458L164.324 19.8694V20.4794L166.241 21.9708V30.1052H167.199V31.9355H162.923V30.1052H163.955V23.3265L161.965 21.1573H161.08V30.1052H161.965V31.9355H157.763V30.1052H158.721V15.9377L160.196 14.243H157.763Z" fill="#302F2F"/>
<path d="M197.867 16.5478H200.3V23.2587H202.954V16.5478H205.46V32.0032H202.954V25.1568H200.3V32.0032H197.867V16.5478Z" fill="#302F2F"/>
<path fill-rule="evenodd" clip-rule="evenodd" d="M211.137 32.0032H208.63V26.3091L210.326 25.0212V24.6145L208.63 23.3943V18.6492L211.137 16.5478H216.15V32.0032H213.938V25.9024H212.243L211.137 26.7836V32.0032ZM212.243 23.5977L210.768 22.6486V19.3949L212.243 18.2425H213.57L213.938 18.9881V23.5977H212.243Z" fill="#302F2F"/>
</svg>
