<svg width="202" height="70" viewBox="0 0 202 70" fill="none" xmlns="http://www.w3.org/2000/svg">
<path opacity="0.6" fill-rule="evenodd" clip-rule="evenodd" d="M34.3054 0.469152C25.3067 1.21695 17.3613 4.58868 11.2447 10.2552C6.06933 15.0498 2.74024 20.8545 1.37512 27.4649C-0.0335946 34.286 2.13391 36.3004 8.67573 34.2498C10.6964 33.6165 13.9886 31.9875 16.208 30.5231C18.0433 29.312 20.3212 28.4188 21.3435 28.5092L22.2178 28.5866L22.3553 30.8567C22.4805 32.9252 22.5583 33.1871 23.232 33.8047C23.9092 34.4255 24.1336 34.4805 25.9029 34.4579C27.3787 34.4393 28.2052 34.2798 29.4056 33.7823C30.2697 33.4244 31.0167 33.1313 31.0657 33.1313C31.2623 33.1313 32.518 37.1445 32.7731 38.5885C33.1227 40.5673 33.1251 43.5062 32.7788 45.1969C31.8825 49.5697 27.8043 52.9564 21.6829 54.411C18.8879 55.0752 13.5558 55.0153 10.7272 54.2876C8.33526 53.6725 7.49222 53.7506 7.05733 54.6276C6.63608 55.4764 7.577 56.7231 10.9561 59.7932C15.2879 63.7292 19.801 66.2753 25.5287 68.0151C29.6939 69.28 32.8569 69.7352 37.4837 69.7352C44.0637 69.7352 49.023 68.6948 54.6956 66.1247C64.9786 61.4652 71.9971 52.9244 74.5409 41.9752C75.3933 38.3065 75.3995 31.905 74.554 28.2947C71.1824 13.8944 58.9035 2.9985 43.6147 0.840346C40.2594 0.366707 37.0691 0.239457 34.3054 0.469152ZM20.8251 9.24572C19.8692 10.9698 19.552 11.834 19.4638 12.9535C19.357 14.3108 19.398 14.4427 20.0474 14.8336C21.0252 15.4219 22.3852 15.1891 27.4213 13.5714C32.993 11.7815 36.2298 11.0216 38.282 11.0216C41.1003 11.0216 41.9845 11.7343 41.3907 13.5267C40.8267 15.2289 40.7994 15.6477 41.2265 16.04C41.8545 16.6169 43.3229 16.5043 46.1556 15.662C56.4718 12.5944 65.0899 17.3317 68.2256 27.7941L68.5773 28.9669L66.2229 26.6886C62.7114 23.2905 59.8875 21.9369 55.0492 21.3329C50.0238 20.7057 45.9566 21.2484 38.5896 23.5296C34.793 24.7053 33.3193 24.9409 32.2668 24.5405C31.1585 24.1187 30.8292 23.1891 31.0298 21.0499C31.2085 19.146 31.1229 18.8782 30.1924 18.4284C28.559 17.6386 25.3578 18.4613 20.6636 20.8774C14.6369 23.9791 13.2806 24.5665 11.827 24.7043C10.1604 24.8623 9.68379 24.5523 9.23419 23.0186C8.48637 20.4679 11.184 15.8528 15.8418 11.7141C17.2545 10.4591 21.9134 6.85615 22.0111 6.94336C22.0442 6.97333 21.5106 8.0093 20.8251 9.24572ZM87.3785 17.4325C87.0476 17.7157 86.6638 18.2203 86.5258 18.5539C86.3838 18.8969 86.2747 23.6418 86.2747 29.4746C86.2747 38.1446 86.3383 39.9018 86.6743 40.4985C87.5983 42.1396 89.6524 42.4884 91.1516 41.2586L92.0251 40.5423L92.1072 33.2308L92.189 25.9194L95.4505 28.8826C97.3826 30.6381 99.0037 31.9077 99.4287 31.9976C100.663 32.2592 101.56 31.7188 104.796 28.7625L107.939 25.8919V32.9395C107.939 40.5354 108.014 41.0071 109.315 41.6252C110.77 42.3165 112.635 41.8438 113.236 40.631C113.468 40.1627 113.556 37.0332 113.556 29.1703V18.3537L112.774 17.6356C112.129 17.0428 111.77 16.9175 110.718 16.9175H109.444L104.676 21.2724L99.9082 25.6271L95.1616 21.2724L90.415 16.9175H89.1975C88.3315 16.9175 87.8067 17.0662 87.3785 17.4325ZM127.31 17.3774C121.103 19.3233 117.073 25.2672 118.05 31.0375C118.639 34.5188 120.192 37.0782 123.013 39.2196C126.979 42.23 132.437 42.8395 137.361 40.8218C140.215 39.6522 143.261 36.5485 144.359 33.6922C145.062 31.8605 145.282 28.9192 144.863 26.9401C143.948 22.6162 140.346 18.8295 135.816 17.4278C133.677 16.766 129.342 16.7404 127.31 17.3774ZM150.499 17.4325C150.168 17.7157 149.785 18.2203 149.647 18.5539C149.505 18.8969 149.395 23.6418 149.395 29.4746C149.395 40.5607 149.412 40.7049 150.791 41.5917C151.566 42.0904 153.122 42.0818 153.911 41.5745C154.881 40.9503 155.28 39.752 155.28 37.4572V35.3799L160.428 35.2996C165.458 35.2214 165.616 35.203 167.257 34.5068C169.419 33.5895 171.58 31.4992 172.415 29.5164C172.867 28.4433 173.014 27.5779 173.016 25.982C173.019 24.1312 172.917 23.6676 172.194 22.248C171.159 20.2173 169.396 18.5775 167.24 17.6408L165.577 16.918L158.339 16.9178C151.36 16.9175 151.08 16.936 150.499 17.4325ZM178.363 17.5103L177.613 18.1029L177.537 28.9875C177.457 40.7241 177.482 40.9732 178.84 41.6183C179.975 42.1573 198.546 42.1447 199.683 41.6043C200.68 41.1309 201.015 40.543 201.015 39.2702C201.015 38.4728 200.846 38.0969 200.234 37.5344L199.452 36.8163H191.274H183.095V34.4825V32.1487H188.988C195.685 32.1487 196.436 32.0057 197.17 30.5929C197.733 29.508 197.496 28.252 196.577 27.459C195.898 26.8721 195.835 26.8662 189.493 26.793L183.095 26.7193V24.3978V22.0765H191.011C197.916 22.0765 199.023 22.0242 199.681 21.6674C201.228 20.8278 201.506 18.8042 200.234 17.6356L199.452 16.9175H189.283H179.114L178.363 17.5103ZM135.217 22.9579C136.799 23.748 138.458 25.4865 139.003 26.9249C139.483 28.1925 139.423 31.0751 138.892 32.2049C138.655 32.7088 137.908 33.6642 137.232 34.328C133.513 37.9805 127.383 37.2951 124.578 32.9134C123.927 31.8954 123.853 31.5426 123.854 29.4464C123.854 27.5206 123.956 26.9409 124.433 26.1299C125.27 24.7107 127.161 23.1215 128.685 22.5577C130.625 21.8397 133.307 22.004 135.217 22.9579ZM165.357 22.7132C168.089 24.5749 167.997 28.0331 165.175 29.556C164.353 29.9991 163.694 30.0711 159.76 30.1468L155.28 30.233V26.1388V22.0448L159.941 22.1222C164.178 22.1922 164.672 22.2462 165.357 22.7132ZM48.1385 27.7882C49.4838 29.6916 50.3095 36.3965 49.6652 40.1831C48.9016 44.6709 46.92 48.2325 43.4341 51.3834C39.2363 55.1777 34.4999 57.1381 29.0381 57.3422L26.2297 57.4471L27.9869 56.9966C34.3592 55.3622 38.3917 51.6332 40.2917 45.6182C41.495 41.8082 41.2265 35.1991 39.7207 31.5601C39.4353 30.8705 39.2018 30.1252 39.2018 29.9041C39.2016 29.4086 41.8564 28.3323 44.6107 27.7108C47.2139 27.1234 47.6761 27.1335 48.1385 27.7882ZM60.0106 28.4627C62.6913 29.5803 66.095 32.725 67.7081 35.5745C68.6051 37.159 68.6327 38.5163 67.8303 41.6227C66.3668 47.2884 63.5507 52.2555 59.5 56.3161C54.6691 61.1584 47.1807 64.1962 38.8004 64.7133C34.1006 65.0035 28.0123 64.0049 22.9876 62.1196C20.4095 61.1525 16.8761 59.4515 17.0716 59.2717C17.132 59.2164 18.1297 59.3937 19.2888 59.6659C27.6799 61.6371 36.6182 61.135 43.1164 58.3273C49.5962 55.5277 54.6884 50.3248 57.077 44.0634C58.7602 39.6517 59.1362 33.4898 58.0174 28.648C57.8238 27.8098 58.3309 27.7626 60.0106 28.4627ZM87.2469 48.6261C86.2891 49.3179 86.3327 49.8365 87.3483 49.8365C87.7915 49.8365 88.3772 49.7085 88.65 49.552C89.2154 49.2277 90.1152 49.4488 89.9608 49.874C89.9044 50.0296 89.2676 50.2946 88.5457 50.4631C87.0706 50.8071 86.2747 51.5308 86.2747 52.5279C86.2747 53.5811 87.0931 54.0972 88.4679 53.9105C90.2992 53.6617 90.6287 53.6555 91.6908 53.8506L92.6937 54.0351V53.164C92.6937 52.5982 92.5766 52.3147 92.3594 52.3545C92.1281 52.397 91.9839 51.899 91.8913 50.7358C91.7812 49.3518 91.6464 48.9729 91.1262 48.5863C90.2406 47.9279 88.1838 47.949 87.2469 48.6261ZM98.8453 50.9419V53.7671H99.6477C100.42 53.7671 100.45 53.726 100.45 52.6616C100.45 51.876 100.559 51.5561 100.826 51.5561C101.033 51.5561 101.519 52.0536 101.907 52.6616C102.555 53.6772 102.699 53.7671 103.674 53.7671H104.735L103.772 52.4353L102.809 51.1033L103.502 50.1671C103.883 49.6525 104.195 48.9803 104.195 48.674C104.195 48.2011 104.053 48.1168 103.258 48.1168C102.533 48.1168 102.322 48.217 102.322 48.5617C102.322 49.1086 101.374 50.0821 100.841 50.0821C100.563 50.0821 100.45 49.7974 100.45 49.0995C100.45 48.1713 100.405 48.1168 99.6477 48.1168H98.8453V50.9419ZM110.881 50.9068V53.7671H113.172C114.432 53.7671 115.696 53.6526 115.98 53.5128C116.62 53.1984 116.688 51.7615 116.085 51.3018C115.799 51.0837 115.758 50.909 115.952 50.7312C116.105 50.5904 116.23 50.1143 116.23 49.6731C116.23 48.617 115.643 48.3465 112.987 48.1792L110.881 48.0466V50.9068ZM123.097 48.9152L122.248 49.7136L123.311 49.7932C123.907 49.8377 124.417 49.7569 124.47 49.609C124.614 49.2144 125.779 49.2906 125.952 49.7058C126.134 50.1408 126.007 50.2165 124.749 50.4248C123.296 50.6653 122.382 51.4266 122.382 52.3958C122.382 52.8625 122.587 53.3701 122.871 53.6062C123.47 54.1044 125.038 54.1363 125.74 53.6646C126.025 53.473 126.379 53.4032 126.527 53.5096C126.674 53.616 127.246 53.7776 127.798 53.869L128.801 54.0351V53.164C128.801 52.5982 128.684 52.3147 128.467 52.3545C128.235 52.397 128.108 51.9528 128.053 50.9029C127.947 48.868 127.196 48.1168 125.267 48.1168C124.128 48.1168 123.828 48.2274 123.097 48.9152ZM135.441 48.5374C134.52 49.0624 134.15 49.8311 134.15 51.2237C134.15 52.1683 134.292 52.4722 135.06 53.1775C135.822 53.8779 136.161 54.0127 137.163 54.0127C138.472 54.0127 139.601 53.3941 139.843 52.5446C139.964 52.1169 139.856 52.0474 139.07 52.0474C138.566 52.0474 137.932 52.1754 137.659 52.3319C136.749 52.8537 136.29 52.4287 136.29 51.0648C136.29 49.7009 136.749 49.2759 137.659 49.7976C137.932 49.9541 138.518 50.0821 138.961 50.0821C139.985 50.0821 140.024 49.5404 139.059 48.7192C138.21 47.9962 136.538 47.9122 135.441 48.5374ZM146.721 48.9766C146.721 49.7954 146.765 49.8365 147.657 49.8365H148.593V51.8018V53.7671H149.395H150.198V51.8018V49.8365H151.134C152.025 49.8365 152.07 49.7954 152.07 48.9766V48.1168H149.395H146.721V48.9766ZM159.665 50.3742C160.166 51.6323 160.657 52.8466 160.757 53.0726C160.971 53.56 160.21 54.0127 159.175 54.0127C158.667 54.0127 158.489 54.1405 158.489 54.5041C158.489 54.9396 158.667 54.9954 160.061 54.9954C161.016 54.9954 161.745 54.8713 161.918 54.6795C162.148 54.4254 164.641 48.4897 164.641 48.1971C164.641 48.1529 164.234 48.1168 163.737 48.1168C162.79 48.1168 162.508 48.4639 162.077 50.1551C161.86 51.0041 161.682 50.8579 161.142 49.3891C160.752 48.3266 160.645 48.234 159.737 48.1632L158.754 48.0871L159.665 50.3742ZM172.053 48.3011C171.993 48.4025 171.793 49.0381 171.608 49.7136C170.921 52.2223 170.767 52.5388 170.237 52.5388C169.806 52.5388 169.722 52.7174 169.722 53.6442C169.722 54.7087 169.752 54.7497 170.525 54.7497C171.149 54.7497 171.327 54.6407 171.327 54.2584C171.327 53.8167 171.506 53.7671 173.091 53.7671C174.629 53.7671 174.872 53.8297 174.994 54.2584C175.093 54.6065 175.359 54.7497 175.905 54.7497C176.641 54.7497 176.676 54.6989 176.676 53.6442C176.676 52.7026 176.597 52.5388 176.142 52.5388C175.646 52.5388 175.607 52.3749 175.607 50.3278V48.1168H173.884C172.936 48.1168 172.112 48.1996 172.053 48.3011ZM182.293 50.9419V53.7671L183.162 53.7533C183.893 53.7418 184.224 53.5163 185.235 52.3408L186.439 50.9419L186.519 52.3545L186.599 53.7671H187.522H188.445V50.9419V48.1168H187.509C186.941 48.1168 186.57 48.2377 186.567 48.4239C186.564 48.5929 186.027 49.2837 185.374 49.9593L184.186 51.1876L184.176 49.6522L184.165 48.1168H183.229H182.293V50.9419ZM195.136 49.0275C194.471 49.8035 194.586 50.7086 195.435 51.3679L195.983 51.7939L195.423 52.6252C194.688 53.7179 194.704 53.7671 195.795 53.7671C196.611 53.7671 196.792 53.6465 197.271 52.7844C197.571 52.244 197.935 51.8018 198.079 51.8018C198.223 51.8018 198.341 52.244 198.341 52.7844C198.341 53.7437 198.363 53.7671 199.277 53.7671H200.213V51.0648V48.3625H197.959C195.827 48.3625 195.674 48.3986 195.136 49.0275ZM114.492 49.9593C114.492 50.0944 114.101 50.2396 113.623 50.2818C112.964 50.3403 112.753 50.2622 112.753 49.9593C112.753 49.6564 112.964 49.5783 113.623 49.6367C114.101 49.679 114.492 49.8242 114.492 49.9593ZM174.002 51.0648C174.002 52.4732 173.972 52.5388 173.333 52.5388C172.57 52.5388 172.563 52.5078 172.954 50.8312C173.379 49.01 174.002 49.1486 174.002 51.0648ZM198.341 50.2212C198.341 50.4941 198.132 50.5835 197.626 50.5282C196.585 50.4152 196.493 49.8365 197.516 49.8365C198.086 49.8365 198.341 49.9551 198.341 50.2212ZM89.9533 51.8632C89.8929 52.0322 89.5532 52.3041 89.1986 52.4678C88.4125 52.8306 87.904 52.4894 88.405 51.9349C88.8196 51.476 90.1141 51.4161 89.9533 51.8632ZM114.492 52.0474C114.492 52.2835 114.18 52.4437 113.623 52.4928C112.888 52.5579 112.753 52.4889 112.753 52.0474C112.753 51.606 112.888 51.5369 113.623 51.602C114.18 51.6512 114.492 51.8113 114.492 52.0474ZM126.126 51.7954C126.126 51.9271 125.763 52.2074 125.319 52.4181C124.581 52.7687 124.498 52.767 124.344 52.3997C124.25 52.1742 124.34 51.9025 124.549 51.7806C125.053 51.4878 126.126 51.4979 126.126 51.7954Z" fill="white"/>
</svg>
