<svg width="202" height="71" viewBox="0 0 202 71" fill="none" xmlns="http://www.w3.org/2000/svg">
<path fill-rule="evenodd" clip-rule="evenodd" d="M34.3054 0.999273C25.3067 1.74707 17.3613 5.1188 11.2447 10.7853C6.06933 15.5799 2.74024 21.3847 1.37512 27.995C-0.0335946 34.8161 2.13391 36.8305 8.67573 34.78C10.6964 34.1466 13.9886 32.5176 16.208 31.0532C18.0433 29.8421 20.3212 28.9489 21.3435 29.0393L22.2178 29.1167L22.3553 31.3869C22.4805 33.4553 22.5583 33.7172 23.232 34.3348C23.9092 34.9556 24.1336 35.0106 25.9029 34.988C27.3787 34.9694 28.2052 34.8099 29.4056 34.3125C30.2697 33.9545 31.0167 33.6615 31.0657 33.6615C31.2623 33.6615 32.518 37.6746 32.7731 39.1186C33.1227 41.0974 33.1251 44.0363 32.7788 45.727C31.8825 50.0998 27.8043 53.4865 21.6829 54.9411C18.8879 55.6054 13.5558 55.5454 10.7272 54.8177C8.33526 54.2026 7.49222 54.2807 7.05733 55.1577C6.63608 56.0065 7.577 57.2533 10.9561 60.3233C15.2879 64.2593 19.801 66.8054 25.5287 68.5452C29.6939 69.8101 32.8569 70.2653 37.4837 70.2653C44.0637 70.2653 49.023 69.2249 54.6956 66.6548C64.9786 61.9953 71.9971 53.4546 74.5409 42.5053C75.3933 38.8366 75.3995 32.4351 74.554 28.8248C71.1824 14.4245 58.9035 3.52862 43.6147 1.37047C40.2594 0.896828 37.0691 0.769577 34.3054 0.999273ZM20.8251 9.77584C19.8692 11.4999 19.552 12.3642 19.4638 13.4836C19.357 14.8409 19.398 14.9729 20.0474 15.3637C21.0252 15.9521 22.3852 15.7192 27.4213 14.1015C32.993 12.3116 36.2298 11.5517 38.282 11.5517C41.1003 11.5517 41.9845 12.2644 41.3907 14.0568C40.8267 15.759 40.7994 16.1778 41.2265 16.5702C41.8545 17.147 43.3229 17.0345 46.1556 16.1921C56.4718 13.1245 65.0899 17.8619 68.2256 28.3242L68.5773 29.497L66.2229 27.2187C62.7114 23.8207 59.8875 22.4671 55.0492 21.863C50.0238 21.2358 45.9566 21.7785 38.5896 24.0597C34.793 25.2354 33.3193 25.471 32.2668 25.0706C31.1585 24.6488 30.8292 23.7192 31.0298 21.58C31.2085 19.6761 31.1229 19.4083 30.1924 18.9585C28.559 18.1687 25.3578 18.9914 20.6636 21.4075C14.6369 24.5093 13.2806 25.0966 11.827 25.2345C10.1604 25.3924 9.68379 25.0824 9.23419 23.5487C8.48637 20.998 11.184 16.383 15.8418 12.2443C17.2545 10.9892 21.9134 7.38627 22.0111 7.47348C22.0442 7.50345 21.5106 8.53942 20.8251 9.77584ZM87.3785 17.9626C87.0476 18.2458 86.6638 18.7504 86.5258 19.084C86.3838 19.427 86.2747 24.172 86.2747 30.0048C86.2747 38.6747 86.3383 40.4319 86.6743 41.0287C87.5983 42.6697 89.6524 43.0185 91.1516 41.7887L92.0251 41.0724L92.1072 33.761L92.189 26.4495L95.4505 29.4127C97.3826 31.1682 99.0037 32.4378 99.4287 32.5277C100.663 32.7894 101.56 32.2489 104.796 29.2926L107.939 26.422V33.4696C107.939 41.0655 108.014 41.5372 109.315 42.1553C110.77 42.8466 112.635 42.3739 113.236 41.1611C113.468 40.6928 113.556 37.5633 113.556 29.7004V18.8838L112.774 18.1657C112.129 17.573 111.77 17.4477 110.718 17.4477H109.444L104.676 21.8025L99.9082 26.1572L95.1616 21.8025L90.415 17.4477H89.1975C88.3315 17.4477 87.8067 17.5963 87.3785 17.9626ZM127.31 17.9076C121.103 19.8535 117.073 25.7973 118.05 31.5677C118.639 35.049 120.192 37.6083 123.013 39.7497C126.979 42.7601 132.437 43.3696 137.361 41.352C140.215 40.1823 143.261 37.0786 144.359 34.2223C145.062 32.3906 145.282 29.4493 144.863 27.4702C143.948 23.1463 140.346 19.3597 135.816 17.9579C133.677 17.2961 129.342 17.2705 127.31 17.9076ZM150.499 17.9626C150.168 18.2458 149.785 18.7504 149.647 19.084C149.505 19.427 149.395 24.172 149.395 30.0048C149.395 41.0908 149.412 41.235 150.791 42.1219C151.566 42.6206 153.122 42.612 153.911 42.1047C154.881 41.4804 155.28 40.2821 155.28 37.9874V35.91L160.428 35.8297C165.458 35.7516 165.616 35.7331 167.257 35.0369C169.419 34.1196 171.58 32.0293 172.415 30.0465C172.867 28.9735 173.014 28.108 173.016 26.5122C173.019 24.6613 172.917 24.1978 172.194 22.7781C171.159 20.7474 169.396 19.1076 167.24 18.1709L165.577 17.4482L158.339 17.4479C151.36 17.4477 151.08 17.4661 150.499 17.9626ZM178.363 18.0405L177.613 18.633L177.537 29.5176C177.457 41.2542 177.482 41.5033 178.84 42.1484C179.975 42.6874 198.546 42.6749 199.683 42.1344C200.68 41.661 201.015 41.0731 201.015 39.8003C201.015 39.0029 200.846 38.6271 200.234 38.0645L199.452 37.3464H191.274H183.095V35.0126V32.6788H188.988C195.685 32.6788 196.436 32.5358 197.17 31.123C197.733 30.0382 197.496 28.7821 196.577 27.9891C195.898 27.4022 195.835 27.3963 189.493 27.3231L183.095 27.2494V24.9279V22.6066H191.011C197.916 22.6066 199.023 22.5543 199.681 22.1976C201.228 21.3579 201.506 19.3344 200.234 18.1657L199.452 17.4477H189.283H179.114L178.363 18.0405ZM135.217 23.488C136.799 24.2781 138.458 26.0167 139.003 27.455C139.483 28.7226 139.423 31.6053 138.892 32.7351C138.655 33.2389 137.908 34.1943 137.232 34.8581C133.513 38.5106 127.383 37.8252 124.578 33.4436C123.927 32.4255 123.853 32.0728 123.854 29.9765C123.854 28.0508 123.956 27.471 124.433 26.66C125.27 25.2409 127.161 23.6517 128.685 23.0879C130.625 22.3698 133.307 22.5341 135.217 23.488ZM165.357 23.2434C168.089 25.105 167.997 28.5632 165.175 30.0861C164.353 30.5293 163.694 30.6012 159.76 30.6769L155.28 30.7631V26.6689V22.5749L159.941 22.6523C164.178 22.7223 164.672 22.7764 165.357 23.2434ZM48.1385 28.3183C49.4838 30.2217 50.3095 36.9266 49.6652 40.7132C48.9016 45.201 46.92 48.7626 43.4341 51.9135C39.2363 55.7078 34.4999 57.6682 29.0381 57.8723L26.2297 57.9772L27.9869 57.5267C34.3592 55.8923 38.3917 52.1634 40.2917 46.1483C41.4951 42.3383 41.2265 35.7292 39.7207 32.0902C39.4353 31.4006 39.2018 30.6553 39.2018 30.4342C39.2016 29.9387 41.8564 28.8624 44.6107 28.2409C47.2139 27.6535 47.6761 27.6636 48.1385 28.3183ZM60.0106 28.9929C62.6913 30.1104 66.095 33.2551 67.7081 36.1046C68.6051 37.6891 68.6327 39.0464 67.8303 42.1528C66.3668 47.8186 63.5507 52.7856 59.5 56.8462C54.6691 61.6885 47.1807 64.7263 38.8004 65.2435C34.1006 65.5336 28.0123 64.535 22.9876 62.6497C20.4095 61.6826 16.8761 59.9816 17.0716 59.8018C17.132 59.7465 18.1297 59.9239 19.2888 60.1961C27.6799 62.1673 36.6182 61.6651 43.1164 58.8574C49.5962 56.0579 54.6884 50.855 57.077 44.5935C58.7602 40.1819 59.1362 34.0199 58.0174 29.1781C57.8238 28.3399 58.3309 28.2927 60.0106 28.9929ZM87.2469 49.1562C86.2891 49.848 86.3327 50.3666 87.3483 50.3666C87.7915 50.3666 88.3772 50.2386 88.65 50.0821C89.2154 49.7578 90.1152 49.9789 89.9608 50.4042C89.9044 50.5597 89.2676 50.8247 88.5457 50.9933C87.0706 51.3372 86.2747 52.0609 86.2747 53.0581C86.2747 54.1112 87.0931 54.6274 88.4679 54.4407C90.2992 54.1918 90.6287 54.1857 91.6908 54.3807L92.6937 54.5652V53.6941C92.6937 53.1283 92.5766 52.8448 92.3594 52.8846C92.1281 52.9271 91.9839 52.4292 91.8913 51.266C91.7812 49.8819 91.6464 49.5031 91.1262 49.1164C90.2406 48.458 88.1838 48.4791 87.2469 49.1562ZM98.8453 51.4721V54.2972H99.6477C100.42 54.2972 100.45 54.2562 100.45 53.1917C100.45 52.4061 100.559 52.0862 100.826 52.0862C101.033 52.0862 101.519 52.5837 101.907 53.1917C102.555 54.2073 102.699 54.2972 103.674 54.2972H104.735L103.772 52.9655L102.809 51.6335L103.502 50.6972C103.883 50.1826 104.195 49.5104 104.195 49.2041C104.195 48.7312 104.053 48.6469 103.258 48.6469C102.533 48.6469 102.322 48.7472 102.322 49.0918C102.322 49.6387 101.374 50.6122 100.841 50.6122C100.563 50.6122 100.45 50.3275 100.45 49.6296C100.45 48.7015 100.405 48.6469 99.6477 48.6469H98.8453V51.4721ZM110.881 51.4369V54.2972H113.172C114.432 54.2972 115.696 54.1827 115.98 54.0429C116.62 53.7285 116.688 52.2916 116.085 51.832C115.799 51.6138 115.758 51.4391 115.952 51.2613C116.105 51.1205 116.23 50.6444 116.23 50.2032C116.23 49.1471 115.643 48.8766 112.987 48.7093L110.881 48.5767V51.4369ZM123.097 49.4453L122.248 50.2437L123.311 50.3233C123.907 50.3678 124.417 50.287 124.47 50.1391C124.614 49.7446 125.779 49.8207 125.952 50.2359C126.134 50.671 126.007 50.7466 124.749 50.9549C123.296 51.1954 122.382 51.9568 122.382 52.9259C122.382 53.3927 122.587 53.9002 122.871 54.1363C123.47 54.6345 125.038 54.6664 125.74 54.1948C126.025 54.0031 126.379 53.9334 126.527 54.0397C126.674 54.1461 127.246 54.3078 127.798 54.3991L128.801 54.5652V53.6941C128.801 53.1283 128.684 52.8448 128.467 52.8846C128.235 52.9271 128.108 52.483 128.053 51.433C127.947 49.3982 127.196 48.6469 125.267 48.6469C124.128 48.6469 123.828 48.7575 123.097 49.4453ZM135.441 49.0675C134.52 49.5925 134.15 50.3612 134.15 51.7538C134.15 52.6984 134.292 53.0023 135.06 53.7076C135.822 54.408 136.161 54.5429 137.163 54.5429C138.472 54.5429 139.601 53.9243 139.843 53.0748C139.965 52.6471 139.856 52.5775 139.07 52.5775C138.566 52.5775 137.932 52.7055 137.659 52.862C136.749 53.3838 136.29 52.9588 136.29 51.5949C136.29 50.231 136.749 49.806 137.659 50.3278C137.932 50.4843 138.518 50.6122 138.961 50.6122C139.985 50.6122 140.024 50.0706 139.059 49.2493C138.21 48.5263 136.538 48.4423 135.441 49.0675ZM146.721 49.5068C146.721 50.3256 146.765 50.3666 147.657 50.3666H148.593V52.3319V54.2972H149.395H150.198V52.3319V50.3666H151.134C152.025 50.3666 152.07 50.3256 152.07 49.5068V48.6469H149.395H146.721V49.5068ZM159.665 50.9043C160.166 52.1624 160.657 53.3767 160.757 53.6027C160.971 54.0901 160.21 54.5429 159.175 54.5429C158.667 54.5429 158.489 54.6706 158.489 55.0342C158.489 55.4697 158.667 55.5255 160.061 55.5255C161.016 55.5255 161.745 55.4014 161.918 55.2096C162.148 54.9556 164.641 49.0198 164.641 48.7273C164.641 48.683 164.234 48.6469 163.737 48.6469C162.79 48.6469 162.508 48.9941 162.077 50.6852C161.86 51.5342 161.682 51.388 161.142 49.9192C160.752 48.8567 160.645 48.7641 159.737 48.6934L158.754 48.6172L159.665 50.9043ZM172.053 48.8312C171.993 48.9326 171.793 49.5682 171.608 50.2437C170.921 52.7525 170.767 53.0689 170.237 53.0689C169.806 53.0689 169.722 53.2475 169.722 54.1744C169.722 55.2388 169.752 55.2798 170.525 55.2798C171.149 55.2798 171.327 55.1708 171.327 54.7885C171.327 54.3468 171.506 54.2972 173.091 54.2972C174.629 54.2972 174.872 54.3598 174.994 54.7885C175.093 55.1366 175.359 55.2798 175.905 55.2798C176.641 55.2798 176.676 55.229 176.676 54.1744C176.676 53.2327 176.597 53.0689 176.142 53.0689C175.646 53.0689 175.607 52.905 175.607 50.8579V48.6469H173.884C172.936 48.6469 172.112 48.7297 172.053 48.8312ZM182.293 51.4721V54.2972L183.162 54.2834C183.893 54.2719 184.224 54.0464 185.235 52.8709L186.439 51.4721L186.519 52.8846L186.599 54.2972H187.522H188.445V51.4721V48.6469H187.509C186.941 48.6469 186.57 48.7678 186.567 48.954C186.564 49.123 186.027 49.8138 185.374 50.4894L184.186 51.7177L184.176 50.1823L184.165 48.6469H183.229H182.293V51.4721ZM195.136 49.5576C194.471 50.3337 194.586 51.2387 195.435 51.898L195.983 52.324L195.423 53.1553C194.688 54.2481 194.704 54.2972 195.795 54.2972C196.611 54.2972 196.792 54.1766 197.271 53.3145C197.571 52.7741 197.935 52.3319 198.079 52.3319C198.223 52.3319 198.341 52.7741 198.341 53.3145C198.341 54.2739 198.363 54.2972 199.277 54.2972H200.213V51.5949V48.8926H197.959C195.827 48.8926 195.674 48.9287 195.136 49.5576ZM114.492 50.4894C114.492 50.6245 114.101 50.7697 113.623 50.812C112.964 50.8704 112.753 50.7923 112.753 50.4894C112.753 50.1865 112.964 50.1084 113.623 50.1669C114.101 50.2091 114.492 50.3543 114.492 50.4894ZM174.002 51.5949C174.002 53.0033 173.972 53.0689 173.333 53.0689C172.57 53.0689 172.563 53.0379 172.954 51.3613C173.379 49.5402 174.002 49.6787 174.002 51.5949ZM198.341 50.7513C198.341 51.0242 198.132 51.1136 197.626 51.0584C196.585 50.9454 196.493 50.3666 197.516 50.3666C198.086 50.3666 198.341 50.4852 198.341 50.7513ZM89.9533 52.3933C89.8929 52.5623 89.5532 52.8343 89.1986 52.9979C88.4125 53.3607 87.904 53.0195 88.405 52.465C88.8196 52.0061 90.1141 51.9462 89.9533 52.3933ZM114.492 52.5775C114.492 52.8136 114.18 52.9738 113.623 53.0229C112.888 53.088 112.753 53.019 112.753 52.5775C112.753 52.1361 112.888 52.0671 113.623 52.1322C114.18 52.1813 114.492 52.3415 114.492 52.5775ZM126.126 52.3255C126.126 52.4572 125.763 52.7375 125.319 52.9483C124.581 53.2988 124.498 53.2971 124.344 52.9298C124.25 52.7043 124.34 52.4326 124.549 52.3108C125.053 52.0179 126.126 52.028 126.126 52.3255Z" fill="#282828"/>
</svg>
