<svg width="164" height="46" viewBox="0 0 164 46" fill="none" xmlns="http://www.w3.org/2000/svg">
<path d="M7.05469 4.74244L107.538 3.92432L101.285 41.5582H7.05469V4.74244Z" fill="white"/>
<path d="M119 4.36368L158 3.5376L155.573 41.5376H119V4.36368Z" fill="white"/>
<path fill-rule="evenodd" clip-rule="evenodd" d="M5.47483 1.82757C4.3173 2.4739 2.79373 3.86945 2.08811 4.92971C0.889904 6.72914 0.804688 7.93251 0.804688 23.1186C0.804688 38.3046 0.889904 39.508 2.08811 41.3074C2.79373 42.3677 4.3173 43.7633 5.47483 44.4096C7.52391 45.5544 8.82089 45.5852 55.4623 45.5869L103.345 45.5893L103.698 43.9631C104.503 40.2578 111.199 1.49689 111.199 0.649503C111.199 0.649503 105.852 0.647855 59.3868 0.650221C8.82927 0.651995 7.52778 0.680382 5.47483 1.82757ZM26.3581 7.49019C26.9798 8.20689 29.2174 23.1156 29.209 26.4839C29.2013 29.5594 30.5228 27.9173 33.7191 20.881C39.4467 8.27075 40.0083 7.32343 42.162 6.63571C44.4925 5.89122 46.9038 6.58308 47.8954 8.28021C48.5571 9.41203 48.2686 33.3256 47.5539 36.5626C47.204 38.1474 44.4771 38.9598 43.0774 37.8954C42.295 37.3012 42.1103 35.18 42.0781 26.4466L42.0387 15.7269L40.4764 18.6836C39.6165 20.3097 37.4583 24.6767 35.6797 28.3874C31.3821 37.3567 30.9592 37.9019 28.3007 37.9019C25.4627 37.9019 25.0386 36.86 23.7229 26.6666C22.0586 13.7684 22.36 13.8092 18.5175 25.97C16.6382 31.9188 14.7525 37.1705 14.3271 37.64C13.3199 38.7517 10.8596 38.7334 9.83897 37.6069C8.9061 36.5774 8.94419 36.4207 13.3793 23.1186C18.0495 9.11104 18.6822 7.76516 21.0437 6.82967C23.2413 5.95923 25.2451 6.20818 26.3581 7.49019ZM73.5392 7.70721C77.1513 9.2092 78.5606 11.3049 78.5005 15.0853C78.3837 22.503 72.6445 27.2579 63.809 27.2579C59.1938 27.2579 59.3351 27.1302 58.5876 31.9886C57.769 37.3112 56.1879 39.0976 53.0924 38.1976C51.3596 37.6938 51.4164 36.6164 53.9839 21.3948C56.5778 6.01599 56.1789 6.5547 64.9459 6.57422C69.3346 6.58368 71.536 6.87402 73.5392 7.70721ZM102.673 7.2708C103.745 8.25301 103.641 9.84725 102.434 10.9542C101.764 11.5669 100.244 11.8832 97.9655 11.8832C93.9261 11.8832 94.6214 10.2766 92.081 25.4839C91.1301 31.1755 89.9512 36.4307 89.4606 37.1628C88.4206 38.7156 85.9209 38.925 84.6859 37.5625C83.9854 36.7891 84.1449 34.8063 85.6252 25.8837C86.6058 19.9721 87.5645 14.4041 87.7563 13.5094C88.1023 11.8915 88.0861 11.8832 84.5012 11.8832C81.7213 11.8832 80.7652 11.6467 80.3166 10.8484C79.6142 9.59771 80.0015 8.29677 81.3727 7.30037C82.7717 6.28387 101.567 6.25785 102.673 7.2708ZM61.9052 12.9181C61.7341 13.4875 61.4075 15.2834 61.1796 16.9096C60.9523 18.5357 60.6173 20.3316 60.4365 20.9011C60.1486 21.8046 60.5947 21.9359 63.9556 21.9359C67.3113 21.9359 68.0608 21.7165 69.8091 20.2204C72.3785 18.0219 72.6671 14.2716 70.3791 12.8039C68.2926 11.4651 62.3197 11.5456 61.9052 12.9181Z" fill="#0070AF"/>
<path fill-rule="evenodd" clip-rule="evenodd" d="M116.977 0.795581C116.959 0.877186 115.125 10.9884 112.902 23.2663L108.859 45.5892L132.463 45.588C158.447 45.5874 158.881 45.5318 161.831 41.8514C163.097 40.2719 163.179 39.2956 163.358 23.4969C163.545 6.90525 163.538 6.79999 162.053 4.76462C159.142 0.773701 158.373 0.649521 136.538 0.64893C125.798 0.648338 116.995 0.713977 116.977 0.795581ZM142.477 9.2221C142.46 10.523 142.208 13.3833 141.918 15.5789L141.391 19.5705H147.224C154.297 19.5705 155.099 19.8105 155.099 21.9269C155.099 24.5501 153.622 25.1586 146.468 25.4838L139.965 25.7795L139.158 31.3161C138.261 37.4696 137.68 38.4932 135.086 38.4932C132.198 38.4932 131.905 37.5878 132.883 31.6928C133.369 28.7657 133.773 26.1709 133.78 25.9273C133.788 25.6837 131.107 25.4797 127.823 25.4749C124.538 25.4696 121.451 25.2337 120.963 24.9504C119.856 24.3082 119.807 21.6449 120.881 20.4592C121.502 19.7745 123.202 19.5705 128.294 19.5705H134.902L135.712 14.1006C136.756 7.03948 137.11 6.44519 140.131 6.67581C142.449 6.85203 142.509 6.91708 142.477 9.2221Z" fill="#01A2A2"/>
</svg>
