<svg width="164" height="46" viewBox="0 0 164 46" fill="none" xmlns="http://www.w3.org/2000/svg">
<path d="M7.05469 4.21403L107.538 3.3959L101.285 41.0298H7.05469V4.21403Z" fill="#121212"/>
<path fill-rule="evenodd" clip-rule="evenodd" d="M5.47483 1.29916C4.3173 1.94549 2.79373 3.34104 2.08811 4.4013C0.889904 6.20073 0.804688 7.4041 0.804688 22.5902C0.804688 37.7762 0.889904 38.9796 2.08811 40.779C2.79373 41.8393 4.3173 43.2348 5.47483 43.8812C7.52391 45.026 8.82089 45.0567 55.4623 45.0585L103.345 45.0609L103.698 43.4347C104.503 39.7294 111.199 0.968474 111.199 0.121091C111.199 0.121091 105.852 0.119443 59.3868 0.121809C8.82927 0.123583 7.52778 0.15197 5.47483 1.29916ZM26.3581 6.96178C26.9798 7.67848 29.2174 22.5872 29.209 25.9554C29.2013 29.031 30.5228 27.3888 33.7191 20.3526C39.4467 7.74234 40.0083 6.79502 42.162 6.1073C44.4925 5.36281 46.9038 6.05467 47.8954 7.7518C48.5571 8.88362 48.2686 32.7972 47.5539 36.0342C47.204 37.6189 44.4771 38.4314 43.0774 37.367C42.295 36.7727 42.1103 34.6516 42.0781 25.9182L42.0387 15.1985L40.4764 18.1552C39.6165 19.7813 37.4583 24.1483 35.6797 27.859C31.3821 36.8283 30.9592 37.3735 28.3007 37.3735C25.4627 37.3735 25.0386 36.3316 23.7229 26.1382C22.0586 13.24 22.36 13.2808 18.5175 25.4416C16.6382 31.3904 14.7525 36.6421 14.3271 37.1116C13.3199 38.2233 10.8596 38.205 9.83897 37.0785C8.9061 36.049 8.94419 35.8922 13.3793 22.5902C18.0495 8.58263 18.6822 7.23675 21.0437 6.30126C23.2413 5.43081 25.2451 5.67976 26.3581 6.96178ZM73.5392 7.1788C77.1513 8.68079 78.5606 10.7765 78.5005 14.5569C78.3837 21.9746 72.6445 26.7295 63.809 26.7295C59.1938 26.7295 59.3351 26.6018 58.5876 31.4602C57.769 36.7828 56.1879 38.5692 53.0924 37.6692C51.3596 37.1654 51.4164 36.088 53.9839 20.8664C56.5778 5.48758 56.1789 6.02629 64.9459 6.0458C69.3346 6.05526 71.536 6.34561 73.5392 7.1788ZM102.673 6.74239C103.745 7.7246 103.641 9.31884 102.434 10.4258C101.764 11.0384 100.244 11.3548 97.9655 11.3548C93.9261 11.3548 94.6214 9.74815 92.081 24.9555C91.1301 30.6471 89.9512 35.9023 89.4606 36.6344C88.4206 38.1872 85.9209 38.3965 84.6859 37.0341C83.9854 36.2606 84.1449 34.2779 85.6252 25.3552C86.6058 19.4437 87.5645 13.8757 87.7563 12.981C88.1023 11.3631 88.0861 11.3548 84.5012 11.3548C81.7213 11.3548 80.7652 11.1183 80.3166 10.32C79.6142 9.0693 80.0015 7.76836 81.3727 6.77196C82.7717 5.75546 101.567 5.72944 102.673 6.74239ZM61.9052 12.3896C61.7341 12.9591 61.4075 14.755 61.1796 16.3812C60.9523 18.0073 60.6173 19.8032 60.4365 20.3727C60.1486 21.2762 60.5947 21.4075 63.9556 21.4075C67.3113 21.4075 68.0608 21.1881 69.8091 19.692C72.3785 17.4935 72.6671 13.7432 70.3791 12.2755C68.2926 10.9367 62.3197 11.0172 61.9052 12.3896Z" fill="#C2C6CB"/>
<path fill-rule="evenodd" clip-rule="evenodd" d="M116.977 0.26717C116.959 0.348774 115.125 10.46 112.902 22.7379L108.859 45.0608L132.463 45.0596C158.447 45.059 158.881 45.0034 161.831 41.3229C163.097 39.7435 163.179 38.7672 163.358 22.9685C163.545 6.37684 163.538 6.27158 162.053 4.23621C159.142 0.245289 158.373 0.121109 136.538 0.120518C125.798 0.119927 116.995 0.185565 116.977 0.26717ZM142.477 8.69369C142.46 9.99463 142.208 12.8549 141.918 15.0505L141.391 19.042H147.224C154.297 19.042 155.099 19.2821 155.099 21.3985C155.099 24.0217 153.622 24.6302 146.468 24.9554L139.965 25.2511L139.158 30.7877C138.261 36.9412 137.68 37.9648 135.086 37.9648C132.198 37.9648 131.905 37.0594 132.883 31.1644C133.369 28.2373 133.773 25.6425 133.78 25.3989C133.788 25.1553 131.107 24.9513 127.823 24.9465C124.538 24.9412 121.451 24.7053 120.963 24.422C119.856 23.7798 119.807 21.1164 120.881 19.9308C121.502 19.2461 123.202 19.042 128.294 19.042H134.902L135.712 13.5722C136.756 6.51107 137.11 5.91678 140.131 6.1474C142.449 6.32362 142.509 6.38867 142.477 8.69369Z" fill="#A1A1A1"/>
</svg>
