<svg width="236" height="41" viewBox="0 0 236 41" fill="none" xmlns="http://www.w3.org/2000/svg">
<path d="M38.629 31.3392H35.0391V30.5133H43.1949V31.3392H39.5875V38.852H38.629V31.3392Z" fill="#282828"/>
<path d="M45.095 34.6906C45.095 33.4729 45.5598 32.4564 46.4892 31.641C47.407 30.8151 48.5805 30.4021 50.0095 30.4021C51.4269 30.4021 52.5945 30.8045 53.5123 31.6092C54.4534 32.4246 54.9239 33.4517 54.9239 34.6906C54.9239 35.9189 54.4534 36.9407 53.5123 37.756C52.5829 38.5714 51.4153 38.979 50.0095 38.979C48.5805 38.979 47.407 38.5767 46.4892 37.7719C45.5598 36.9566 45.095 35.9295 45.095 34.6906ZM46.1058 34.6906C46.1058 35.6753 46.4776 36.5013 47.2211 37.1684C47.9763 37.8249 48.9058 38.1531 50.0095 38.1531C51.1597 38.1531 52.0949 37.8249 52.8152 37.1684C53.5472 36.5119 53.9131 35.6859 53.9131 34.6906C53.9131 33.6952 53.5356 32.8693 52.7804 32.2128C52.0252 31.5563 51.1016 31.228 50.0095 31.228C48.9058 31.228 47.9763 31.5563 47.2211 32.2128C46.4776 32.8587 46.1058 33.6847 46.1058 34.6906Z" fill="#282828"/>
<path d="M58.7124 38.8361V30.5292C60.002 30.4868 60.9373 30.4657 61.5182 30.4657C63.6326 30.4657 64.6899 31.1539 64.6899 32.5305C64.6899 33.0387 64.5156 33.4729 64.1671 33.8329C63.8185 34.1823 63.3596 34.4047 62.7903 34.5V34.5159C63.5223 34.59 64.0799 34.7965 64.4633 35.1353C64.8584 35.4636 65.0559 35.9136 65.0559 36.4854C65.0559 37.2901 64.7306 37.8937 64.0799 38.2961C63.4293 38.6984 62.5638 38.8996 61.4833 38.8996C60.3215 38.8996 59.3979 38.8785 58.7124 38.8361ZM61.6053 34.9924H59.6709V38.0102C60.5422 38.0525 61.1638 38.0737 61.5356 38.0737C63.2434 38.0737 64.0974 37.5337 64.0974 36.4536C64.0974 35.9877 63.8824 35.6277 63.4526 35.3736C63.0227 35.1194 62.4069 34.9924 61.6053 34.9924ZM61.5007 31.2916C61.0476 31.2916 60.4377 31.3075 59.6709 31.3392V34.2141H61.6227C62.2269 34.2141 62.7264 34.0764 63.1215 33.8011C63.5281 33.5258 63.7314 33.1711 63.7314 32.737C63.7314 31.7734 62.9878 31.2916 61.5007 31.2916Z" fill="#282828"/>
<path d="M68.8326 38.852H67.8567L72.1612 30.4498H72.9629L77.2673 38.852H76.2392L74.8973 36.1995H70.1745L68.8326 38.852ZM74.479 35.3894L72.5272 31.5298L70.5753 35.3894H74.479Z" fill="#282828"/>
<path d="M81.5582 35.7389V38.852H80.5997V30.5133C80.9831 30.5133 81.3898 30.508 81.8196 30.4974C82.2495 30.4868 82.6736 30.4815 83.0918 30.4815C84.3233 30.4815 85.2295 30.7198 85.8104 31.1963C86.3913 31.6622 86.6818 32.3028 86.6818 33.1181C86.6818 33.9123 86.3739 34.5582 85.7582 35.0559C85.1424 35.543 84.271 35.7865 83.1441 35.7865C82.6213 35.7865 82.0927 35.7706 81.5582 35.7389ZM83.1789 31.3075C82.8188 31.3075 82.2785 31.3181 81.5582 31.3392V34.8971C82.174 34.9394 82.6852 34.9606 83.0918 34.9606C83.9167 34.9606 84.5499 34.7965 84.9914 34.4682C85.4445 34.14 85.671 33.6899 85.671 33.1181C85.671 31.911 84.8403 31.3075 83.1789 31.3075Z" fill="#282828"/>
<path d="M99.2545 38.852H98.296V30.5133H99.2545V38.852ZM92.8065 34.4523C92.4231 34.4523 91.9642 34.4682 91.4297 34.5V38.0261C92.1733 38.0472 92.6148 38.0578 92.7542 38.0578C94.6015 38.0578 95.5251 37.4331 95.5251 36.1836C95.5251 35.6224 95.2927 35.1936 94.828 34.8971C94.3633 34.6006 93.6894 34.4523 92.8065 34.4523ZM90.4712 30.5133H91.4297V33.6741C92.0106 33.6423 92.487 33.6264 92.8587 33.6264C94.067 33.6264 94.979 33.8488 95.5948 34.2935C96.2222 34.7276 96.5359 35.3524 96.5359 36.1677C96.5359 37.0254 96.1931 37.6925 95.5077 38.169C94.8222 38.6455 93.8695 38.8837 92.6496 38.8837C92.1849 38.8837 91.7899 38.8785 91.4646 38.8679C91.1393 38.8573 90.8082 38.852 90.4712 38.852V30.5133Z" fill="#282828"/>
<path d="M108.996 40.4244H108.09V38.0261H109.17C109.531 37.6343 109.873 36.9248 110.199 35.8977C110.535 34.8706 110.75 33.6317 110.843 32.181L110.948 30.5133H116.647V38.0261H117.988V40.4244H117.082V38.852H108.996V40.4244ZM111.872 31.3392L111.75 32.7528C111.622 34.2141 111.407 35.3842 111.105 36.263C110.791 37.1631 110.501 37.7507 110.233 38.0261H115.688V31.3392H111.872Z" fill="#282828"/>
<path d="M128.594 38.852H127.635V31.3392H123.662L123.505 32.9117C123.238 35.5165 122.791 37.2054 122.163 37.9784C121.861 38.349 121.559 38.5979 121.257 38.7249C120.955 38.8414 120.601 38.8837 120.194 38.852L120.212 38.0102C120.595 38.0314 120.932 37.8831 121.222 37.5654C121.443 37.3325 121.629 37.0254 121.78 36.6442C122.163 35.7548 122.448 34.267 122.634 32.181L122.773 30.5133H128.594V38.852Z" fill="#282828"/>
<path d="M139.012 38.852H138.054V35.7389H135.823L133.157 38.852H132.024L134.83 35.5959C134.237 35.3947 133.749 35.0877 133.366 34.6747C132.994 34.2512 132.808 33.7694 132.808 33.2293C132.808 32.4034 133.133 31.7363 133.784 31.228C134.446 30.7198 135.37 30.4657 136.555 30.4657C136.683 30.4657 137.13 30.4762 137.897 30.4974C138.28 30.508 138.652 30.5133 139.012 30.5133V38.852ZM135.718 34.913H138.054V31.3392C137.287 31.3075 136.753 31.2916 136.45 31.2916C135.614 31.2916 134.963 31.4663 134.499 31.8157C134.045 32.1652 133.819 32.6205 133.819 33.1817C133.819 33.6158 134.011 33.997 134.394 34.3253C134.766 34.6535 135.207 34.8494 135.718 34.913Z" fill="#282828"/>
<path d="M149.173 38.852V30.5133H154.871V31.3392H150.131V33.8964C150.549 33.8541 151.119 33.8329 151.839 33.8329C153.001 33.8329 153.89 34.0447 154.505 34.4682C155.121 34.8918 155.429 35.49 155.429 36.263C155.429 37.1207 155.098 37.7772 154.436 38.2325C153.785 38.6773 152.85 38.8996 151.63 38.8996C151.479 38.8996 151.02 38.889 150.253 38.8679C149.881 38.8573 149.521 38.852 149.173 38.852ZM151.752 34.6429C151.124 34.6429 150.584 34.6641 150.131 34.7065V38.0419C150.387 38.0419 150.631 38.0472 150.863 38.0578C151.107 38.0684 151.397 38.0737 151.734 38.0737C153.558 38.0737 154.47 37.4807 154.47 36.2948C154.47 35.1936 153.564 34.6429 151.752 34.6429Z" fill="#282828"/>
<path d="M159.208 38.852H158.232L162.536 30.4498H163.338L167.642 38.852H166.614L165.272 36.1995H160.55L159.208 38.852ZM164.854 35.3894L162.902 31.5298L160.95 35.3894H164.854Z" fill="#282828"/>
<path d="M177.518 37.3907L177.902 38.0578C177.565 38.3437 177.112 38.5714 176.542 38.7408C175.985 38.8996 175.404 38.979 174.8 38.979C173.289 38.979 172.087 38.5926 171.192 37.8196C170.286 37.0466 169.833 36.0036 169.833 34.6906C169.833 33.4623 170.269 32.4458 171.14 31.641C172.023 30.8151 173.208 30.4021 174.695 30.4021C175.892 30.4021 176.897 30.6668 177.71 31.1963L177.257 31.8475C176.548 31.4345 175.694 31.228 174.695 31.228C173.545 31.228 172.615 31.551 171.907 32.1969C171.198 32.8428 170.844 33.6741 170.844 34.6906C170.844 35.7283 171.21 36.5648 171.942 37.2001C172.685 37.8355 173.661 38.1531 174.869 38.1531C175.892 38.1531 176.775 37.899 177.518 37.3907Z" fill="#282828"/>
<path d="M187.951 37.3907L188.335 38.0578C187.998 38.3437 187.545 38.5714 186.975 38.7408C186.418 38.8996 185.837 38.979 185.233 38.979C183.722 38.979 182.52 38.5926 181.625 37.8196C180.719 37.0466 180.266 36.0036 180.266 34.6906C180.266 33.4623 180.702 32.4458 181.573 31.641C182.456 30.8151 183.641 30.4021 185.128 30.4021C186.325 30.4021 187.33 30.6668 188.143 31.1963L187.69 31.8475C186.981 31.4345 186.127 31.228 185.128 31.228C183.978 31.228 183.048 31.551 182.34 32.1969C181.631 32.8428 181.277 33.6741 181.277 34.6906C181.277 35.7283 181.643 36.5648 182.375 37.2001C183.118 37.8355 184.094 38.1531 185.302 38.1531C186.325 38.1531 187.208 37.899 187.951 37.3907Z" fill="#282828"/>
<path d="M197.661 38.852H191.875V30.5133H197.521V31.3392H192.834V34.2141H197.103V35.04H192.834V38.0261H197.661V38.852Z" fill="#282828"/>
<path d="M209.014 31.8951L202.601 38.852H201.747V30.5133H202.705V37.4701L209.118 30.5133H209.972V38.852H209.014V31.8951ZM203.385 28.3055H204.239C204.239 28.6867 204.378 28.9832 204.657 29.195C204.936 29.3962 205.325 29.4968 205.825 29.4968C206.289 29.4968 206.655 29.3962 206.922 29.195C207.201 28.9832 207.341 28.6867 207.341 28.3055H208.195C208.195 28.8773 207.98 29.3274 207.55 29.6556C207.132 29.9733 206.556 30.1321 205.825 30.1321C205.046 30.1321 204.442 29.9733 204.012 29.6556C203.594 29.3379 203.385 28.8879 203.385 28.3055Z" fill="#282828"/>
<path d="M222.492 38.852H221.533V35.0083H215.521V38.852H214.562V30.5133H215.521V34.1823H221.533V30.5133H222.492V38.852Z" fill="#282828"/>
<path d="M226.793 38.852H225.817L230.121 30.4498H230.923L235.228 38.852H234.199L232.858 36.1995H228.135L226.793 38.852ZM232.439 35.3894L230.487 31.5298L228.536 35.3894H232.439Z" fill="#282828"/>
<path d="M38.3788 2.02625C36.4223 2.02625 35.4922 2.70196 35.4922 5.08167V21.9453C35.4922 22.386 35.7488 22.5916 36.2299 22.5916H39.5976C40.0787 22.5916 40.3032 22.386 40.3032 21.9453V6.60938C40.3032 6.40373 40.3674 6.31559 40.5598 6.31559H40.8485C41.0409 6.31559 41.1371 6.37435 41.2654 6.52125L53.2288 20.8582C54.5118 22.4153 54.9929 22.5916 56.9493 22.5916H59.7077C61.6641 22.5916 62.5943 21.9159 62.5943 19.5362V2.67259C62.5943 2.2319 62.3697 2.02625 61.8886 2.02625H58.5209C58.0398 2.02625 57.8153 2.2319 57.8153 2.67259V18.0085C57.8153 18.2141 57.7191 18.3023 57.5587 18.3023H57.2701C57.0776 18.3023 56.9493 18.2435 56.8531 18.0966L44.9218 3.75961C43.703 2.26128 43.254 2.02625 41.2013 2.02625H38.3788Z" fill="white"/>
<path d="M74.0939 6.46249C68.3206 6.46249 66.4604 8.16648 66.4604 12.4264V16.657C66.4604 20.917 68.3206 22.5916 74.0939 22.5916H83.1706C88.9439 22.5916 90.8041 20.917 90.8041 16.657V12.4264C90.8041 8.16648 88.9439 6.46249 83.1706 6.46249H74.0939ZM71.0469 13.1315C71.0469 10.6637 71.7846 9.92922 74.5429 9.92922H82.7216C85.512 9.92922 86.2497 10.6637 86.2497 13.1315V15.9226C86.2497 18.3904 85.512 19.1543 82.7216 19.1543H74.5429C71.7846 19.1543 71.0469 18.3904 71.0469 15.9226V13.1315Z" fill="white"/>
<path d="M92.6273 6.46249C92.1783 6.46249 91.9858 6.81504 92.2103 7.19696L100.998 21.2696C101.608 22.2391 102.249 22.5916 103.661 22.5916H106.291C107.734 22.5916 108.375 22.2391 108.985 21.2696L117.773 7.19696C117.997 6.81504 117.805 6.46249 117.356 6.46249H113.796C113.379 6.46249 113.186 6.60938 113.026 6.87379L105.457 19.0074C105.36 19.1543 105.264 19.1836 105.104 19.1836H104.976C104.815 19.1836 104.719 19.1543 104.623 19.0074L97.0855 6.87379C96.9251 6.58 96.7006 6.46249 96.3158 6.46249H92.6273Z" fill="white"/>
<path d="M125.9 6.46249C120.127 6.46249 118.267 8.16648 118.267 12.4264V16.657C118.267 20.917 120.127 22.5916 125.9 22.5916H134.977C140.75 22.5916 142.61 20.917 142.61 16.657V12.4264C142.61 8.16648 140.75 6.46249 134.977 6.46249H125.9ZM122.853 13.1315C122.853 10.6637 123.591 9.92922 126.349 9.92922H134.528C137.318 9.92922 138.056 10.6637 138.056 13.1315V15.9226C138.056 18.3904 137.318 19.1543 134.528 19.1543H126.349C123.591 19.1543 122.853 18.3904 122.853 15.9226V13.1315Z" fill="white"/>
<path d="M147.786 2.02645C147.145 2.02645 146.824 2.32024 146.824 2.90782V21.9455C146.824 22.3862 147.081 22.5918 147.562 22.5918H151.026C151.507 22.5918 151.731 22.3862 151.731 21.9455V16.3047H165.01C169.917 16.3047 171.906 14.2188 171.906 10.2526V8.07854C171.906 4.11237 169.917 2.02645 165.01 2.02645H147.786ZM151.731 6.43332C151.731 6.1689 151.86 6.08077 152.148 6.08077H164.016C166.197 6.08077 166.998 6.93276 166.998 8.69551V9.81191C166.998 11.5747 166.197 12.4267 164.016 12.4267H151.731V6.43332Z" fill="#3F92FB"/>
<path d="M182.325 6.4627C176.552 6.4627 174.692 8.16668 174.692 12.4267V16.6572C174.692 20.9172 176.552 22.5918 182.325 22.5918H191.402C197.175 22.5918 199.035 20.9172 199.035 16.6572V12.4267C199.035 8.16668 197.175 6.4627 191.402 6.4627H182.325ZM179.278 13.1317C179.278 10.6639 180.016 9.92943 182.774 9.92943H190.953C193.743 9.92943 194.481 10.6639 194.481 13.1317V15.9228C194.481 18.3906 193.743 19.1545 190.953 19.1545H182.774C180.016 19.1545 179.278 18.3906 179.278 15.9228V13.1317Z" fill="#3F92FB"/>
<path d="M210.17 6.4627C204.397 6.4627 202.537 8.16668 202.537 12.4267V16.6572C202.537 20.9172 204.397 22.5918 210.17 22.5918H219.247C225.02 22.5918 226.88 20.9172 226.88 16.6572V12.4267C226.88 8.16668 225.02 6.4627 219.247 6.4627H210.17ZM207.123 13.1317C207.123 10.6639 207.861 9.92943 210.619 9.92943H218.798C221.588 9.92943 222.326 10.6639 222.326 13.1317V15.9228C222.326 18.3906 221.588 19.1545 218.798 19.1545H210.619C207.861 19.1545 207.123 18.3906 207.123 15.9228V13.1317Z" fill="#3F92FB"/>
<path d="M231.408 0.557495C230.927 0.557495 230.702 0.763149 230.702 1.20384V21.9455C230.702 22.3862 230.927 22.5918 231.408 22.5918H234.551C235.032 22.5918 235.257 22.3862 235.257 21.9455V1.20384C235.257 0.763149 235.032 0.557495 234.551 0.557495H231.408Z" fill="#3F92FB"/>
<path fill-rule="evenodd" clip-rule="evenodd" d="M0.382812 8.41556V27.4168C0.382812 28.9556 2.21162 29.9106 3.65922 29.1277L20.9662 19.7672C21.6273 19.4096 22.0329 18.7582 22.0329 18.0554V9.72088V3.02706C22.0329 1.66542 20.5705 0.70685 19.1619 1.14543L1.85493 6.53414C0.974715 6.80821 0.382812 7.56468 0.382812 8.41556ZM11.3602 17.185C11.6425 17.0364 11.741 16.7073 11.581 16.4477C11.4191 16.185 11.0541 16.0934 10.7684 16.2439L4.5623 19.512C4.28002 19.6607 4.18146 19.9898 4.34149 20.2494C4.50345 20.5121 4.86837 20.6036 5.15407 20.4532L11.3602 17.185ZM9.42413 21.3999C9.70225 21.2539 9.80323 20.9321 9.65211 20.6733C9.49443 20.4032 9.12406 20.3059 8.83387 20.4583L4.56355 22.7001C4.28542 22.8461 4.18445 23.168 4.33556 23.4268C4.49324 23.6968 4.86361 23.7941 5.15381 23.6418L9.42413 21.3999Z" fill="#3F92FB"/>
</svg>
