<svg width="236" height="41" viewBox="0 0 236 41" fill="none" xmlns="http://www.w3.org/2000/svg">
<g opacity="0.6">
<path d="M38.4572 31.3392H34.8672V30.5133H43.0231V31.3392H39.4157V38.852H38.4572V31.3392Z" fill="#CBD3D9"/>
<path d="M44.9232 34.6906C44.9232 33.4729 45.3879 32.4564 46.3173 31.641C47.2352 30.8151 48.4086 30.4021 49.8376 30.4021C51.255 30.4021 52.4226 30.8045 53.3404 31.6092C54.2815 32.4246 54.752 33.4517 54.752 34.6906C54.752 35.9189 54.2815 36.9407 53.3404 37.756C52.411 38.5714 51.2434 38.979 49.8376 38.979C48.4086 38.979 47.2352 38.5767 46.3173 37.7719C45.3879 36.9566 44.9232 35.9295 44.9232 34.6906ZM45.9339 34.6906C45.9339 35.6753 46.3057 36.5013 47.0493 37.1684C47.8044 37.8249 48.7339 38.1531 49.8376 38.1531C50.9878 38.1531 51.923 37.8249 52.6434 37.1684C53.3753 36.5119 53.7413 35.6859 53.7413 34.6906C53.7413 33.6952 53.3637 32.8693 52.6085 32.2128C51.8533 31.5563 50.9297 31.228 49.8376 31.228C48.7339 31.228 47.8044 31.5563 47.0493 32.2128C46.3057 32.8587 45.9339 33.6847 45.9339 34.6906Z" fill="#CBD3D9"/>
<path d="M58.5405 38.8361V30.5292C59.8301 30.4868 60.7654 30.4657 61.3463 30.4657C63.4608 30.4657 64.518 31.1539 64.518 32.5305C64.518 33.0387 64.3437 33.4729 63.9952 33.8329C63.6467 34.1823 63.1877 34.4047 62.6185 34.5V34.5159C63.3504 34.59 63.9081 34.7965 64.2915 35.1353C64.6865 35.4636 64.884 35.9136 64.884 36.4854C64.884 37.2901 64.5587 37.8937 63.9081 38.2961C63.2575 38.6984 62.3919 38.8996 61.3114 38.8996C60.1496 38.8996 59.226 38.8785 58.5405 38.8361ZM61.4334 34.9924H59.499V38.0102C60.3704 38.0525 60.9919 38.0737 61.3637 38.0737C63.0716 38.0737 63.9255 37.5337 63.9255 36.4536C63.9255 35.9877 63.7106 35.6277 63.2807 35.3736C62.8508 35.1194 62.2351 34.9924 61.4334 34.9924ZM61.3289 31.2916C60.8758 31.2916 60.2658 31.3075 59.499 31.3392V34.2141H61.4508C62.055 34.2141 62.5546 34.0764 62.9496 33.8011C63.3562 33.5258 63.5595 33.1711 63.5595 32.737C63.5595 31.7734 62.816 31.2916 61.3289 31.2916Z" fill="#CBD3D9"/>
<path d="M68.6608 38.852H67.6848L71.9893 30.4498H72.791L77.0955 38.852H76.0673L74.7254 36.1995H70.0027L68.6608 38.852ZM74.3071 35.3894L72.3553 31.5298L70.4035 35.3894H74.3071Z" fill="#CBD3D9"/>
<path d="M81.3864 35.7389V38.852H80.4279V30.5133C80.8113 30.5133 81.2179 30.508 81.6478 30.4974C82.0776 30.4868 82.5017 30.4815 82.9199 30.4815C84.1515 30.4815 85.0577 30.7198 85.6386 31.1963C86.2195 31.6622 86.5099 32.3028 86.5099 33.1181C86.5099 33.9123 86.202 34.5582 85.5863 35.0559C84.9705 35.543 84.0992 35.7865 82.9722 35.7865C82.4494 35.7865 81.9208 35.7706 81.3864 35.7389ZM83.0071 31.3075C82.6469 31.3075 82.1067 31.3181 81.3864 31.3392V34.8971C82.0021 34.9394 82.5133 34.9606 82.9199 34.9606C83.7448 34.9606 84.378 34.7965 84.8195 34.4682C85.2726 34.14 85.4991 33.6899 85.4991 33.1181C85.4991 31.911 84.6685 31.3075 83.0071 31.3075Z" fill="#CBD3D9"/>
<path d="M99.0826 38.852H98.1241V30.5133H99.0826V38.852ZM92.6346 34.4523C92.2512 34.4523 91.7923 34.4682 91.2579 34.5V38.0261C92.0014 38.0472 92.4429 38.0578 92.5823 38.0578C94.4296 38.0578 95.3532 37.4331 95.3532 36.1836C95.3532 35.6224 95.1208 35.1936 94.6561 34.8971C94.1914 34.6006 93.5176 34.4523 92.6346 34.4523ZM90.2994 30.5133H91.2579V33.6741C91.8388 33.6423 92.3151 33.6264 92.6869 33.6264C93.8951 33.6264 94.8072 33.8488 95.4229 34.2935C96.0503 34.7276 96.364 35.3524 96.364 36.1677C96.364 37.0254 96.0213 37.6925 95.3358 38.169C94.6503 38.6455 93.6976 38.8837 92.4777 38.8837C92.013 38.8837 91.618 38.8785 91.2927 38.8679C90.9674 38.8573 90.6363 38.852 90.2994 38.852V30.5133Z" fill="#CBD3D9"/>
<path d="M108.824 40.4244H107.918V38.0261H108.998C109.359 37.6343 109.701 36.9248 110.027 35.8977C110.364 34.8706 110.579 33.6317 110.671 32.181L110.776 30.5133H116.475V38.0261H117.817V40.4244H116.91V38.852H108.824V40.4244ZM111.7 31.3392L111.578 32.7528C111.45 34.2141 111.235 35.3842 110.933 36.263C110.619 37.1631 110.329 37.7507 110.062 38.0261H115.516V31.3392H111.7Z" fill="#CBD3D9"/>
<path d="M128.422 38.852H127.464V31.3392H123.49L123.333 32.9117C123.066 35.5165 122.619 37.2054 121.991 37.9784C121.689 38.349 121.387 38.5979 121.085 38.7249C120.783 38.8414 120.429 38.8837 120.022 38.852L120.04 38.0102C120.423 38.0314 120.76 37.8831 121.05 37.5654C121.271 37.3325 121.457 37.0254 121.608 36.6442C121.991 35.7548 122.276 34.267 122.462 32.181L122.601 30.5133H128.422V38.852Z" fill="#CBD3D9"/>
<path d="M138.84 38.852H137.882V35.7389H135.651L132.985 38.852H131.852L134.658 35.5959C134.065 35.3947 133.577 35.0877 133.194 34.6747C132.822 34.2512 132.636 33.7694 132.636 33.2293C132.636 32.4034 132.962 31.7363 133.612 31.228C134.274 30.7198 135.198 30.4657 136.383 30.4657C136.511 30.4657 136.958 30.4762 137.725 30.4974C138.108 30.508 138.48 30.5133 138.84 30.5133V38.852ZM135.547 34.913H137.882V31.3392C137.115 31.3075 136.581 31.2916 136.279 31.2916C135.442 31.2916 134.791 31.4663 134.327 31.8157C133.874 32.1652 133.647 32.6205 133.647 33.1817C133.647 33.6158 133.839 33.997 134.222 34.3253C134.594 34.6535 135.035 34.8494 135.547 34.913Z" fill="#CBD3D9"/>
<path d="M149.001 38.852V30.5133H154.699V31.3392H149.959V33.8964C150.377 33.8541 150.947 33.8329 151.667 33.8329C152.829 33.8329 153.718 34.0447 154.333 34.4682C154.949 34.8918 155.257 35.49 155.257 36.263C155.257 37.1207 154.926 37.7772 154.264 38.2325C153.613 38.6773 152.678 38.8996 151.458 38.8996C151.307 38.8996 150.848 38.889 150.081 38.8679C149.709 38.8573 149.349 38.852 149.001 38.852ZM151.58 34.6429C150.953 34.6429 150.412 34.6641 149.959 34.7065V38.0419C150.215 38.0419 150.459 38.0472 150.691 38.0578C150.935 38.0684 151.226 38.0737 151.563 38.0737C153.387 38.0737 154.299 37.4807 154.299 36.2948C154.299 35.1936 153.392 34.6429 151.58 34.6429Z" fill="#CBD3D9"/>
<path d="M159.036 38.852H158.06L162.364 30.4498H163.166L167.471 38.852H166.442L165.101 36.1995H160.378L159.036 38.852ZM164.682 35.3894L162.73 31.5298L160.779 35.3894H164.682Z" fill="#CBD3D9"/>
<path d="M177.346 37.3907L177.73 38.0578C177.393 38.3437 176.94 38.5714 176.37 38.7408C175.813 38.8996 175.232 38.979 174.628 38.979C173.117 38.979 171.915 38.5926 171.02 37.8196C170.114 37.0466 169.661 36.0036 169.661 34.6906C169.661 33.4623 170.097 32.4458 170.968 31.641C171.851 30.8151 173.036 30.4021 174.523 30.4021C175.72 30.4021 176.725 30.6668 177.538 31.1963L177.085 31.8475C176.376 31.4345 175.522 31.228 174.523 31.228C173.373 31.228 172.443 31.551 171.735 32.1969C171.026 32.8428 170.672 33.6741 170.672 34.6906C170.672 35.7283 171.038 36.5648 171.77 37.2001C172.513 37.8355 173.489 38.1531 174.697 38.1531C175.72 38.1531 176.603 37.899 177.346 37.3907Z" fill="#CBD3D9"/>
<path d="M187.779 37.3907L188.163 38.0578C187.826 38.3437 187.373 38.5714 186.803 38.7408C186.246 38.8996 185.665 38.979 185.061 38.979C183.55 38.979 182.348 38.5926 181.453 37.8196C180.547 37.0466 180.094 36.0036 180.094 34.6906C180.094 33.4623 180.53 32.4458 181.401 31.641C182.284 30.8151 183.469 30.4021 184.956 30.4021C186.153 30.4021 187.158 30.6668 187.971 31.1963L187.518 31.8475C186.809 31.4345 185.955 31.228 184.956 31.228C183.806 31.228 182.877 31.551 182.168 32.1969C181.459 32.8428 181.105 33.6741 181.105 34.6906C181.105 35.7283 181.471 36.5648 182.203 37.2001C182.946 37.8355 183.922 38.1531 185.13 38.1531C186.153 38.1531 187.036 37.899 187.779 37.3907Z" fill="#CBD3D9"/>
<path d="M197.489 38.852H191.703V30.5133H197.35V31.3392H192.662V34.2141H196.931V35.04H192.662V38.0261H197.489V38.852Z" fill="#CBD3D9"/>
<path d="M208.842 31.8951L202.429 38.852H201.575V30.5133H202.533V37.4701L208.946 30.5133H209.8V38.852H208.842V31.8951ZM203.213 28.3055H204.067C204.067 28.6867 204.206 28.9832 204.485 29.195C204.764 29.3962 205.153 29.4968 205.653 29.4968C206.117 29.4968 206.483 29.3962 206.751 29.195C207.029 28.9832 207.169 28.6867 207.169 28.3055H208.023C208.023 28.8773 207.808 29.3274 207.378 29.6556C206.96 29.9733 206.385 30.1321 205.653 30.1321C204.874 30.1321 204.27 29.9733 203.84 29.6556C203.422 29.3379 203.213 28.8879 203.213 28.3055Z" fill="#CBD3D9"/>
<path d="M222.32 38.852H221.361V35.0083H215.349V38.852H214.39V30.5133H215.349V34.1823H221.361V30.5133H222.32V38.852Z" fill="#CBD3D9"/>
<path d="M226.621 38.852H225.645L229.95 30.4498H230.751L235.056 38.852H234.028L232.686 36.1995H227.963L226.621 38.852ZM232.267 35.3894L230.316 31.5298L228.364 35.3894H232.267Z" fill="#CBD3D9"/>
<path d="M38.2069 2.02625C36.2504 2.02625 35.3203 2.70196 35.3203 5.08167V21.9453C35.3203 22.386 35.5769 22.5916 36.058 22.5916H39.4257C39.9068 22.5916 40.1313 22.386 40.1313 21.9453V6.60938C40.1313 6.40373 40.1955 6.31559 40.3879 6.31559H40.6766C40.869 6.31559 40.9652 6.37435 41.0935 6.52125L53.0569 20.8582C54.3399 22.4153 54.821 22.5916 56.7775 22.5916H59.5358C61.4923 22.5916 62.4224 21.9159 62.4224 19.5362V2.67259C62.4224 2.2319 62.1979 2.02625 61.7168 2.02625H58.3491C57.868 2.02625 57.6434 2.2319 57.6434 2.67259V18.0085C57.6434 18.2141 57.5472 18.3023 57.3869 18.3023H57.0982C56.9058 18.3023 56.7775 18.2435 56.6812 18.0966L44.7499 3.75961C43.5311 2.26128 43.0821 2.02625 41.0294 2.02625H38.2069Z" fill="white"/>
<path d="M73.922 6.46249C68.1488 6.46249 66.2885 8.16648 66.2885 12.4264V16.657C66.2885 20.917 68.1488 22.5916 73.922 22.5916H82.9988C88.772 22.5916 90.6322 20.917 90.6322 16.657V12.4264C90.6322 8.16648 88.772 6.46249 82.9988 6.46249H73.922ZM70.875 13.1315C70.875 10.6637 71.6127 9.92922 74.371 9.92922H82.5497C85.3401 9.92922 86.0778 10.6637 86.0778 13.1315V15.9226C86.0778 18.3904 85.3401 19.1543 82.5497 19.1543H74.371C71.6127 19.1543 70.875 18.3904 70.875 15.9226V13.1315Z" fill="white"/>
<path d="M92.4554 6.46249C92.0064 6.46249 91.814 6.81504 92.0385 7.19696L100.827 21.2696C101.436 22.2391 102.077 22.5916 103.489 22.5916H106.119C107.562 22.5916 108.203 22.2391 108.813 21.2696L117.601 7.19696C117.826 6.81504 117.633 6.46249 117.184 6.46249H113.624C113.207 6.46249 113.015 6.60938 112.854 6.87379L105.285 19.0074C105.189 19.1543 105.092 19.1836 104.932 19.1836H104.804C104.643 19.1836 104.547 19.1543 104.451 19.0074L96.9136 6.87379C96.7533 6.58 96.5288 6.46249 96.1439 6.46249H92.4554Z" fill="white"/>
<path d="M125.728 6.46249C119.955 6.46249 118.095 8.16648 118.095 12.4264V16.657C118.095 20.917 119.955 22.5916 125.728 22.5916H134.805C140.578 22.5916 142.438 20.917 142.438 16.657V12.4264C142.438 8.16648 140.578 6.46249 134.805 6.46249H125.728ZM122.681 13.1315C122.681 10.6637 123.419 9.92922 126.177 9.92922H134.356C137.146 9.92922 137.884 10.6637 137.884 13.1315V15.9226C137.884 18.3904 137.146 19.1543 134.356 19.1543H126.177C123.419 19.1543 122.681 18.3904 122.681 15.9226V13.1315Z" fill="white"/>
<path d="M147.615 2.02645C146.973 2.02645 146.652 2.32024 146.652 2.90782V21.9455C146.652 22.3862 146.909 22.5918 147.39 22.5918H150.854C151.335 22.5918 151.56 22.3862 151.56 21.9455V16.3047H164.838C169.745 16.3047 171.734 14.2188 171.734 10.2526V8.07854C171.734 4.11237 169.745 2.02645 164.838 2.02645H147.615ZM151.56 6.43332C151.56 6.1689 151.688 6.08077 151.977 6.08077H163.844C166.025 6.08077 166.827 6.93276 166.827 8.69551V9.81191C166.827 11.5747 166.025 12.4267 163.844 12.4267H151.56V6.43332Z" fill="#5F5F5F"/>
<path d="M182.153 6.4627C176.38 6.4627 174.52 8.16668 174.52 12.4267V16.6572C174.52 20.9172 176.38 22.5918 182.153 22.5918H191.23C197.003 22.5918 198.863 20.9172 198.863 16.6572V12.4267C198.863 8.16668 197.003 6.4627 191.23 6.4627H182.153ZM179.106 13.1317C179.106 10.6639 179.844 9.92943 182.602 9.92943H190.781C193.571 9.92943 194.309 10.6639 194.309 13.1317V15.9228C194.309 18.3906 193.571 19.1545 190.781 19.1545H182.602C179.844 19.1545 179.106 18.3906 179.106 15.9228V13.1317Z" fill="#5F5F5F"/>
<path d="M209.998 6.4627C204.225 6.4627 202.365 8.16668 202.365 12.4267V16.6572C202.365 20.9172 204.225 22.5918 209.998 22.5918H219.075C224.848 22.5918 226.708 20.9172 226.708 16.6572V12.4267C226.708 8.16668 224.848 6.4627 219.075 6.4627H209.998ZM206.951 13.1317C206.951 10.6639 207.689 9.92943 210.447 9.92943H218.626C221.416 9.92943 222.154 10.6639 222.154 13.1317V15.9228C222.154 18.3906 221.416 19.1545 218.626 19.1545H210.447C207.689 19.1545 206.951 18.3906 206.951 15.9228V13.1317Z" fill="#5F5F5F"/>
<path d="M231.236 0.557495C230.755 0.557495 230.53 0.763149 230.53 1.20384V21.9455C230.53 22.3862 230.755 22.5918 231.236 22.5918H234.379C234.86 22.5918 235.085 22.3862 235.085 21.9455V1.20384C235.085 0.763149 234.86 0.557495 234.379 0.557495H231.236Z" fill="#5F5F5F"/>
<path fill-rule="evenodd" clip-rule="evenodd" d="M0.210938 8.41556V27.4168C0.210938 28.9556 2.03975 29.9106 3.48734 29.1277L20.7944 19.7672C21.4555 19.4096 21.8611 18.7582 21.8611 18.0554V9.72088V3.02706C21.8611 1.66542 20.3986 0.70685 18.9901 1.14543L1.68305 6.53414C0.80284 6.80821 0.210938 7.56468 0.210938 8.41556ZM11.1883 17.185C11.4706 17.0364 11.5692 16.7073 11.4091 16.4477C11.2472 16.185 10.8823 16.0934 10.5966 16.2439L4.39043 19.512C4.10814 19.6607 4.00959 19.9898 4.16961 20.2494C4.33157 20.5121 4.6965 20.6036 4.98219 20.4532L11.1883 17.185ZM9.25225 21.3999C9.53038 21.2539 9.63136 20.9321 9.48024 20.6733C9.32256 20.4032 8.95219 20.3059 8.66199 20.4583L4.39167 22.7001C4.11355 22.8461 4.01257 23.168 4.16369 23.4268C4.32137 23.6968 4.69174 23.7941 4.98193 23.6418L9.25225 21.3999Z" fill="#5F5F5F"/>
</g>
</svg>
