<svg width="280" height="88" viewBox="0 0 280 88" fill="none" xmlns="http://www.w3.org/2000/svg">
<path d="M44.0941 31.964C41.0238 29.416 36.857 28.142 31.5937 28.142C26.3303 28.142 22.1676 29.416 19.1056 31.964C17.5964 33.197 16.4008 34.7235 15.6045 36.434C14.8083 38.1444 14.4312 39.9966 14.5002 41.8577C14.4367 43.713 14.8166 45.5585 15.6126 47.2626C16.4086 48.9667 17.6013 50.4876 19.1056 51.7169C22.1676 54.2649 26.3303 55.5389 31.5937 55.5389C36.857 55.5389 41.0238 54.2649 44.0941 51.7169C45.5984 50.4876 46.7911 48.9667 47.5871 47.2626C48.3832 45.5585 48.763 43.713 48.6995 41.8577C48.7685 39.9966 48.3914 38.1444 47.5952 36.434C46.799 34.7235 45.6034 33.197 44.0941 31.964ZM40.879 50.9249C39.7164 52.1209 38.2791 53.0612 36.6724 53.6769C35.0657 54.2925 33.3304 54.568 31.5937 54.483C29.8627 54.5652 28.1338 54.2884 26.5336 53.6727C24.9334 53.0571 23.5025 52.1182 22.3456 50.9249C20.0389 48.3963 18.835 45.1633 18.9691 41.8577C18.8536 38.5477 20.0549 35.3134 22.3456 32.7674C23.4964 31.5574 24.9282 30.6036 26.5341 29.9775C28.1399 29.3514 29.878 29.0692 31.6185 29.152C33.3605 29.0708 35.1 29.3537 36.7076 29.9796C38.3151 30.6055 39.7494 31.5584 40.9038 32.7674C43.1766 35.32 44.36 38.5536 44.2306 41.8577C44.3716 45.1603 43.1767 48.393 40.879 50.9249Z" fill="#3D3D3D"/>
<path d="M68.2774 29.2271L66.1298 29.0205C63.9078 28.8253 61.6733 28.722 59.4265 28.722H52.5742L52.7108 30.7306V52.8938L52.5742 54.9024H57.1052C60.1341 54.9024 63.1547 54.7876 66.1671 54.5581L68.2774 54.3974C77.2317 52.7217 81.7047 48.5132 81.6964 41.772C81.6881 35.0309 77.2151 30.8492 68.2774 29.2271ZM56.6583 53.7087V29.7895C70.6856 29.7895 77.7613 33.6459 77.7613 41.818C77.7613 49.99 70.6856 53.7087 56.6583 53.7087Z" fill="#3D3D3D"/>
<path d="M89.3823 53.537V41.8529H105.036V41.0954H89.3823V29.7899H100.43C102.541 29.7899 106.637 30.008 107.68 30.4671V28.7455H85.2734L85.3603 29.744C85.41 30.425 85.4348 31.1022 85.4348 31.7756V51.8728C85.4348 52.5538 85.41 53.231 85.3603 53.9043L85.2734 54.9029H108.549V52.8943C107.568 53.4567 103.583 53.537 101.448 53.537H89.3823Z" fill="#3D3D3D"/>
<path d="M138.8 28.7355L133.425 38.9735L127.032 50.6577L115.45 28.6322L110.969 28.7355L124.698 54.9044H125.704C126.461 53.5844 127.206 52.2645 127.963 50.9561C134.07 39.0424 138.03 31.6355 139.843 28.7355H138.8Z" fill="#3D3D3D"/>
<path d="M147.988 28.7455C147.23 30.0654 146.486 31.3738 145.728 32.6708C139.633 44.5271 135.587 52.0105 133.762 54.9029H134.829L140.291 44.5731L146.684 32.9463L158.241 54.8799H162.834L148.968 28.7455H147.988Z" fill="#3D3D3D"/>
<path d="M268.642 51.6284C268.566 51.479 268.43 51.3629 268.263 51.305C268.096 51.2471 267.911 51.2519 267.748 51.3185C265.886 52.1104 260.635 53.878 258.773 52.581C258.67 52.5162 258.585 52.4311 258.522 52.3318C258.46 52.2325 258.423 52.1216 258.413 52.0071C258.276 50.8594 260.2 48.7819 261.02 47.9096C261.653 47.2324 261.976 46.8996 261.616 46.452C261.509 46.3208 261.354 46.2307 261.179 46.1989C261.005 46.1671 260.825 46.1959 260.672 46.2798C259.133 46.9455 258.512 46.188 258.463 46.1076C258.403 46.0206 258.32 45.9488 258.223 45.8987C258.125 45.8486 258.015 45.8218 257.904 45.8207C257.793 45.815 257.683 45.8352 257.583 45.8793C257.484 45.9234 257.397 45.9901 257.333 46.0732C253.485 50.9627 250.977 51.9956 249.612 51.9497C249.193 51.9284 248.786 51.8127 248.427 51.6126C248.068 51.4125 247.767 51.1342 247.551 50.802C247.39 50.5516 247.138 50.3622 246.84 50.2676C246.543 50.173 246.218 50.1793 245.925 50.2855C245.54 50.4232 245.081 50.6298 244.547 50.8708C244.721 50.7102 244.87 50.538 245.019 50.3773C246.26 49 246.595 47.6112 246.061 46.7389C245.826 46.4145 245.485 46.1675 245.088 46.0335C244.691 45.8994 244.258 45.8852 243.852 45.9929C239.879 46.5323 235.088 49.3558 234.517 51.5021C234.461 51.7443 234.461 51.9945 234.517 52.2367C230.371 52.9827 224.785 53.327 223.779 51.9612C223.741 51.9063 223.708 51.8487 223.68 51.789C227.491 50.3199 229.638 48.7934 229.651 47.485C229.638 47.2192 229.534 46.9642 229.353 46.7575C229.172 46.5508 228.924 46.4035 228.645 46.3372C227.267 45.947 224.921 46.8537 223.27 49.0574C222.821 49.6364 222.501 50.2917 222.327 50.9856C221.234 51.3759 219.956 51.7776 218.466 52.2022C215.313 53.0975 212.445 52.8565 210.434 51.5136C220.787 41.1838 219.683 35.9844 218.727 34.2054C218.319 33.4409 217.659 32.8157 216.843 32.4197C216.027 32.0237 215.095 31.8774 214.183 32.0017C211.701 32.2313 208.25 34.2398 206.847 39.0948C205.283 44.5582 205.879 48.977 208.51 51.5939C197.078 62.7272 189.505 65.8835 186.166 65.0686C185.725 64.9814 185.321 64.7759 185.005 64.4779C184.69 64.1799 184.476 63.8025 184.391 63.3929C183.919 61.4991 187.78 54.9109 190.598 50.1018C194.21 43.9499 195.054 42.2971 194.421 41.5166C194.35 41.4314 194.26 41.3616 194.158 41.312C194.055 41.2625 193.941 41.2344 193.825 41.2297C192.584 41.2297 189.071 44.5467 175.652 58.3542L170.562 63.6569L173.566 59.9955C184.031 47.2325 192.696 36.455 192.696 33.8381C192.703 33.5883 192.64 33.3409 192.514 33.1198C192.388 32.8987 192.203 32.7113 191.976 32.5756C189.567 31.0835 180.716 34.2743 170.252 38.3144L169.681 38.5325V31.1753L169.755 28.6732H165.944L166.081 31.1753V39.8065L164.951 40.1967C162.94 40.8165 161.935 40.6214 161.438 40.3344C161.29 40.2565 161.16 40.151 161.057 40.0246C160.955 39.8982 160.882 39.7536 160.842 39.5999C160.819 39.4355 160.727 39.2863 160.585 39.1851C160.443 39.084 160.263 39.0391 160.085 39.0604C159.907 39.0817 159.746 39.1675 159.637 39.2988C159.527 39.4301 159.479 39.5962 159.502 39.7606C159.565 40.099 159.709 40.42 159.924 40.7001C160.138 40.9802 160.418 41.2122 160.743 41.3789C161.811 42.0102 163.387 42.0102 165.423 41.3789L166.131 41.1379V52.3859L166.044 54.888H169.768L169.693 52.3859V39.7606L170.773 39.3359C176.769 37.0404 189.232 32.2657 191.243 33.5053C191.284 33.5293 191.316 33.5638 191.336 33.6046C191.356 33.6454 191.362 33.6907 191.355 33.7348C191.355 36.1451 179.55 50.538 172.499 59.1347C164.703 68.6266 164.517 68.9824 164.678 69.5334C164.71 69.6285 164.762 69.7165 164.833 69.7916C164.904 69.8667 164.99 69.9273 165.088 69.9695C165.178 70.0048 165.275 70.0243 165.373 70.0269C166.019 70.0269 167.359 68.7529 176.694 59.1462C182.194 53.4877 190.138 45.3731 193.006 43.0776C192.36 44.5467 190.784 47.2439 189.443 49.5165C185.384 56.403 182.541 61.4991 183.1 63.6913C183.242 64.3203 183.576 64.8986 184.062 65.3581C184.548 65.8177 185.166 66.1393 185.843 66.2852C188.14 66.8591 195.004 66.5951 209.491 52.4433C210.764 53.2478 212.22 53.77 213.746 53.9691C215.273 54.1681 216.829 54.0388 218.292 53.591H218.379L218.789 53.4762L219.062 53.4074C220.241 53.0631 221.358 52.7187 222.364 52.3744C222.423 52.521 222.502 52.6599 222.6 52.7876C224.499 55.3815 233.052 53.9353 235.398 53.4648C238.34 55.1634 242.561 53.2697 245.106 52.1219C245.501 51.9207 245.917 51.7554 246.347 51.6284C246.687 52.1207 247.152 52.5287 247.701 52.8168C248.251 53.1049 248.868 53.2643 249.5 53.2811H249.562C251.933 53.2811 254.726 51.3185 257.879 47.462C258.291 47.7094 258.766 47.8519 259.257 47.8752C258.152 49.0918 256.774 50.802 256.973 52.2252C257.003 52.5107 257.099 52.7867 257.256 53.0344C257.412 53.2821 257.625 53.4954 257.879 53.6599C258.707 54.1686 259.692 54.4144 260.685 54.36C263.294 54.1785 265.846 53.5643 268.22 52.5466C268.322 52.5241 268.417 52.4798 268.497 52.4172C268.577 52.3545 268.64 52.2754 268.681 52.186C268.722 52.0967 268.74 51.9997 268.733 51.9028C268.726 51.8059 268.695 51.7119 268.642 51.6284ZM224.375 49.769C224.739 49.217 225.22 48.739 225.79 48.3642C226.36 47.9893 227.006 47.7253 227.689 47.5883H227.95C228.173 47.5883 228.273 47.5883 228.273 47.5883C228.273 47.8752 227.478 48.9541 223.99 50.4003C224.114 50.1363 224.238 49.9526 224.375 49.769ZM209.417 50.6757C207.17 48.3802 206.723 44.3975 208.175 39.4162C209.305 35.445 212.085 33.4594 214.382 33.2413H214.792C215.368 33.2233 215.937 33.36 216.43 33.6351C216.924 33.9101 217.321 34.3115 217.572 34.7908C218.826 37.2584 217.411 42.7332 209.417 50.6757ZM235.857 52.1793C235.783 52.1104 235.758 52.0301 235.795 51.8694C236.155 50.515 240.264 47.8063 244.013 47.2784C244.448 47.2784 244.758 47.2784 244.845 47.4161C244.932 47.5538 244.845 48.5638 243.914 49.6427C242.993 50.7548 241.736 51.5894 240.302 52.0409C238.868 52.4924 237.321 52.5405 235.857 52.1793Z" fill="#3D3D3D"/>
</svg>
