<svg width="234" height="73" viewBox="0 0 234 73" fill="none" xmlns="http://www.w3.org/2000/svg">
<g opacity="0.6">
<path d="M37.011 26.0542C34.4489 23.9456 30.9717 22.8914 26.5795 22.8914C22.1874 22.8914 18.7137 23.9456 16.1584 26.0542C14.899 27.0746 13.9013 28.3378 13.2368 29.7532C12.5724 31.1687 12.2577 32.7014 12.3153 34.2415C12.2623 35.7769 12.5793 37.3041 13.2436 38.7143C13.9078 40.1245 14.9031 41.3831 16.1584 42.4004C18.7137 44.5089 22.1874 45.5632 26.5795 45.5632C30.9717 45.5632 34.4489 44.5089 37.011 42.4004C38.2663 41.3831 39.2616 40.1245 39.9259 38.7143C40.5902 37.3041 40.9071 35.7769 40.8542 34.2415C40.9117 32.7014 40.597 31.1687 39.9326 29.7532C39.2682 28.3378 38.2705 27.0746 37.011 26.0542ZM34.328 41.745C33.3579 42.7347 32.1584 43.5128 30.8177 44.0223C29.4769 44.5318 28.0288 44.7597 26.5795 44.6894C25.1351 44.7574 23.6924 44.5283 22.357 44.0189C21.0217 43.5094 19.8275 42.7325 18.8621 41.745C16.9373 39.6525 15.9326 36.977 16.0445 34.2415C15.9481 31.5024 16.9506 28.826 18.8621 26.7191C19.8225 25.7177 21.0173 24.9284 22.3574 24.4103C23.6974 23.8922 25.1479 23.6587 26.6003 23.7272C28.054 23.66 29.5055 23.8941 30.847 24.4121C32.1885 24.93 33.3854 25.7186 34.3487 26.7191C36.2453 28.8314 37.2329 31.5073 37.1249 34.2415C37.2426 36.9745 36.2454 39.6497 34.328 41.745Z" fill="white"/>
<path d="M57.19 23.7895L55.3979 23.6186C53.5436 23.4571 51.679 23.3716 49.8041 23.3716H44.0859L44.1999 25.0338V43.3745L44.0859 45.0367H47.867C50.3945 45.0367 52.9152 44.9417 55.429 44.7517L57.19 44.6188C64.6622 43.232 68.3949 39.7494 68.388 34.1709C68.3811 28.5924 64.6484 25.1319 57.19 23.7895ZM47.494 44.0489V24.2549C59.1996 24.2549 65.1042 27.4463 65.1042 34.2089C65.1042 40.9715 59.1996 44.0489 47.494 44.0489Z" fill="white"/>
<path d="M74.8038 43.9069V34.2379H87.8664V33.6111H74.8038V24.2555H84.0233C85.7843 24.2555 89.2027 24.4359 90.0729 24.8159V23.3911H71.375L71.4475 24.2175C71.4889 24.781 71.5097 25.3414 71.5097 25.8986V42.5297C71.5097 43.0933 71.4889 43.6537 71.4475 44.2109L71.375 45.0372H90.798V43.3751C89.9797 43.8405 86.6544 43.9069 84.8727 43.9069H74.8038Z" fill="white"/>
<path d="M116.041 23.3829L111.556 31.8551L106.221 41.5242L96.556 23.2974L92.8164 23.3829L104.273 45.0384H105.112C105.744 43.9462 106.366 42.8539 106.998 41.7711C112.094 31.9121 115.399 25.7827 116.911 23.3829H116.041Z" fill="white"/>
<path d="M123.707 23.3911C123.075 24.4834 122.454 25.5662 121.822 26.6395C116.736 36.451 113.359 42.6437 111.836 45.0372H112.727L117.285 36.489L122.62 26.8674L132.264 45.0182H136.097L124.526 23.3911H123.707Z" fill="white"/>
<path d="M224.393 42.3287C224.33 42.205 224.216 42.109 224.077 42.0611C223.938 42.0131 223.783 42.0171 223.647 42.0722C222.093 42.7276 217.711 44.1903 216.158 43.117C216.072 43.0634 216.001 42.993 215.949 42.9108C215.897 42.8286 215.865 42.7368 215.857 42.6421C215.743 41.6923 217.349 39.9731 218.033 39.2513C218.561 38.6909 218.83 38.4155 218.53 38.045C218.441 37.9365 218.311 37.8619 218.166 37.8356C218.021 37.8093 217.87 37.8332 217.743 37.9026C216.458 38.4535 215.94 37.8266 215.899 37.7601C215.849 37.6881 215.78 37.6286 215.698 37.5872C215.617 37.5457 215.526 37.5235 215.432 37.5226C215.34 37.5179 215.248 37.5346 215.165 37.5711C215.082 37.6077 215.01 37.6628 214.956 37.7316C211.745 41.7778 209.652 42.6326 208.513 42.5946C208.163 42.577 207.824 42.4812 207.524 42.3156C207.224 42.15 206.973 41.9197 206.793 41.6448C206.659 41.4376 206.449 41.2809 206.2 41.2026C205.952 41.1243 205.681 41.1295 205.436 41.2174C205.115 41.3314 204.732 41.5023 204.286 41.7018C204.431 41.5688 204.556 41.4263 204.68 41.2934C205.716 40.1536 205.995 39.0043 205.55 38.2825C205.353 38.014 205.069 37.8097 204.738 37.6987C204.406 37.5878 204.045 37.576 203.706 37.6651C200.391 38.1115 196.393 40.448 195.916 42.2242C195.87 42.4246 195.87 42.6316 195.916 42.8321C192.456 43.4494 187.795 43.7344 186.956 42.6041C186.924 42.5587 186.896 42.511 186.873 42.4616C190.053 41.2459 191.845 39.9826 191.856 38.8999C191.845 38.68 191.758 38.4689 191.607 38.2979C191.456 38.1268 191.249 38.0049 191.016 37.9501C189.867 37.6271 187.909 38.3775 186.531 40.2011C186.157 40.6802 185.889 41.2225 185.744 41.7968C184.832 42.1197 183.765 42.4521 182.522 42.8036C179.891 43.5444 177.498 43.3449 175.82 42.2337C184.459 33.6854 183.537 29.3828 182.74 27.9106C182.399 27.278 181.849 26.7606 181.168 26.4329C180.486 26.1052 179.709 25.9841 178.948 26.087C176.877 26.2769 173.997 27.9391 172.826 31.9568C171.521 36.4779 172.018 40.1346 174.214 42.3002C164.674 51.5133 158.355 54.1252 155.568 53.4509C155.2 53.3787 154.863 53.2087 154.6 52.9621C154.336 52.7155 154.158 52.4032 154.087 52.0642C153.693 50.497 156.915 45.0451 159.266 41.0654C162.281 35.9745 162.985 34.6067 162.457 33.9609C162.398 33.8904 162.323 33.8326 162.237 33.7916C162.151 33.7506 162.056 33.7273 161.96 33.7234C160.924 33.7234 157.992 36.4684 146.794 47.8945L142.547 52.2826L145.054 49.2527C153.786 38.6909 161.017 29.7722 161.017 27.6067C161.023 27.3999 160.971 27.1952 160.866 27.0122C160.76 26.8293 160.606 26.6742 160.416 26.5619C158.407 25.3271 151.021 27.9676 142.288 31.3109L141.812 31.4914V25.4031L141.874 23.3326H138.693L138.807 25.4031V32.5457L137.865 32.8686C136.187 33.3815 135.348 33.22 134.933 32.9826C134.809 32.9181 134.701 32.8308 134.615 32.7262C134.53 32.6216 134.469 32.5019 134.436 32.3747C134.417 32.2387 134.339 32.1152 134.221 32.0315C134.102 31.9478 133.952 31.9107 133.804 31.9283C133.656 31.9459 133.521 32.0169 133.43 32.1255C133.338 32.2342 133.298 32.3716 133.317 32.5077C133.37 32.7877 133.49 33.0534 133.669 33.2852C133.848 33.517 134.082 33.7089 134.353 33.8469C135.244 34.3693 136.56 34.3693 138.258 33.8469L138.849 33.6474V42.9555L138.776 45.0261H141.884L141.822 42.9555V32.5077L142.723 32.1562C147.726 30.2566 158.127 26.3054 159.805 27.3312C159.839 27.3511 159.866 27.3797 159.883 27.4134C159.899 27.4472 159.905 27.4846 159.898 27.5212C159.898 29.5158 150.047 41.4263 144.163 48.5404C137.658 56.3953 137.502 56.6897 137.637 57.1456C137.663 57.2244 137.707 57.2971 137.766 57.3593C137.825 57.4215 137.897 57.4716 137.979 57.5065C138.054 57.5357 138.135 57.5518 138.217 57.554C138.756 57.554 139.874 56.4998 147.664 48.5499C152.253 43.8673 158.883 37.1522 161.276 35.2526C160.737 36.4684 159.422 38.7004 158.303 40.581C154.916 46.2799 152.543 50.497 153.01 52.3111C153.129 52.8317 153.407 53.3102 153.813 53.6905C154.218 54.0708 154.734 54.3369 155.299 54.4577C157.215 54.9326 162.944 54.7141 175.033 43.003C176.095 43.6688 177.31 44.1009 178.584 44.2657C179.858 44.4304 181.156 44.3233 182.377 43.9528H182.45L182.791 43.8578L183.019 43.8009C184.003 43.5159 184.936 43.231 185.775 42.946C185.824 43.0674 185.89 43.1823 185.972 43.288C187.557 45.4345 194.694 44.2378 196.652 43.8483C199.107 45.2541 202.629 43.6869 204.752 42.7371C205.083 42.5706 205.429 42.4338 205.788 42.3287C206.072 42.7361 206.46 43.0737 206.919 43.3121C207.377 43.5505 207.893 43.6824 208.419 43.6964H208.471C210.45 43.6964 212.781 42.0722 215.412 38.8809C215.756 39.0856 216.152 39.2035 216.562 39.2228C215.64 40.2296 214.49 41.6448 214.656 42.8226C214.681 43.0588 214.761 43.2872 214.892 43.4922C215.022 43.6971 215.2 43.8737 215.412 44.0098C216.103 44.4308 216.925 44.6342 217.753 44.5892C219.93 44.439 222.06 43.9307 224.041 43.0885C224.126 43.0699 224.205 43.0332 224.272 42.9814C224.339 42.9296 224.392 42.8641 224.426 42.7901C224.46 42.7162 224.475 42.6359 224.47 42.5558C224.464 42.4756 224.438 42.3978 224.393 42.3287ZM187.453 40.79C187.757 40.3331 188.159 39.9376 188.634 39.6274C189.109 39.3172 189.649 39.0988 190.219 38.9853H190.436C190.623 38.9853 190.706 38.9853 190.706 38.9853C190.706 39.2228 190.043 40.1156 187.132 41.3124C187.235 41.0939 187.339 40.9419 187.453 40.79ZM174.97 41.5403C173.095 39.6407 172.723 36.3449 173.935 32.2227C174.877 28.9364 177.198 27.2932 179.114 27.1128H179.456C179.936 27.0979 180.411 27.211 180.823 27.4386C181.235 27.6662 181.566 27.9984 181.776 28.395C182.823 30.4371 181.642 34.9677 174.97 41.5403ZM197.035 42.7846C196.973 42.7276 196.952 42.6611 196.983 42.5281C197.284 41.4073 200.712 39.1658 203.841 38.7289C204.203 38.7289 204.462 38.7289 204.535 38.8429C204.607 38.9568 204.535 39.7927 203.758 40.6855C202.989 41.6058 201.94 42.2964 200.744 42.67C199.547 43.0436 198.256 43.0835 197.035 42.7846Z" fill="white"/>
</g>
</svg>
