<svg width="97" height="24" viewBox="0 0 97 24" fill="none" xmlns="http://www.w3.org/2000/svg">
<path d="M18.6083 0V1.89175H10.3266V13.1764H8.28172V1.89175H0V0H18.6083ZM23.2868 0H25.3317V5.60936H38.9579V0H41.0028V13.1764H38.9579V7.50111H25.3317V13.1764H23.2868V0ZM47.7756 5.64701H53.0829V7.52934H47.7756V5.64701ZM47.6176 13.1764V11.2846H63.0935V13.1764H47.6176ZM47.6176 1.89175V0H62.88V1.89175H47.6176ZM69.5885 0H71.6334V13.1764H69.5885V0ZM94.639 13.1764L86.3756 1.97645L78.15 13.1764H75.9468V12.8752L85.3814 0H87.4076L96.8602 12.8752V13.1764H94.639Z" fill="white"/>
<path d="M37.7993 18.6665V19.3105H33.3308C32.794 19.3105 32.6987 19.4066 32.6987 19.9481V21.8705C32.6987 22.412 32.794 22.5081 33.3308 22.5081H37.1006V21.2201H34.8997V20.5761H37.7993V23.1521H33.1942C32.343 23.1521 32 22.8028 32 21.9442V19.8744C32 19.0157 32.343 18.6665 33.1942 18.6665H37.7993ZM42.1876 18.6665C43.0388 18.6665 43.3818 19.0157 43.3818 19.8744V20.025C43.3818 20.8837 43.0388 21.2297 42.1876 21.2297H41.308L43.5469 23.0495V23.1521H42.7021L39.936 20.9093V20.5889H42.0512C42.5878 20.5889 42.6831 20.4896 42.6831 19.9513V19.9481C42.6831 19.4066 42.5878 19.3105 42.0512 19.3105H37.5731V18.6665H42.1876ZM49.9957 18.6665C50.8469 18.6665 51.1931 19.0157 51.1931 19.8744V21.9442C51.1931 22.8028 50.8469 23.1521 49.9957 23.1521H46.6743C45.8231 23.1521 45.4801 22.8028 45.4801 21.9442V19.8744C45.4801 19.0157 45.8231 18.6665 46.6743 18.6665H49.9957ZM46.1788 21.8705C46.1788 22.412 46.2741 22.5081 46.811 22.5081H49.8623C50.3959 22.5081 50.4944 22.412 50.4944 21.8705V19.9481C50.4944 19.4066 50.3959 19.3105 49.8623 19.3105H46.811C46.2741 19.3105 46.1788 19.4066 46.1788 19.9481V21.8705ZM54.0863 23.1521C53.2352 23.1521 52.8891 22.8028 52.8891 21.9442V18.6665H53.5878V21.8705C53.5878 22.412 53.6861 22.5081 54.2197 22.5081H57.0617C57.5983 22.5081 57.6936 22.412 57.6936 21.8705V18.6665H58.3923V21.9442C58.3923 22.8028 58.0493 23.1521 57.1981 23.1521H54.0863ZM59.7663 18.6665H64.4443C65.2955 18.6665 65.6418 19.0157 65.6418 19.8744V20.025C65.6418 20.8837 65.2955 21.2297 64.4443 21.2297H60.465V23.1521H59.7663V18.6665ZM60.465 20.5889H64.3109C64.8445 20.5889 64.943 20.4896 64.943 19.9513V19.9481C64.943 19.4066 64.8445 19.3105 64.3109 19.3105H60.465V20.5889Z" fill="white"/>
</svg>
