<svg width="142" height="34" viewBox="0 0 142 34" fill="none" xmlns="http://www.w3.org/2000/svg">
<path d="M27.252 0V2.77807H15.1234V19.3497H12.1287V2.77807H0V0H27.252ZM34.1037 0H37.0985V8.23746H57.0543V0H60.049V19.3497H57.0543V11.0155H37.0985V19.3497H34.1037V0ZM69.9678 8.29275H77.7405V11.057H69.9678V8.29275ZM69.7364 19.3497V16.5717H92.401V19.3497H69.7364ZM69.7364 2.77807V0H92.0884V2.77807H69.7364ZM101.913 0H104.908V19.3497H101.913V0ZM138.6 19.3497L126.498 2.90246L114.451 19.3497H111.225V18.9075L125.042 0H128.009L141.853 18.9075V19.3497H138.6Z" fill="white"/>
<path d="M55.3603 27.4121V28.3578H48.8162C48.03 28.3578 47.8904 28.499 47.8904 29.2942V32.1172C47.8904 32.9124 48.03 33.0535 48.8162 33.0535H54.337V31.1621H51.1139V30.2164H55.3603V33.9993H48.616C47.3695 33.9993 46.8672 33.4864 46.8672 32.2254V29.1859C46.8672 27.925 47.3695 27.4121 48.616 27.4121H55.3603ZM61.787 27.4121C63.0336 27.4121 63.5359 27.925 63.5359 29.1859V29.4071C63.5359 30.668 63.0336 31.1762 61.787 31.1762H60.4988L63.7778 33.8487V33.9993H62.5405L58.4895 30.7057V30.2352H61.5872C62.3731 30.2352 62.5126 30.0893 62.5126 29.2989V29.2942C62.5126 28.499 62.3731 28.3578 61.5872 28.3578H55.029V27.4121H61.787ZM73.2221 27.4121C74.4686 27.4121 74.9757 27.925 74.9757 29.1859V32.2254C74.9757 33.4864 74.4686 33.9993 73.2221 33.9993H68.3578C67.1113 33.9993 66.609 33.4864 66.609 32.2254V29.1859C66.609 27.925 67.1113 27.4121 68.3578 27.4121H73.2221ZM67.6322 32.1172C67.6322 32.9124 67.7718 33.0535 68.558 33.0535H73.0267C73.8081 33.0535 73.9525 32.9124 73.9525 32.1172V29.2942C73.9525 28.499 73.8081 28.3578 73.0267 28.3578H68.558C67.7718 28.3578 67.6322 28.499 67.6322 29.2942V32.1172ZM79.2128 33.9993C77.9663 33.9993 77.4595 33.4864 77.4595 32.2254V27.4121H78.4827V32.1172C78.4827 32.9124 78.6268 33.0535 79.4082 33.0535H83.5702C84.3561 33.0535 84.4957 32.9124 84.4957 32.1172V27.4121H85.5189V32.2254C85.5189 33.4864 85.0166 33.9993 83.7701 33.9993H79.2128ZM87.5312 27.4121H94.3822C95.6287 27.4121 96.1359 27.925 96.1359 29.1859V29.4071C96.1359 30.668 95.6287 31.1762 94.3822 31.1762H88.5544V33.9993H87.5312V27.4121ZM88.5544 30.2352H94.1869C94.9683 30.2352 95.1126 30.0893 95.1126 29.2989V29.2942C95.1126 28.499 94.9683 28.3578 94.1869 28.3578H88.5544V30.2352Z" fill="white"/>
</svg>
