<svg width="211" height="46" viewBox="0 0 211 46" fill="none" xmlns="http://www.w3.org/2000/svg">
<path d="M0.868951 18.316V27.7024C10.1038 27.7024 16.5281 24.6203 22.6489 21.1792V45.0167H32.5353V21.1792C38.6115 24.2495 44.2328 27.7024 53.8692 27.7024V18.316C40.712 18.316 32.5353 9.22671 32.5353 0.515568H22.6489C22.6489 9.29424 14.4721 18.316 0.868951 18.316Z" fill="#09A7A4"/>
<path fill-rule="evenodd" clip-rule="evenodd" d="M22.2917 0.188354H32.8926V0.515568C32.8926 9.04438 40.9076 17.9888 53.8692 17.9888H54.2264V28.0296H53.8692C45.1041 28.0296 39.6085 25.1957 34.1838 22.3984C33.7535 22.1765 33.3236 21.9549 32.8926 21.7348V45.3439H22.2917V21.7625C16.3121 25.0903 9.92868 28.0296 0.868951 28.0296H0.511719V17.9888H0.868951C14.2825 17.9888 22.2917 9.10654 22.2917 0.515568V0.188354ZM23.0024 0.842782C22.8041 9.62571 14.639 18.4864 1.22618 18.6412V27.3737C10.17 27.2955 16.4385 24.2868 22.462 20.9003L23.0061 20.5944V44.6895H32.1781V20.625L32.7079 20.8927C33.3203 21.2022 33.9271 21.5149 34.5329 21.8271C39.8801 24.5828 45.1494 27.2983 53.5119 27.3736V18.641C40.5305 18.48 32.3815 9.55441 32.1819 0.842782H23.0024Z" fill="#09A7A4"/>
<path d="M70.0604 4.56049V12.2403H84.2919C86.3815 12.2739 87.317 12.4668 87.3904 14.7585V40.9705H95.4225V14.7585C95.4225 13.663 95.4225 12.2403 98.1585 12.2403H112.755V4.56049H87.3904H70.0604Z" fill="black"/>
<path fill-rule="evenodd" clip-rule="evenodd" d="M69.7031 4.23328H113.112V12.5675H98.1585C96.8544 12.5675 96.3163 12.9036 96.066 13.2642C95.7896 13.6622 95.7797 14.189 95.7797 14.7585V41.2977H87.0331V14.7633C86.9965 13.6406 86.7481 13.1599 86.3859 12.9165C86.1956 12.7886 85.9409 12.7024 85.5883 12.6484C85.2347 12.5943 84.8086 12.5759 84.2887 12.5675H69.7031V4.23328ZM70.4176 11.9131H84.2982C84.8217 11.9215 85.2951 11.94 85.7062 12.003C86.119 12.0662 86.4946 12.1778 86.8085 12.3888C87.4544 12.8229 87.7101 13.5834 87.7474 14.7489L87.7476 14.7537V40.6433H95.0653V14.7585C95.0653 14.7464 95.0653 14.7343 95.0653 14.722C95.065 14.199 95.0647 13.4867 95.4631 12.913C95.8968 12.2883 96.7266 11.9131 98.1585 11.9131H112.398V4.8877H70.4176V11.9131Z" fill="black"/>
<path d="M209.922 4.56049V12.2082L176.344 12.2083C174.487 12.2083 173.929 12.8733 173.929 13.8708V31.6602C173.929 32.6577 174.858 33.489 176.344 33.489L209.922 33.489V40.9705L177.645 40.9705C170.585 40.9705 165.755 37.4791 165.755 31.6602V13.8708C165.755 8.55064 170.585 4.56051 177.645 4.56051L209.922 4.56049Z" fill="black"/>
<path fill-rule="evenodd" clip-rule="evenodd" d="M210.279 4.23328V12.5355L176.344 12.5355C175.45 12.5355 174.949 12.6974 174.672 12.9142C174.409 13.1203 174.287 13.4262 174.287 13.8708V31.6602C174.287 32.4352 175.007 33.1618 176.344 33.1618L210.279 33.1617V41.2977L177.645 41.2977C174.054 41.2977 170.993 40.4097 168.824 38.7485C166.647 37.0818 165.398 34.6596 165.398 31.6602V13.8708C165.398 8.32812 170.437 4.23329 177.645 4.23329L210.279 4.23328ZM209.565 4.8877L177.645 4.88772C170.734 4.88772 166.112 8.77316 166.112 13.8708V31.6602C166.112 34.4796 167.279 36.7127 169.282 38.2464C171.292 39.7856 174.176 40.6433 177.645 40.6433L209.565 40.6432V33.8162L176.344 33.8162C174.71 33.8162 173.572 32.8802 173.572 31.6602V13.8708C173.572 13.3179 173.728 12.7925 174.208 12.4168C174.674 12.0516 175.381 11.8811 176.344 11.8811L209.565 11.881V4.8877Z" fill="black"/>
<path d="M128.386 4.56049H118.644L118.644 14.3363C118.644 8.53061 118.659 4.56049 128.386 4.56049Z" fill="black"/>
<path fill-rule="evenodd" clip-rule="evenodd" d="M118.644 31.3527L126.472 32.241L126.475 28.4674C126.475 27.3683 127.266 26.2691 128.42 26.2691H150.125C151.435 26.2691 151.865 27.2309 151.865 28.1926L151.862 32.241C151.862 33.7725 151.167 34.2319 150.123 34.2319H128.386C127.342 34.2319 126.472 33.4662 126.472 32.241L118.644 31.3527C118.644 37.1724 118.644 40.9705 124.733 40.9705H150.123C155.689 40.9705 159.867 37.4008 159.867 31.5812C159.867 28.1167 159.062 25.1007 157.403 22.9709C159.06 20.8412 159.865 17.8257 159.865 14.362C159.865 8.54236 155.689 4.56049 150.123 4.56049L128.386 4.56049C118.659 4.56049 118.644 8.53061 118.644 14.3363V14.362L118.644 31.3527ZM150.123 11.299C151.167 11.299 151.862 11.7585 151.862 13.29L151.862 17.7505C151.862 18.7123 151.433 19.6741 150.123 19.6741L128.386 19.6741C127.232 19.6741 126.472 18.5749 126.472 17.4757V13.29C126.472 12.0648 127.342 11.299 128.386 11.299H150.123Z" fill="black"/>
<path d="M124.733 40.9705C118.644 40.9705 118.644 37.1724 118.644 31.3527V40.9705H124.733Z" fill="black"/>
<path fill-rule="evenodd" clip-rule="evenodd" d="M157.838 22.9708C159.456 25.1616 160.224 28.1769 160.224 31.5812C160.224 34.5645 159.152 36.9984 157.337 38.6877C155.523 40.3767 152.991 41.2977 150.123 41.2977H118.287V4.23328L150.123 4.23328C155.913 4.23328 160.222 8.38619 160.222 14.362C160.222 17.7655 159.455 20.7801 157.838 22.9708ZM122.874 4.88771H119.002V8.11503C119.155 7.75442 119.341 7.41285 119.568 7.09291C120.265 6.1107 121.317 5.36923 122.874 4.88771ZM128.386 4.88771C123.555 4.88771 121.284 5.87588 120.167 7.4496C119.599 8.24951 119.303 9.23406 119.153 10.3979C119.003 11.5637 119.002 12.8798 119.002 14.3363L119.002 31.0636L126.115 31.8708L126.117 28.4674C126.117 27.8501 126.338 27.23 126.73 26.758C127.124 26.2833 127.708 25.9419 128.42 25.9419H150.125C150.892 25.9419 151.439 26.2308 151.78 26.6846C152.108 27.1202 152.222 27.6753 152.222 28.1926L152.22 32.241C152.22 33.0424 152.039 33.6376 151.648 34.0311C151.249 34.4322 150.697 34.5592 150.123 34.5592H128.386C127.21 34.5592 126.261 33.7522 126.13 32.5319L119.002 31.723C119.002 33.0345 119.01 34.2255 119.096 35.2865C119.19 36.4475 119.376 37.4274 119.735 38.2184C120.091 39.0013 120.613 39.5964 121.39 40.0018C122.174 40.4112 123.248 40.6433 124.733 40.6433H150.123C152.821 40.6433 155.162 39.7795 156.828 38.2287C158.493 36.6783 159.509 34.4174 159.509 31.5812C159.509 28.156 158.712 25.2157 157.112 23.1609L156.964 22.971L157.112 22.781C158.711 20.7263 159.507 17.7865 159.507 14.362C159.507 8.69852 155.466 4.8877 150.123 4.8877L128.386 4.88771ZM121.182 40.6433C121.132 40.6196 121.084 40.5953 121.036 40.5704C120.1 40.0818 119.481 39.3637 119.075 38.4696C119.05 38.4134 119.025 38.3566 119.002 38.299V40.6433H121.182ZM151.192 27.0558C150.991 26.7882 150.669 26.5963 150.125 26.5963H128.42C127.978 26.5963 127.589 26.8045 127.299 27.1541C127.007 27.5064 126.832 27.9856 126.832 28.4674L126.83 32.241C126.83 33.3099 127.565 33.9047 128.386 33.9047H150.123C150.592 33.9047 150.91 33.8019 151.12 33.5905C151.338 33.3714 151.505 32.971 151.505 32.241L151.507 28.1926C151.507 27.7482 151.407 27.3415 151.192 27.0558ZM152.22 13.29L152.22 17.7505C152.22 18.2679 152.106 18.823 151.778 19.2585C151.437 19.7119 150.891 20.0007 150.125 20.0013L126.475 20.0013V19.3469H126.856C126.805 19.2941 126.756 19.2391 126.71 19.1822C126.326 18.7092 126.115 18.09 126.115 17.4757V13.29C126.115 11.9086 127.119 10.9718 128.386 10.9718H150.123C150.697 10.9718 151.249 11.0987 151.648 11.4999C152.039 11.8934 152.22 12.4885 152.22 13.29ZM128.386 19.3469C127.946 19.3469 127.566 19.14 127.283 18.792C126.998 18.4406 126.83 17.9607 126.83 17.4757V13.29C126.83 12.2209 127.565 11.6262 128.386 11.6262H150.123C150.592 11.6262 150.91 11.729 151.12 11.9405C151.338 12.1596 151.505 12.56 151.505 13.29L151.505 17.7505C151.505 18.195 151.405 18.6016 151.19 18.8874C150.989 19.1549 150.667 19.3469 150.123 19.3469L128.386 19.3469Z" fill="black"/>
</svg>
