<svg width="211" height="46" viewBox="0 0 211 46" fill="none" xmlns="http://www.w3.org/2000/svg">
<g opacity="0.6">
<path d="M1.23223 18.316V27.7024C10.4671 27.7024 16.8914 24.6203 23.0122 21.1792V45.0167H32.8986V21.1792C38.9748 24.2495 44.596 27.7024 54.2324 27.7024V18.316C41.0753 18.316 32.8986 9.22671 32.8986 0.515568H23.0122C23.0122 9.29424 14.8354 18.316 1.23223 18.316Z" fill="#414141"/>
<path fill-rule="evenodd" clip-rule="evenodd" d="M22.655 0.188354H33.2559V0.515568C33.2559 9.04438 41.2708 17.9888 54.2324 17.9888H54.5897V28.0296H54.2324C45.4674 28.0296 39.9717 25.1957 34.5471 22.3984C34.1168 22.1765 33.6869 21.9549 33.2559 21.7348V45.3439H22.655V21.7625C16.6754 25.0903 10.292 28.0296 1.23223 28.0296H0.875V17.9888H1.23223C14.6458 17.9888 22.655 9.10654 22.655 0.515568V0.188354ZM23.3657 0.842782C23.1674 9.62571 15.0023 18.4864 1.58946 18.6412V27.3737C10.5332 27.2955 16.8017 24.2868 22.8253 20.9003L23.3694 20.5944V44.6895H32.5414V20.625L33.0712 20.8927C33.6836 21.2022 34.2904 21.5149 34.8962 21.8271C40.2434 24.5828 45.5127 27.2983 53.8752 27.3736V18.641C40.8938 18.48 32.7448 9.55441 32.5451 0.842782H23.3657Z" fill="#414141"/>
<path d="M70.4275 4.56049V12.2403H84.6591C86.7487 12.2739 87.6842 12.4668 87.7576 14.7585V40.9705H95.7897V14.7585C95.7897 13.663 95.7897 12.2403 98.5257 12.2403H113.122V4.56049H87.7576H70.4275Z" fill="#AAADB1"/>
<path fill-rule="evenodd" clip-rule="evenodd" d="M70.0703 4.23328H113.479V12.5675H98.5257C97.2216 12.5675 96.6835 12.9036 96.4331 13.2642C96.1568 13.6622 96.1469 14.189 96.1469 14.7585V41.2977H87.4003V14.7633C87.3637 13.6406 87.1152 13.1599 86.7531 12.9165C86.5628 12.7886 86.3081 12.7024 85.9555 12.6484C85.6019 12.5943 85.1758 12.5759 84.6559 12.5675H70.0703V4.23328ZM70.7848 11.9131H84.6654C85.1889 11.9215 85.6623 11.94 86.0734 12.003C86.4862 12.0662 86.8618 12.1778 87.1757 12.3888C87.8216 12.8229 88.0773 13.5834 88.1146 14.7489L88.1148 14.7537V40.6433H95.4325V14.7585C95.4325 14.7464 95.4325 14.7343 95.4325 14.722C95.4322 14.199 95.4319 13.4867 95.8303 12.913C96.2639 12.2883 97.0938 11.9131 98.5257 11.9131H112.765V4.8877H70.7848V11.9131Z" fill="#AAADB1"/>
<path d="M210.289 4.56049V12.2082L176.712 12.2083C174.854 12.2083 174.297 12.8733 174.297 13.8708V31.6602C174.297 32.6577 175.225 33.489 176.712 33.489L210.289 33.489V40.9705L178.012 40.9705C170.953 40.9705 166.122 37.4791 166.122 31.6602V13.8708C166.122 8.55064 170.953 4.56051 178.012 4.56051L210.289 4.56049Z" fill="#AAADB1"/>
<path fill-rule="evenodd" clip-rule="evenodd" d="M210.646 4.23328V12.5355L176.712 12.5355C175.818 12.5355 175.316 12.6974 175.04 12.9142C174.776 13.1203 174.654 13.4262 174.654 13.8708V31.6602C174.654 32.4352 175.374 33.1618 176.712 33.1618L210.646 33.1617V41.2977L178.012 41.2977C174.421 41.2977 171.361 40.4097 169.191 38.7485C167.014 37.0818 165.765 34.6596 165.765 31.6602V13.8708C165.765 8.32812 170.804 4.23329 178.012 4.23329L210.646 4.23328ZM209.932 4.8877L178.012 4.88772C171.101 4.88772 166.48 8.77316 166.48 13.8708V31.6602C166.48 34.4796 167.646 36.7127 169.649 38.2464C171.659 39.7856 174.543 40.6433 178.012 40.6433L209.932 40.6432V33.8162L176.712 33.8162C175.077 33.8162 173.939 32.8802 173.939 31.6602V13.8708C173.939 13.3179 174.095 12.7925 174.575 12.4168C175.042 12.0516 175.748 11.8811 176.712 11.8811L209.932 11.881V4.8877Z" fill="#AAADB1"/>
<path d="M128.753 4.56049H119.011L119.011 14.3363C119.011 8.53061 119.026 4.56049 128.753 4.56049Z" fill="#AAADB1"/>
<path fill-rule="evenodd" clip-rule="evenodd" d="M119.011 31.3527L126.84 32.241L126.842 28.4674C126.842 27.3683 127.634 26.2691 128.787 26.2691H150.492C151.803 26.2691 152.232 27.2309 152.232 28.1926L152.23 32.241C152.23 33.7725 151.534 34.2319 150.49 34.2319H128.753C127.709 34.2319 126.84 33.4662 126.84 32.241L119.011 31.3527C119.011 37.1724 119.011 40.9705 125.1 40.9705H150.49C156.057 40.9705 160.234 37.4008 160.234 31.5812C160.234 28.1167 159.429 25.1007 157.77 22.9709C159.428 20.8412 160.232 17.8257 160.232 14.362C160.232 8.54236 156.057 4.56049 150.49 4.56049L128.753 4.56049C119.026 4.56049 119.011 8.53061 119.011 14.3363V14.362L119.011 31.3527ZM150.49 11.299C151.534 11.299 152.23 11.7585 152.23 13.29L152.23 17.7505C152.23 18.7123 151.8 19.6741 150.49 19.6741L128.753 19.6741C127.6 19.6741 126.84 18.5749 126.84 17.4757V13.29C126.84 12.0648 127.709 11.299 128.753 11.299H150.49Z" fill="#AAADB1"/>
<path d="M125.1 40.9705C119.011 40.9705 119.011 37.1724 119.011 31.3527V40.9705H125.1Z" fill="#AAADB1"/>
<path fill-rule="evenodd" clip-rule="evenodd" d="M158.205 22.9708C159.824 25.1616 160.591 28.1769 160.591 31.5812C160.591 34.5645 159.519 36.9984 157.704 38.6877C155.89 40.3767 153.358 41.2977 150.49 41.2977H118.654V4.23328L150.49 4.23328C156.28 4.23328 160.589 8.38619 160.589 14.362C160.589 17.7655 159.822 20.7801 158.205 22.9708ZM123.241 4.88771H119.369V8.11503C119.522 7.75442 119.708 7.41285 119.935 7.09291C120.632 6.1107 121.684 5.36923 123.241 4.88771ZM128.753 4.88771C123.923 4.88771 121.651 5.87588 120.534 7.4496C119.966 8.24951 119.671 9.23406 119.52 10.3979C119.37 11.5637 119.369 12.8798 119.369 14.3363L119.369 31.0636L126.483 31.8708L126.485 28.4674C126.485 27.8501 126.706 27.23 127.097 26.758C127.492 26.2833 128.075 25.9419 128.787 25.9419H150.492C151.259 25.9419 151.807 26.2308 152.148 26.6846C152.475 27.1202 152.589 27.6753 152.589 28.1926L152.587 32.241C152.587 33.0424 152.406 33.6376 152.015 34.0311C151.617 34.4322 151.065 34.5592 150.49 34.5592H128.753C127.577 34.5592 126.628 33.7522 126.498 32.5319L119.369 31.723C119.369 33.0345 119.377 34.2255 119.463 35.2865C119.557 36.4475 119.743 37.4274 120.102 38.2184C120.458 39.0013 120.98 39.5964 121.757 40.0018C122.541 40.4112 123.615 40.6433 125.1 40.6433H150.49C153.188 40.6433 155.529 39.7795 157.195 38.2287C158.86 36.6783 159.877 34.4174 159.877 31.5812C159.877 28.156 159.08 25.2157 157.479 23.1609L157.331 22.971L157.479 22.781C159.078 20.7263 159.874 17.7865 159.874 14.362C159.874 8.69852 155.834 4.8877 150.49 4.8877L128.753 4.88771ZM121.549 40.6433C121.499 40.6196 121.451 40.5953 121.403 40.5704C120.467 40.0818 119.848 39.3637 119.443 38.4696C119.417 38.4134 119.393 38.3566 119.369 38.299V40.6433H121.549ZM151.559 27.0558C151.358 26.7882 151.036 26.5963 150.492 26.5963H128.787C128.345 26.5963 127.956 26.8045 127.666 27.1541C127.374 27.5064 127.199 27.9856 127.199 28.4674L127.197 32.241C127.197 33.3099 127.932 33.9047 128.753 33.9047H150.49C150.959 33.9047 151.277 33.8019 151.487 33.5905C151.705 33.3714 151.872 32.971 151.872 32.241L151.875 28.1926C151.875 27.7483 151.774 27.3415 151.559 27.0558ZM152.587 13.29L152.587 17.7505C152.587 18.2679 152.473 18.823 152.145 19.2585C151.805 19.7119 151.258 20.0007 150.492 20.0013L126.842 20.0013V19.3469H127.223C127.172 19.2941 127.123 19.2391 127.077 19.1822C126.694 18.7092 126.482 18.09 126.482 17.4757V13.29C126.482 11.9086 127.486 10.9718 128.753 10.9718H150.49C151.065 10.9718 151.617 11.0987 152.015 11.4999C152.406 11.8934 152.587 12.4885 152.587 13.29ZM128.753 19.3469C128.313 19.3469 127.933 19.14 127.651 18.792C127.366 18.4406 127.197 17.9607 127.197 17.4757V13.29C127.197 12.2209 127.932 11.6262 128.753 11.6262H150.49C150.959 11.6262 151.277 11.729 151.487 11.9405C151.705 12.1596 151.872 12.56 151.872 13.29L151.872 17.7505C151.872 18.195 151.772 18.6016 151.557 18.8874C151.356 19.1549 151.034 19.3469 150.49 19.3469L128.753 19.3469Z" fill="#AAADB1"/>
</g>
</svg>
