<svg width="112" height="26" viewBox="0 0 112 26" fill="none" xmlns="http://www.w3.org/2000/svg">
<path fill-rule="evenodd" clip-rule="evenodd" d="M71.263 2.25479C71.179 2.51907 71.092 2.79213 70.9677 3.04766C70.9349 3.11505 71.0047 3.19888 71.0874 3.19143C71.4014 3.16383 71.7231 3.17295 72.0341 3.18184C72.6651 3.19976 73.2613 3.21665 73.709 2.92734C74.336 2.52224 74.4718 1.74346 74.0122 1.19094C73.5525 0.638416 72.6689 0.51853 72.042 0.923634C71.5944 1.21292 71.4333 1.71902 71.263 2.25479ZM94.4867 14.3845C94.4027 14.6498 94.3159 14.924 94.1913 15.1805C94.1586 15.2481 94.2283 15.3323 94.3111 15.3248C94.6251 15.2971 94.9467 15.3063 95.258 15.3152C95.889 15.3332 96.485 15.3501 96.9327 15.0597C97.5597 14.653 97.6955 13.8712 97.2359 13.3165C96.7762 12.7619 95.8926 12.6415 95.2659 13.0482C94.8181 13.3386 94.6572 13.8467 94.4867 14.3845ZM100.101 15.5406H99.2471C97.8199 15.5406 97.0443 15.7993 96.1452 17.0035L92.661 21.7902V15.5406H90.3457V24.6763H93.0095L97.7861 18.1977V24.6763H100.101V15.5406ZM109.679 15.5468H111.997V24.6763H109.679V21.0067H104.559V24.6763H102.241V15.5468H104.559V19.0872H109.679V15.5468ZM78.8909 18.9045V21.3087C78.8909 24.5928 79.2055 24.6763 82.6647 24.6763H88.4261V22.7589H82.553C81.3584 22.7589 81.1909 22.5801 81.1909 21.4179V21.0106H87.0082V19.1132H81.1909V18.8052C81.1909 17.6429 81.3584 17.4641 82.553 17.4641H88.3632V15.5468H82.1217C79.1741 15.5468 78.8909 15.9365 78.8909 18.9045ZM61.5547 3.46697H59.0185C56.0784 3.46697 55.2256 4.19841 55.2256 6.80786V9.19987C55.2256 11.7896 56.3701 12.5408 59.3102 12.5408H61.2741C64.2365 12.5408 65.3589 11.7896 65.3589 9.19987V6.80786C65.3589 4.19841 64.5284 3.46697 61.5547 3.46697ZM63.0472 9.19987C63.0472 10.3563 62.7666 10.6331 61.5658 10.6331H59.0298C57.829 10.6331 57.5483 10.3563 57.5483 9.19987V6.80786C57.5483 5.65139 57.829 5.37463 59.0298 5.37463H61.5658C62.7666 5.37463 63.0472 5.65139 63.0472 6.80786V9.19987ZM65.3476 15.5468H59.0073C56.0673 15.5468 55.2143 16.2827 55.2256 18.9082V21.3149C55.2256 23.9204 56.0784 24.6763 59.0185 24.6763H65.3589V22.7569H59.0185C57.8179 22.7569 57.5373 22.4784 57.5373 21.3149V18.9082C57.5373 17.7446 57.8179 17.4662 59.0185 17.4662H63.0695V18.4137H65.1384C65.3487 17.7709 65.3485 17.6144 65.3476 16.8452V16.8416C65.3476 16.7907 65.3476 16.7371 65.3476 16.6805V15.5468ZM70.5882 15.5468H76.9285V16.6805C76.9285 16.7384 76.9285 16.7932 76.9285 16.8451C76.9294 17.6144 76.9296 17.7709 76.7193 18.4137H74.6504V17.4662H70.5994C69.3988 17.4662 69.1182 17.7446 69.1182 18.9082V21.3149C69.1182 22.4784 69.3988 22.7569 70.5994 22.7569H76.9398V24.6763H70.5994C67.6593 24.6763 66.8065 23.9204 66.8065 21.3149V18.9082C66.7953 16.2827 67.6482 15.5468 70.5882 15.5468ZM43.5818 18.9082C43.5818 16.2529 44.4649 15.5468 47.3604 15.5468H53.2743V24.6763H50.9713V21.6133H45.8847V24.6763H43.5818V18.9082ZM45.8847 19.7237H50.9713V17.4761H47.3604C46.0299 17.4761 45.8847 17.8839 45.8847 18.9181V19.7237ZM41.3228 17.496V15.5468H32.0009V24.6763H35.1455H38.2904C40.5704 24.6763 41.6936 23.6419 41.6936 21.9414C41.6936 21.6629 41.6373 21.3844 41.5588 21.1159C41.2554 20.1314 40.2222 19.4751 39.0654 19.4751H34.3145V17.496H41.3228ZM38.313 20.9867H34.3145V22.7569H38.313C39.0879 22.7569 39.3685 22.3789 39.3685 21.8419C39.3685 21.3149 39.0879 20.9867 38.313 20.9867ZM52.9915 5.87874C52.9915 6.83751 52.5423 7.46023 52.0031 7.74688C52.722 8.02362 53.452 8.69576 53.4633 9.82259C53.4633 11.5128 52.3401 12.5408 50.0601 12.5408H43.7706V3.46697H49.8243C52.194 3.46697 53.0028 4.65309 52.9915 5.87874ZM49.566 5.40429H46.0842V7.0352H49.566C50.3633 7.0352 50.6777 6.73868 50.6777 6.18516C50.6777 5.6514 50.3633 5.40429 49.566 5.40429ZM46.0842 10.6331H50.0827C50.8576 10.6331 51.1382 10.2575 51.1382 9.72374C51.1382 9.19987 50.8576 8.87369 50.0827 8.87369H46.0842V10.6331ZM76.9398 3.4404H76.0855C74.6581 3.4404 73.8827 3.68823 72.9834 4.89766L69.4994 9.66592V3.4404H67.1841V12.5408H69.8477L74.6245 6.08723V12.5408H76.9398V3.4404ZM41.6936 3.46697V5.44383L37.9388 5.39441V12.5408H35.6299V5.39441L31.875 5.44383V3.46697H41.6936Z" fill="#EEEEEE"/>
<path fill-rule="evenodd" clip-rule="evenodd" d="M6.89895 2.2793C3.24841 2.2793 0.289062 4.98989 0.289062 8.33356V19.6749C0.289062 23.0187 3.24841 25.7292 6.89895 25.7292H18.8284C22.479 25.7292 25.4383 23.0187 25.4383 19.6749V8.33356C25.4383 4.98989 22.479 2.2793 18.8284 2.2793H6.89895ZM7.19322 5.05763C5.01789 5.05763 3.25446 6.67283 3.25446 8.66531V19.3432C3.25446 21.3357 5.01789 22.9509 7.19322 22.9509H18.5341C20.7095 22.9509 22.4729 21.3357 22.4729 19.3432V8.66531C22.4729 6.67283 20.7095 5.05763 18.5341 5.05763H7.19322Z" fill="#EEEEEE"/>
<path d="M13.3281 6.78908C14.706 6.78908 16.0861 6.75968 17.4619 6.80281C18.3413 6.83024 19.0752 7.1948 19.64 7.82789C20.7612 9.08622 20.4017 10.9502 18.9596 11.8518C18.3862 12.2105 17.7486 12.3536 17.0682 12.3065C16.1824 12.2438 15.4464 11.8832 14.9221 11.2285C13.9807 10.0525 13.7732 8.14345 13.3281 6.78908Z" fill="#F5F5F5"/>
</svg>
