<svg width="144" height="32" viewBox="0 0 144 32" fill="none" xmlns="http://www.w3.org/2000/svg">
<path d="M86.3785 21.2554V12.7661L88.0855 11.2424H91.5484V21.2554H89.8414V12.4179H89.2561L88.0855 13.4627V21.2554H86.3785Z" fill="#F7F7F7"/>
<path fill-rule="evenodd" clip-rule="evenodd" d="M61.2609 11.3295H64.5774L66.2356 12.592V19.7752L64.5774 21.2554H62.9191V26.1313H61.2609V11.3295ZM62.8216 19.9929V12.5485H63.797L64.5774 13.0273V19.2528L63.797 19.9929H62.8216Z" fill="#F7F7F7"/>
<path fill-rule="evenodd" clip-rule="evenodd" d="M42.4836 8.36913V9.76224H43.7029L42.7762 10.8941V16.2489L44.3857 17.6856H46.5804V20.0364L45.0197 20.2541V21.2119H49.8482V20.2541L48.2875 20.0364V17.6856H50.3359L51.9454 16.1618V10.5459L50.092 8.36913H42.4836ZM46.5804 9.76224H45.2148L44.4832 10.6765V15.683L45.5562 16.6407H46.5804V9.76224ZM48.1411 9.76224H49.5068L50.2383 10.6765V15.683L49.1654 16.6407H48.1411V9.76224Z" fill="#F7F7F7"/>
<path fill-rule="evenodd" clip-rule="evenodd" d="M54.1401 12.7226V19.9058L55.5545 21.2554H57.5542L59.1149 19.9058V12.7226L57.5542 11.3295H55.5545L54.1401 12.7226ZM56.2861 12.7226L55.7496 13.2015V19.6446L56.2861 20.1235H56.9689L57.5542 19.6446V13.2015L56.9689 12.7226H56.2861Z" fill="#F7F7F7"/>
<path d="M24.0132 18.0467C25.299 15.5576 28.6018 14.4701 31.3904 15.6177C33.9733 16.6807 35.209 19.2883 34.3557 21.6451C34.2707 21.8488 34.1811 22.0505 34.0869 22.25C31.4632 27.8065 25.3044 31.707 18.1249 31.707C13.5503 31.707 9.39 30.1234 6.29463 27.5368C6.98969 27.652 7.66334 27.7502 8.31607 27.8297C13.074 28.4946 16.3905 27.9726 18.9759 26.1777C20.9166 24.8303 22.4189 22.6857 23.5443 19.5063C23.6137 19.0135 23.7679 18.5217 24.0132 18.0467Z" fill="#838383"/>
<path d="M12.5157 14.3673C11.23 16.8565 7.92711 17.944 5.13852 16.7963C2.55569 15.7334 1.31994 13.1258 2.17322 10.769C2.2582 10.5653 2.34786 10.3636 2.44208 10.1641C5.06573 4.60755 11.2246 0.707031 18.404 0.707031C22.9787 0.707031 27.1389 2.29065 30.2343 4.87724C29.5393 4.76207 28.8656 4.66382 28.2129 4.58441C23.455 3.91948 20.1385 4.44145 17.5531 6.23639C15.6123 7.58374 14.11 9.7284 12.9847 12.9078C12.9152 13.4006 12.7611 13.8923 12.5157 14.3673Z" fill="#F3F0F0"/>
<path d="M16.2334 21.5729C19.022 22.7206 20.2404 25.6687 18.9546 28.1579C17.7638 30.4634 14.8425 31.5664 12.2021 30.8048C11.9739 30.7289 11.748 30.6489 11.5244 30.5648C5.29947 28.2229 0.929688 22.7254 0.929688 16.3169C0.929688 12.2335 2.70383 8.52002 5.6016 5.75705C5.47257 6.37747 5.36251 6.97878 5.27354 7.56142C4.52861 11.8084 5.11338 14.7687 7.12426 17.0765C8.63371 18.8088 11.0364 20.1498 14.5983 21.1543C15.1503 21.2163 15.7012 21.3539 16.2334 21.5729Z" fill="#BFBFBF"/>
<path d="M20.3554 10.7877C17.5668 9.64002 16.3485 6.69183 17.6342 4.20269C18.8251 1.89723 21.7464 0.794178 24.3867 1.55582C24.6149 1.63168 24.8409 1.71171 25.0644 1.79581C31.2894 4.13772 35.6592 9.63519 35.6592 16.0437C35.6592 20.1271 33.885 23.8406 30.9873 26.6035C31.1163 25.9831 31.2264 25.3818 31.3153 24.7992C32.0603 20.5522 31.4755 17.5919 29.4646 15.2841C27.9552 13.5518 25.5525 12.2108 21.9906 11.2063C21.4385 11.1443 20.8876 11.0067 20.3554 10.7877Z" fill="white"/>
<path d="M68.3328 21.2119V11.2424H70.3325L72.2834 13.1579H73.1125L75.2585 11.2424H77.063V21.2119H75.5023V13.1579L73.6002 14.7252V21.2119H71.7957V14.7252L70.0399 13.1579V21.2119H68.3328Z" fill="#F7F7F7"/>
<path d="M120.909 21.2119V11.2424H122.909L124.86 13.1579H125.689L127.835 11.2424H129.639V21.2119H128.079V13.1579L126.177 14.7252V21.2119H124.372V14.7252L122.616 13.1579V21.2119H120.909Z" fill="#F7F7F7"/>
<path d="M79.2578 11.3295H80.916V19.2528L81.4525 20.0364H82.5255V11.3295H84.2326V24.477L82.5255 26.0877H80.916L79.2578 24.6511V22.6485H80.6722V23.9545L81.4525 24.6511H82.1841L82.8182 23.9545V21.2989H80.916L79.2578 20.0364V11.3295Z" fill="#F7F7F7"/>
<path fill-rule="evenodd" clip-rule="evenodd" d="M94.8649 13.811H93.4993V12.5485L94.9624 11.2424H97.3035L98.7667 12.5485V20.3847H99.6933V21.1683L97.6937 21.2119H94.9624L93.4993 19.9929V16.336L95.1575 14.8558H97.3035V13.3756L96.6695 12.8097H95.2551L94.8649 13.811ZM97.3035 16.1183H95.9866L94.9624 17.0761V19.1657L95.7428 19.7752H96.6695L97.3035 19.1657V16.1183Z" fill="#F7F7F7"/>
<path fill-rule="evenodd" clip-rule="evenodd" d="M114.471 13.811H113.106V12.5485L114.569 11.2424H116.91L118.373 12.5485V20.3847H119.3V21.1683L117.3 21.2119H114.569L113.106 19.9929V16.336L114.764 14.8558H116.91V13.3756L116.276 12.8097H114.861L114.471 13.811ZM116.91 16.1183H115.593L114.569 17.0761V19.1657L115.349 19.7752H116.276L116.91 19.1657V16.1183Z" fill="#F7F7F7"/>
<path d="M105.302 9.84931V8.63034H108.082V9.84931H107.497V12.8097H108.521L109.155 12.2437V9.84931H108.716V8.63034H111.545V9.84931H110.911V12.5485L109.643 13.4627V13.8545L110.911 14.8123V20.0364H111.545V21.2119H108.716V20.0364H109.399V15.683L108.082 14.2898H107.497V20.0364H108.082V21.2119H105.302V20.0364H105.936V10.9377L106.912 9.84931H105.302Z" fill="#F7F7F7"/>
<path d="M131.834 11.3295H133.444V15.6394H135.199V11.3295H136.858V21.2554H135.199V16.8584H133.444V21.2554H131.834V11.3295Z" fill="#F7F7F7"/>
<path fill-rule="evenodd" clip-rule="evenodd" d="M140.613 21.2554H138.955V17.5985L140.077 16.7713V16.5101L138.955 15.7265V12.6791L140.613 11.3295H143.93V21.2554H142.467V17.3373H141.345L140.613 17.9032V21.2554ZM141.345 15.8571L140.369 15.2476V13.1579L141.345 12.4179H142.223L142.467 12.8967V15.8571H141.345Z" fill="#F7F7F7"/>
</svg>
