<svg width="224" height="26" viewBox="0 0 224 26" fill="none" xmlns="http://www.w3.org/2000/svg">
<path d="M1.1405 10.9404V15.7213C5.78247 15.7213 9.01167 14.1515 12.0883 12.3987V24.5404H17.0578V12.3987C20.112 13.9626 22.9376 15.7213 27.7814 15.7213V10.9404C21.1679 10.9404 17.0578 6.31072 17.0578 1.8737H12.0883C12.0883 6.34512 7.9782 10.9404 1.1405 10.9404Z" fill="white"/>
<path fill-rule="evenodd" clip-rule="evenodd" d="M11.9088 1.70703H17.2374V1.8737C17.2374 6.21786 21.2661 10.7737 27.7814 10.7737H27.9609V15.888H27.7814C23.3756 15.888 20.6131 14.4446 17.8864 13.0198C17.6701 12.9067 17.454 12.7938 17.2374 12.6818V24.707H11.9088V12.6958C8.9031 14.3909 5.69443 15.888 1.1405 15.888H0.960938V10.7737H1.1405C7.8829 10.7737 11.9088 6.24952 11.9088 1.8737V1.70703ZM12.266 2.04036C12.1663 6.51395 8.06212 11.0272 1.32007 11.106V15.5539C5.81571 15.5141 8.96661 13.9816 11.9944 12.2567L12.2679 12.1009V24.3737H16.8782V12.1164L17.1445 12.2528C17.4524 12.4104 17.7574 12.5697 18.0619 12.7287C20.7497 14.1323 23.3983 15.5155 27.6018 15.5539V11.1059C21.0766 11.0239 16.9805 6.47764 16.8801 2.04036H12.266Z" fill="white"/>
<path d="M40.1439 3.87477V7.8116H47.433C48.5032 7.82884 48.9824 7.92773 49.0199 9.10247V22.5393H53.1338V9.10247C53.1338 8.5409 53.1338 7.8116 54.5352 7.8116H62.0111V3.87477H49.0199H40.1439Z" fill="white"/>
<path fill-rule="evenodd" clip-rule="evenodd" d="M39.9609 3.70703H62.1941V7.97933H54.5352C53.8672 7.97933 53.5916 8.15163 53.4634 8.33645C53.3219 8.54049 53.3168 8.81053 53.3168 9.10247V22.707H48.837V9.10496C48.8182 8.52942 48.691 8.28298 48.5055 8.15821C48.408 8.09266 48.2776 8.0485 48.097 8.02081C47.9159 7.99305 47.6976 7.98365 47.4314 7.97933H39.9609V3.70703ZM40.3269 7.64386H47.4362C47.7043 7.64818 47.9468 7.65765 48.1573 7.68993C48.3688 7.72235 48.5611 7.77957 48.7219 7.88773C49.0527 8.11023 49.1837 8.50009 49.2028 9.09755L49.2029 9.10001V22.3716H52.9509V9.10247C52.9509 9.09629 52.9509 9.09005 52.9509 9.08377C52.9507 8.81567 52.9506 8.45055 53.1546 8.15643C53.3767 7.83621 53.8018 7.64386 54.5352 7.64386H61.8282V4.0425H40.3269V7.64386Z" fill="white"/>
<path d="M111.778 3.87477V7.79517L94.5803 7.79518C93.6288 7.79518 93.3433 8.13608 93.3433 8.64744V17.7666C93.3433 18.278 93.8191 18.7041 94.5803 18.7041L111.778 18.7041V22.5393L95.2463 22.5393C91.6306 22.5393 89.1567 20.7495 89.1567 17.7666V8.64744C89.1567 5.9202 91.6306 3.87478 95.2463 3.87478L111.778 3.87477Z" fill="white"/>
<path fill-rule="evenodd" clip-rule="evenodd" d="M111.961 3.70703V7.96291L94.5803 7.96291C94.1223 7.96291 93.8656 8.04594 93.7239 8.15705C93.5891 8.2627 93.5263 8.41952 93.5263 8.64744V17.7666C93.5263 18.1639 93.895 18.5364 94.5803 18.5364L111.961 18.5364V22.707L95.2463 22.707C93.4071 22.707 91.8395 22.2518 90.7283 21.4003C89.6133 20.5459 88.9737 19.3042 88.9737 17.7666V8.64744C88.9737 5.80613 91.5546 3.70704 95.2463 3.70704L111.961 3.70703ZM111.595 4.0425L95.2463 4.04251C91.7066 4.04251 89.3397 6.03427 89.3397 8.64744V17.7666C89.3397 19.212 89.937 20.3566 90.963 21.1429C91.9926 21.9319 93.4698 22.3716 95.2463 22.3716L111.595 22.3715V18.8718L94.5803 18.8719C93.7431 18.8719 93.1603 18.3921 93.1603 17.7666V8.64744C93.1603 8.364 93.2403 8.09469 93.4861 7.90205C93.7249 7.71487 94.0867 7.62744 94.5803 7.62744L111.595 7.62743V4.0425Z" fill="white"/>
<path d="M70.0169 3.87477H65.0275L65.0275 8.88603C65.0275 5.90994 65.0349 3.87477 70.0169 3.87477Z" fill="white"/>
<path fill-rule="evenodd" clip-rule="evenodd" d="M65.0275 17.609L69.0369 18.0644L69.038 16.13C69.038 15.5665 69.4436 15.0031 70.0343 15.0031H81.1513C81.8224 15.0031 82.0422 15.4961 82.0422 15.9891L82.0411 18.0644C82.0411 18.8495 81.6847 19.085 81.1501 19.085H70.0169C69.4824 19.085 69.0369 18.6924 69.0369 18.0644L65.0275 17.609C65.0275 20.5923 65.0275 22.5393 68.1459 22.5393H81.1501C84.0012 22.5393 86.1407 20.7094 86.1407 17.7261C86.1407 15.9502 85.7284 14.4041 84.8787 13.3123C85.7277 12.2206 86.1396 10.6748 86.1396 8.89923C86.1396 5.91596 84.0012 3.87477 81.1501 3.87477L70.0169 3.87477C65.0349 3.87477 65.0275 5.90994 65.0275 8.88603V8.89923L65.0275 17.609ZM81.1501 7.32909C81.6847 7.32909 82.0411 7.56461 82.0411 8.34968L82.0411 10.6363C82.0411 11.1293 81.8213 11.6223 81.1501 11.6223L70.0169 11.6223C69.4262 11.6223 69.0369 11.0589 69.0369 10.4954V8.34968C69.0369 7.72162 69.4824 7.32909 70.0169 7.32909H81.1501Z" fill="white"/>
<path d="M68.1459 22.5393C65.0275 22.5393 65.0275 20.5923 65.0275 17.609V22.5393H68.1459Z" fill="white"/>
<path fill-rule="evenodd" clip-rule="evenodd" d="M85.1015 13.3123C85.9306 14.4354 86.3237 15.981 86.3237 17.7261C86.3237 19.2555 85.7745 20.5031 84.845 21.3691C83.9157 22.2349 82.6193 22.707 81.1501 22.707H64.8445V3.70703L81.1501 3.70703C84.1155 3.70703 86.3226 5.8359 86.3226 8.89923C86.3226 10.6439 85.9299 12.1893 85.1015 13.3123ZM67.1939 4.04251H65.2105V5.6969C65.2888 5.51205 65.3843 5.33695 65.5006 5.17294C65.8576 4.66944 66.3965 4.28934 67.1939 4.04251ZM70.0169 4.04251C67.5429 4.04251 66.3794 4.54906 65.8074 5.35579C65.5166 5.76584 65.3651 6.27054 65.2882 6.86716C65.2112 7.46475 65.2105 8.13944 65.2105 8.88603L65.2105 17.4608L68.854 17.8746L68.855 16.13C68.8551 15.8135 68.9683 15.4957 69.169 15.2537C69.3708 15.0103 69.6697 14.8353 70.0343 14.8353H81.1513C81.544 14.8353 81.8244 14.9834 81.9991 15.2161C82.1668 15.4393 82.2252 15.7239 82.2252 15.9891L82.2241 18.0644C82.224 18.4752 82.1317 18.7803 81.9314 18.982C81.7272 19.1876 81.4444 19.2527 81.1501 19.2527H70.0169C69.4148 19.2527 68.9286 18.8391 68.8617 18.2135L65.2105 17.7988C65.2108 18.4711 65.2147 19.0817 65.2587 19.6256C65.3069 20.2207 65.4024 20.723 65.5863 21.1285C65.7682 21.5298 66.0359 21.8349 66.4337 22.0427C66.8353 22.2526 67.3854 22.3716 68.1459 22.3716H81.1501C82.5321 22.3716 83.7309 21.9288 84.5842 21.1338C85.4372 20.339 85.9577 19.1801 85.9577 17.7261C85.9577 15.9703 85.5495 14.4631 84.7298 13.4098L84.654 13.3124L84.7298 13.215C85.5488 12.1617 85.9566 10.6547 85.9566 8.89923C85.9566 5.99601 83.887 4.0425 81.1501 4.04251L70.0169 4.04251ZM66.327 22.3716C66.3018 22.3594 66.277 22.347 66.2525 22.3342C65.7732 22.0837 65.4562 21.7156 65.2484 21.2573C65.2353 21.2285 65.2227 21.1994 65.2105 21.1699V22.3716H66.327ZM81.6977 15.4063C81.5947 15.2692 81.4297 15.1708 81.1513 15.1708H70.0343C69.8081 15.1708 69.6089 15.2775 69.4603 15.4567C69.3105 15.6373 69.221 15.883 69.221 16.13L69.2198 18.0644C69.2199 18.6123 69.5966 18.9172 70.0169 18.9172H81.1501C81.3904 18.9172 81.5532 18.8645 81.6608 18.7562C81.7723 18.6438 81.8581 18.4386 81.8581 18.0644L81.8593 15.9891C81.8593 15.7613 81.8077 15.5528 81.6977 15.4063ZM82.2241 8.34968L82.2241 10.6363C82.2241 10.9015 82.1657 11.186 81.998 11.4093C81.8235 11.6417 81.5434 11.7898 81.1513 11.79H69.038V11.4546H69.2335C69.2072 11.4275 69.1821 11.3993 69.1585 11.3702C68.9621 11.1277 68.8539 10.8103 68.8539 10.4954V8.34968C68.8539 7.64157 69.3681 7.16135 70.0169 7.16135H81.1501C81.4445 7.16135 81.7272 7.22642 81.9314 7.43206C82.1317 7.63376 82.2241 7.93882 82.2241 8.34968ZM70.0169 11.4546C69.7915 11.4546 69.5968 11.3485 69.4523 11.1701C69.3063 10.99 69.2198 10.744 69.2198 10.4954V8.34968C69.2198 7.80167 69.5966 7.49682 70.0169 7.49682H81.1501C81.3904 7.49682 81.5532 7.54951 81.6608 7.6579C81.7723 7.77023 81.8582 7.97546 81.8582 8.34968L81.8582 10.6363C81.8582 10.8641 81.8066 11.0725 81.6966 11.219C81.5936 11.3562 81.4286 11.4546 81.1501 11.4546L70.0169 11.4546Z" fill="white"/>
</svg>
