<svg width="18" height="18" viewBox="0 0 18 18" fill="none" xmlns="http://www.w3.org/2000/svg">
<path d="M5.03533 7.72043C5.10138 7.78702 5.17996 7.83988 5.26654 7.87595C5.35312 7.91202 5.44599 7.93059 5.53978 7.93059C5.63358 7.93059 5.72644 7.91202 5.81302 7.87595C5.89961 7.83988 5.97819 7.78702 6.04424 7.72043C6.11083 7.65438 6.16369 7.5758 6.19976 7.48921C6.23583 7.40263 6.2544 7.30977 6.2544 7.21597C6.2544 7.12218 6.23583 7.02931 6.19976 6.94273C6.16369 6.85615 6.11083 6.77757 6.04424 6.71152L4.62324 5.29052C4.55567 5.22583 4.47599 5.17513 4.38877 5.14131C4.21579 5.07025 4.02177 5.07025 3.84879 5.14131C3.76158 5.17513 3.6819 5.22583 3.61433 5.29052L2.19333 6.71152C2.05954 6.84531 1.98438 7.02677 1.98438 7.21597C1.98438 7.40518 2.05954 7.58664 2.19333 7.72043C2.32712 7.85422 2.50857 7.92938 2.69778 7.92938C2.88699 7.92938 3.06845 7.85422 3.20224 7.72043L3.40828 7.50728V11.1877L3.20224 10.9745C3.06845 10.8407 2.88699 10.7656 2.69778 10.7656C2.50857 10.7656 2.32712 10.8407 2.19333 10.9745C2.05954 11.1083 1.98438 11.2898 1.98438 11.479C1.98438 11.6682 2.05954 11.8496 2.19333 11.9834L3.61433 13.4044C3.6819 13.4691 3.76158 13.5198 3.84879 13.5536C3.93384 13.5912 4.0258 13.6106 4.11878 13.6106C4.21177 13.6106 4.30373 13.5912 4.38877 13.5536C4.47599 13.5198 4.55567 13.4691 4.62324 13.4044L6.04424 11.9834C6.11048 11.9172 6.16303 11.8385 6.19888 11.752C6.23474 11.6654 6.25319 11.5727 6.25319 11.479C6.25319 11.3853 6.23474 11.2925 6.19888 11.206C6.16303 11.1194 6.11048 11.0408 6.04424 10.9745C5.97799 10.9083 5.89935 10.8557 5.81279 10.8199C5.72624 10.784 5.63347 10.7656 5.53978 10.7656C5.4461 10.7656 5.35333 10.784 5.26677 10.8199C5.18022 10.8557 5.10157 10.9083 5.03533 10.9745L4.82928 11.1877V7.50728L5.03533 7.72043ZM8.38178 6.50547H15.4868C15.6752 6.50547 15.8559 6.43062 15.9892 6.29737C16.1224 6.16413 16.1973 5.98341 16.1973 5.79497C16.1973 5.60654 16.1224 5.42582 15.9892 5.29257C15.8559 5.15933 15.6752 5.08447 15.4868 5.08447H8.38178C8.19335 5.08447 8.01263 5.15933 7.87938 5.29257C7.74614 5.42582 7.67128 5.60654 7.67128 5.79497C7.67128 5.98341 7.74614 6.16413 7.87938 6.29737C8.01263 6.43062 8.19335 6.50547 8.38178 6.50547V6.50547ZM15.4868 8.63697H8.38178C8.19335 8.63697 8.01263 8.71183 7.87938 8.84507C7.74614 8.97832 7.67128 9.15904 7.67128 9.34747C7.67128 9.53591 7.74614 9.71663 7.87938 9.84987C8.01263 9.98312 8.19335 10.058 8.38178 10.058H15.4868C15.6752 10.058 15.8559 9.98312 15.9892 9.84987C16.1224 9.71663 16.1973 9.53591 16.1973 9.34747C16.1973 9.15904 16.1224 8.97832 15.9892 8.84507C15.8559 8.71183 15.6752 8.63697 15.4868 8.63697ZM15.4868 12.1895H8.38178C8.19335 12.1895 8.01263 12.2643 7.87938 12.3976C7.74614 12.5308 7.67128 12.7115 7.67128 12.9C7.67128 13.0884 7.74614 13.2691 7.87938 13.4024C8.01263 13.5356 8.19335 13.6105 8.38178 13.6105H15.4868C15.6752 13.6105 15.8559 13.5356 15.9892 13.4024C16.1224 13.2691 16.1973 13.0884 16.1973 12.9C16.1973 12.7115 16.1224 12.5308 15.9892 12.3976C15.8559 12.2643 15.6752 12.1895 15.4868 12.1895Z" fill="white"/>
</svg>
