<svg width="18" height="18" viewBox="0 0 18 18" fill="none" xmlns="http://www.w3.org/2000/svg">
<path d="M14.391 2.23535H4.444C3.87869 2.23535 3.33654 2.45992 2.9368 2.85965C2.53707 3.25939 2.3125 3.80154 2.3125 4.36685V14.3139C2.3125 14.8792 2.53707 15.4213 2.9368 15.8211C3.33654 16.2208 3.87869 16.4454 4.444 16.4454H14.391C14.5079 16.4437 14.6244 16.4318 14.7391 16.4098L14.9523 16.3601H15.002H15.0376L15.3004 16.2606L15.3928 16.2109C15.4639 16.1683 15.542 16.1327 15.6131 16.083C15.7079 16.0132 15.7981 15.9372 15.8831 15.8556L15.9328 15.7917C16.0025 15.721 16.0667 15.645 16.1246 15.5643L16.1886 15.472C16.2382 15.3929 16.281 15.3097 16.3165 15.2233C16.336 15.1892 16.3526 15.1536 16.3662 15.1167C16.4017 15.0315 16.423 14.9391 16.4515 14.8467V14.7402C16.4917 14.6013 16.5156 14.4582 16.5225 14.3139V4.36685C16.5225 3.80154 16.2979 3.25939 15.8982 2.85965C15.4985 2.45992 14.9563 2.23535 14.391 2.23535ZM4.444 15.0244C4.25556 15.0244 4.07485 14.9495 3.9416 14.8163C3.80836 14.683 3.7335 14.5023 3.7335 14.3139V11.2516L6.07105 8.90695C6.1371 8.84035 6.21568 8.7875 6.30226 8.75143C6.38884 8.71535 6.48171 8.69678 6.5755 8.69678C6.6693 8.69678 6.76216 8.71535 6.84874 8.75143C6.93532 8.7875 7.01391 8.84035 7.07996 8.90695L13.1903 15.0244H4.444ZM15.1015 14.3139C15.1008 14.4015 15.084 14.4882 15.0518 14.5696C15.0355 14.6043 15.0165 14.6375 14.9949 14.6691C14.9759 14.6992 14.9545 14.7277 14.931 14.7544L11.1298 10.9532L11.755 10.3279C11.8211 10.2614 11.8997 10.2085 11.9863 10.1724C12.0728 10.1364 12.1657 10.1178 12.2595 10.1178C12.3533 10.1178 12.4462 10.1364 12.5327 10.1724C12.6193 10.2085 12.6979 10.2614 12.764 10.3279V10.3279L15.1015 12.6726V14.3139ZM15.1015 10.6619L13.7658 9.34035C13.3592 8.95455 12.82 8.73947 12.2595 8.73947C11.699 8.73947 11.1598 8.95455 10.7532 9.34035L10.128 9.96559L8.08176 7.91935C7.67516 7.53355 7.13601 7.31847 6.5755 7.31847C6.01499 7.31847 5.47584 7.53355 5.06924 7.91935L3.7335 9.24088V4.36685C3.7335 4.17842 3.80836 3.9977 3.9416 3.86445C4.07485 3.73121 4.25556 3.65635 4.444 3.65635H14.391C14.5794 3.65635 14.7602 3.73121 14.8934 3.86445C15.0266 3.9977 15.1015 4.17842 15.1015 4.36685V10.6619ZM10.4833 5.07735C10.2725 5.07735 10.0664 5.13986 9.89115 5.25696C9.71589 5.37407 9.57929 5.54052 9.49863 5.73526C9.41796 5.93 9.39686 6.14428 9.43798 6.35102C9.4791 6.55776 9.5806 6.74765 9.72965 6.8967C9.8787 7.04575 10.0686 7.14725 10.2753 7.18837C10.4821 7.2295 10.6964 7.20839 10.8911 7.12773C11.0858 7.04706 11.2523 6.91046 11.3694 6.7352C11.4865 6.55994 11.549 6.35389 11.549 6.1431C11.549 5.86045 11.4367 5.58937 11.2369 5.3895C11.037 5.18964 10.7659 5.07735 10.4833 5.07735Z" fill="white"/>
</svg>
