<svg width="18" height="18" viewBox="0 0 18 18" fill="none" xmlns="http://www.w3.org/2000/svg">
<path d="M8.09739 7.33335C8.16344 7.39995 8.24202 7.4528 8.3286 7.48887C8.41518 7.52494 8.50805 7.54352 8.60185 7.54352C8.69564 7.54352 8.78851 7.52494 8.87509 7.48887C8.96167 7.4528 9.04025 7.39995 9.1063 7.33335L12.6588 3.78085C12.7926 3.64706 12.8678 3.4656 12.8678 3.2764C12.8678 3.08719 12.7926 2.90573 12.6588 2.77194C12.525 2.63815 12.3436 2.56299 12.1543 2.56299C11.9651 2.56299 11.7837 2.63815 11.6499 2.77194L8.60185 5.82709L5.5538 2.77194C5.42001 2.63815 5.23855 2.56299 5.04934 2.56299C4.86014 2.56299 4.67868 2.63815 4.54489 2.77194C4.4111 2.90573 4.33594 3.08719 4.33594 3.2764C4.33594 3.4656 4.4111 3.64706 4.54489 3.78085L8.09739 7.33335ZM9.1063 10.5874C9.04025 10.5208 8.96167 10.468 8.87509 10.4319C8.78851 10.3958 8.69564 10.3773 8.60185 10.3773C8.50805 10.3773 8.41518 10.3958 8.3286 10.4319C8.24202 10.468 8.16344 10.5208 8.09739 10.5874L4.54489 14.1399C4.4111 14.2737 4.33594 14.4552 4.33594 14.6444C4.33594 14.8336 4.4111 15.0151 4.54489 15.1489C4.67868 15.2826 4.86014 15.3578 5.04934 15.3578C5.23855 15.3578 5.42001 15.2826 5.5538 15.1489L8.60185 12.0937L11.6499 15.1489C11.7159 15.2154 11.7945 15.2683 11.8811 15.3044C11.9677 15.3404 12.0606 15.359 12.1543 15.359C12.2481 15.359 12.341 15.3404 12.4276 15.3044C12.5142 15.2683 12.5927 15.2154 12.6588 15.1489C12.7254 15.0828 12.7783 15.0042 12.8143 14.9176C12.8504 14.8311 12.869 14.7382 12.869 14.6444C12.869 14.5506 12.8504 14.4577 12.8143 14.3712C12.7783 14.2846 12.7254 14.206 12.6588 14.1399L9.1063 10.5874Z" fill="white"/>
</svg>
