<svg width="18" height="18" viewBox="0 0 18 18" fill="none" xmlns="http://www.w3.org/2000/svg">
<path d="M12.8257 10.6315C12.406 10.6343 11.992 10.73 11.6136 10.9118C11.2353 11.0936 10.9019 11.357 10.6374 11.683L7.01385 10.0134C7.18422 9.49168 7.18422 8.92932 7.01385 8.40763L10.6374 6.73796C11.0649 7.25376 11.6608 7.60198 12.32 7.72118C12.9792 7.84037 13.6593 7.72287 14.2403 7.38942C14.8213 7.05596 15.2659 6.52799 15.4955 5.89868C15.7251 5.26936 15.725 4.57916 15.4953 3.94989C15.2656 3.32062 14.8209 2.79272 14.2399 2.45938C13.6588 2.12603 12.9787 2.00865 12.3195 2.12797C11.6603 2.24728 11.0644 2.59561 10.6371 3.11149C10.2097 3.62737 9.97833 4.27762 9.98374 4.9475C9.98588 5.11676 10.0025 5.28553 10.0335 5.45195L6.28204 7.17847C5.88208 6.78739 5.37561 6.52304 4.82608 6.41854C4.27656 6.31403 3.70841 6.37402 3.19282 6.59098C2.67723 6.80794 2.23713 7.17223 1.92767 7.63821C1.6182 8.10418 1.45312 8.65112 1.45312 9.2105C1.45312 9.76988 1.6182 10.3168 1.92767 10.7828C2.23713 11.2488 2.67723 11.6131 3.19282 11.83C3.70841 12.047 4.27656 12.107 4.82608 12.0025C5.37561 11.898 5.88208 11.6336 6.28204 11.2425L10.0335 12.969C10.0025 13.1355 9.98588 13.3042 9.98374 13.4735C9.98374 14.0356 10.1504 14.5851 10.4627 15.0524C10.775 15.5198 11.2189 15.8841 11.7382 16.0992C12.2575 16.3143 12.8289 16.3706 13.3802 16.2609C13.9315 16.1512 14.4379 15.8806 14.8353 15.4831C15.2328 15.0856 15.5035 14.5792 15.6131 14.0279C15.7228 13.4767 15.6665 12.9052 15.4514 12.3859C15.2363 11.8666 14.872 11.4227 14.4047 11.1105C13.9373 10.7982 13.3878 10.6315 12.8257 10.6315ZM12.8257 3.5265C13.1068 3.5265 13.3815 3.60984 13.6152 3.76598C13.8489 3.92212 14.031 4.14405 14.1386 4.40371C14.2461 4.66336 14.2743 4.94907 14.2194 5.22472C14.1646 5.50037 14.0293 5.75357 13.8305 5.9523C13.6318 6.15103 13.3786 6.28636 13.103 6.34119C12.8273 6.39602 12.5416 6.36788 12.282 6.26033C12.0223 6.15278 11.8004 5.97065 11.6442 5.73696C11.4881 5.50328 11.4047 5.22855 11.4047 4.9475C11.4047 4.57063 11.5545 4.20919 11.8209 3.9427C12.0874 3.67621 12.4489 3.5265 12.8257 3.5265V3.5265ZM4.29974 10.6315C4.01869 10.6315 3.74396 10.5482 3.51028 10.392C3.27659 10.2359 3.09446 10.0139 2.98691 9.75429C2.87936 9.49464 2.85122 9.20892 2.90605 8.93328C2.96088 8.65763 3.09621 8.40443 3.29494 8.2057C3.49367 8.00697 3.74687 7.87163 4.02252 7.8168C4.29817 7.76197 4.58388 7.79011 4.84354 7.89767C5.10319 8.00522 5.32512 8.18735 5.48126 8.42103C5.6374 8.65472 5.72074 8.92945 5.72074 9.2105C5.72074 9.58737 5.57103 9.94881 5.30454 10.2153C5.03805 10.4818 4.67661 10.6315 4.29974 10.6315ZM12.8257 14.8945C12.5447 14.8945 12.27 14.8112 12.0363 14.655C11.8026 14.4989 11.6205 14.2769 11.5129 14.0173C11.4054 13.7576 11.3772 13.4719 11.432 13.1963C11.4869 12.9206 11.6222 12.6674 11.8209 12.4687C12.0197 12.27 12.2729 12.1346 12.5485 12.0798C12.8242 12.025 13.1099 12.0531 13.3695 12.1607C13.6292 12.2682 13.8511 12.4504 14.0073 12.684C14.1634 12.9177 14.2467 13.1925 14.2467 13.4735C14.2467 13.8504 14.097 14.2118 13.8305 14.4783C13.5641 14.7448 13.2026 14.8945 12.8257 14.8945Z" fill="white"/>
</svg>
