<svg width="18" height="18" viewBox="0 0 18 18" fill="none" xmlns="http://www.w3.org/2000/svg">
<g clip-path="url(#clip0_4575_14883)">
<path d="M8.60631 13.724C8.46579 13.724 8.32842 13.7657 8.21158 13.8438C8.09474 13.9218 8.00367 14.0328 7.9499 14.1626C7.89612 14.2924 7.88205 14.4353 7.90947 14.5731C7.93688 14.7109 8.00455 14.8375 8.10391 14.9369C8.20328 15.0363 8.32988 15.1039 8.4677 15.1314C8.60553 15.1588 8.74838 15.1447 8.87821 15.0909C9.00804 15.0372 9.119 14.9461 9.19707 14.8292C9.27514 14.7124 9.31681 14.575 9.31681 14.4345C9.31681 14.2461 9.24196 14.0654 9.10871 13.9321C8.97547 13.7989 8.79475 13.724 8.60631 13.724ZM12.8693 1.64551H4.34331C4.15488 1.64551 3.97416 1.72036 3.84091 1.85361C3.70767 1.98685 3.63281 2.16757 3.63281 2.35601V8.75051C3.63281 9.31582 3.85738 9.85797 4.25711 10.2577C4.65685 10.6574 5.199 10.882 5.76431 10.882H6.47481V12.5659C6.11305 12.9761 5.87733 13.482 5.79595 14.0228C5.71457 14.5637 5.79098 15.1165 6.01601 15.615C6.24104 16.1135 6.60513 16.5365 7.06459 16.8332C7.52406 17.1299 8.05938 17.2877 8.60631 17.2877C9.15325 17.2877 9.68857 17.1299 10.148 16.8332C10.6075 16.5365 10.9716 16.1135 11.1966 15.615C11.4216 15.1165 11.4981 14.5637 11.4167 14.0228C11.3353 13.482 11.0996 12.9761 10.7378 12.5659V10.882H11.4483C12.0136 10.882 12.5558 10.6574 12.9555 10.2577C13.3552 9.85797 13.5798 9.31582 13.5798 8.75051V2.35601C13.5798 2.16757 13.505 1.98685 13.3717 1.85361C13.2385 1.72036 13.0578 1.64551 12.8693 1.64551ZM8.60631 15.8555C8.32041 15.8533 8.04182 15.765 7.80693 15.602C7.57204 15.439 7.39178 15.2089 7.28971 14.9418C7.18765 14.6748 7.16851 14.3831 7.23481 14.105C7.30112 13.8269 7.44977 13.5753 7.66135 13.383C7.73495 13.3165 7.79384 13.2354 7.83422 13.1449C7.8746 13.0543 7.89558 12.9563 7.89581 12.8572V10.882H9.31681V12.8572C9.31705 12.9563 9.33803 13.0543 9.37841 13.1449C9.41879 13.2354 9.47768 13.3165 9.55128 13.383C9.76286 13.5753 9.91151 13.8269 9.97781 14.105C10.0441 14.3831 10.025 14.6748 9.92291 14.9418C9.82084 15.2089 9.64059 15.439 9.4057 15.602C9.17081 15.765 8.89221 15.8533 8.60631 15.8555ZM12.1588 8.75051C12.1588 8.93895 12.084 9.11966 11.9507 9.25291C11.8175 9.38615 11.6368 9.46101 11.4483 9.46101H5.76431C5.57588 9.46101 5.39516 9.38615 5.26191 9.25291C5.12867 9.11966 5.05381 8.93895 5.05381 8.75051V8.04001H12.1588V8.75051ZM12.1588 6.61901H5.05381V3.06651H12.1588V6.61901Z" fill="white"/>
</g>
<defs>
<clipPath id="clip0_4575_14883">
<rect width="17.052" height="17.052" fill="white" transform="translate(0.078125 0.935059)"/>
</clipPath>
</defs>
</svg>
