<svg width="18" height="18" viewBox="0 0 18 18" fill="none" xmlns="http://www.w3.org/2000/svg">
<path d="M11.7825 6.51458C11.2907 6.51458 10.8099 6.66043 10.4009 6.93368C9.99199 7.20692 9.67326 7.5953 9.48504 8.04969C9.29683 8.50409 9.24758 9.00409 9.34353 9.48647C9.43949 9.96886 9.67633 10.412 10.0241 10.7597C10.3719 11.1075 10.815 11.3443 11.2974 11.4403C11.7797 11.5363 12.2797 11.487 12.7341 11.2988C13.1885 11.1106 13.5769 10.7918 13.8502 10.3829C14.1234 9.97395 14.2693 9.49317 14.2693 9.00133C14.2693 8.34181 14.0073 7.70929 13.5409 7.24293C13.0745 6.77658 12.442 6.51458 11.7825 6.51458ZM11.7825 10.0671C11.5717 10.0671 11.3657 10.0046 11.1904 9.88747C11.0151 9.77037 10.8785 9.60392 10.7979 9.40918C10.7172 9.21444 10.6961 9.00015 10.7372 8.79342C10.7784 8.58668 10.8799 8.39678 11.0289 8.24773C11.178 8.09869 11.3678 7.99718 11.5746 7.95606C11.7813 7.91494 11.9956 7.93604 12.1903 8.01671C12.3851 8.09737 12.5515 8.23397 12.6686 8.40923C12.7857 8.5845 12.8483 8.79055 12.8483 9.00133C12.8483 9.28399 12.736 9.55507 12.5361 9.75493C12.3362 9.9548 12.0652 10.0671 11.7825 10.0671ZM11.7825 4.02783H6.0985C4.77945 4.02783 3.51442 4.55182 2.5817 5.48454C1.64899 6.41725 1.125 7.68228 1.125 9.00133C1.125 10.3204 1.64899 11.5854 2.5817 12.5181C3.51442 13.4508 4.77945 13.9748 6.0985 13.9748H11.7825C13.1016 13.9748 14.3666 13.4508 15.2993 12.5181C16.232 11.5854 16.756 10.3204 16.756 9.00133C16.756 7.68228 16.232 6.41725 15.2993 5.48454C14.3666 4.55182 13.1016 4.02783 11.7825 4.02783V4.02783ZM11.7825 12.5538H6.0985C5.15632 12.5538 4.25273 12.1796 3.5865 11.5133C2.92028 10.8471 2.546 9.94351 2.546 9.00133C2.546 8.05915 2.92028 7.15556 3.5865 6.48934C4.25273 5.82311 5.15632 5.44883 6.0985 5.44883H11.7825C12.7247 5.44883 13.6283 5.82311 14.2945 6.48934C14.9607 7.15556 15.335 8.05915 15.335 9.00133C15.335 9.94351 14.9607 10.8471 14.2945 11.5133C13.6283 12.1796 12.7247 12.5538 11.7825 12.5538Z" fill="white"/>
</svg>
