<svg width="18" height="18" viewBox="0 0 18 18" fill="none" xmlns="http://www.w3.org/2000/svg">
<path d="M5.81032 10.5024C5.71701 10.5023 5.6246 10.5207 5.53839 10.5564C5.45218 10.5921 5.37384 10.6444 5.30786 10.7104C5.24188 10.7764 5.18955 10.8547 5.15385 10.9409C5.11815 11.0271 5.09979 11.1195 5.09982 11.2129V12.4792C4.18402 11.4435 3.67861 10.1086 3.67882 8.7261C3.67869 8.51715 3.6912 8.30839 3.71628 8.10095C3.72778 8.00819 3.72087 7.91407 3.69593 7.82398C3.67099 7.73389 3.62852 7.64962 3.57095 7.57597C3.51338 7.50233 3.44185 7.44077 3.36045 7.39483C3.27905 7.34888 3.18938 7.31945 3.09658 7.30822C3.00378 7.297 2.90968 7.30419 2.81967 7.32939C2.72966 7.3546 2.64551 7.39732 2.57204 7.4551C2.49857 7.51289 2.43722 7.58461 2.39151 7.66614C2.34581 7.74768 2.31664 7.83744 2.30569 7.93027C2.27351 8.19432 2.25752 8.4601 2.25782 8.7261C2.25878 10.4215 2.8681 12.0602 3.975 13.3444H2.96832C2.77988 13.3444 2.59916 13.4192 2.46592 13.5525C2.33267 13.6857 2.25782 13.8664 2.25782 14.0549C2.25782 14.2433 2.33267 14.424 2.46592 14.5573C2.59916 14.6905 2.77988 14.7654 2.96832 14.7654H5.81032C5.92144 14.764 6.03062 14.736 6.12876 14.6839C6.22691 14.6318 6.31117 14.5569 6.37455 14.4657C6.38283 14.4547 6.39341 14.4466 6.40113 14.4351C6.40586 14.428 6.40599 14.4197 6.41041 14.4125C6.44427 14.3553 6.46964 14.2934 6.48572 14.2289C6.49624 14.1927 6.50371 14.1557 6.50805 14.1182C6.51009 14.0962 6.52084 14.0773 6.52084 14.0549V11.2129C6.52087 11.1196 6.50251 11.0272 6.46681 10.9409C6.43111 10.8547 6.37878 10.7764 6.31279 10.7104C6.24681 10.6444 6.16847 10.5921 6.08225 10.5564C5.99604 10.5207 5.90363 10.5023 5.81032 10.5024V10.5024ZM6.87607 4.4631H5.60962C6.64539 3.54735 7.98027 3.04194 9.36282 3.0421C9.57166 3.0416 9.78034 3.05412 9.98762 3.07957C10.0803 3.09083 10.1743 3.08372 10.2642 3.05865C10.3541 3.03359 10.4382 2.99106 10.5117 2.93349C10.5852 2.87592 10.6466 2.80444 10.6925 2.72314C10.7383 2.64183 10.7677 2.55229 10.779 2.45962C10.7902 2.36695 10.7831 2.27298 10.758 2.18306C10.733 2.09314 10.6904 2.00904 10.6329 1.93556C10.5753 1.86208 10.5038 1.80065 10.4225 1.75479C10.3412 1.70893 10.2517 1.67954 10.159 1.66829C9.89481 1.63641 9.62892 1.62066 9.36282 1.6211C7.66747 1.62202 6.02873 2.2313 4.74457 3.33816V2.3316C4.74457 2.14317 4.66971 1.96245 4.53647 1.8292C4.40322 1.69596 4.2225 1.6211 4.03407 1.6211C3.84563 1.6211 3.66491 1.69596 3.53167 1.8292C3.39842 1.96245 3.32357 2.14317 3.32357 2.3316V5.1736C3.32804 5.22056 3.3374 5.26693 3.3515 5.31195L3.35167 5.31281C3.36892 5.40024 3.40298 5.48349 3.45197 5.55793L3.46008 5.56994C3.50703 5.63822 3.56587 5.69751 3.6338 5.74497C3.64157 5.75065 3.64542 5.75936 3.65349 5.76478C3.66364 5.7715 3.67513 5.77364 3.6855 5.77979C3.72579 5.80403 3.76849 5.82403 3.8129 5.83947C3.87293 5.86035 3.93551 5.87298 3.99894 5.87702C4.01125 5.87767 4.02162 5.88413 4.03407 5.88413H6.87607C7.0645 5.88413 7.24522 5.80927 7.37847 5.67602C7.51171 5.54278 7.58657 5.36206 7.58657 5.17362C7.58657 4.98519 7.51171 4.80447 7.37847 4.67123C7.24522 4.53798 7.0645 4.46312 6.87607 4.46312V4.4631ZM15.374 12.1394C15.3567 12.0519 15.3227 11.9687 15.2736 11.8942L15.2656 11.8823C15.2186 11.814 15.1597 11.7547 15.0917 11.7072C15.084 11.7016 15.0802 11.6928 15.0721 11.6874C15.0645 11.6823 15.0554 11.6822 15.0476 11.6774C14.9574 11.6273 14.8587 11.5946 14.7564 11.5812C14.734 11.579 14.7146 11.5681 14.6916 11.5681H11.8496C11.6611 11.5681 11.4804 11.6429 11.3472 11.7762C11.2139 11.9094 11.1391 12.0901 11.1391 12.2786C11.1391 12.467 11.2139 12.6477 11.3472 12.781C11.4804 12.9142 11.6611 12.9891 11.8496 12.9891H13.116C12.0802 13.9048 10.7454 14.4102 9.36282 14.4101C9.15396 14.4103 8.94528 14.3976 8.738 14.3719C8.55086 14.3492 8.36234 14.4017 8.21394 14.518C8.06554 14.6343 7.9694 14.8047 7.94667 14.9919C7.92394 15.179 7.97649 15.3675 8.09276 15.5159C8.20902 15.6643 8.37948 15.7605 8.56662 15.7832C8.83083 15.8151 9.0967 15.831 9.36282 15.8311C11.0582 15.8301 12.6969 15.2209 13.9811 14.114V15.1206C13.9811 15.309 14.0559 15.4898 14.1892 15.623C14.3224 15.7562 14.5031 15.8311 14.6916 15.8311C14.88 15.8311 15.0607 15.7562 15.194 15.623C15.3272 15.4898 15.4021 15.309 15.4021 15.1206V12.2786C15.3976 12.2316 15.3882 12.1853 15.3741 12.1403L15.374 12.1394ZM15.7573 4.10785C15.9458 4.10785 16.1265 4.033 16.2597 3.89975C16.393 3.76651 16.4678 3.58579 16.4678 3.39735C16.4678 3.20892 16.393 3.0282 16.2597 2.89495C16.1265 2.76171 15.9458 2.68685 15.7573 2.68685H12.9153C12.8691 2.69131 12.8234 2.70053 12.779 2.71435L12.7743 2.7153C12.688 2.73256 12.6058 2.76622 12.5322 2.81444L12.5183 2.82384C12.4503 2.87072 12.3913 2.92938 12.344 2.99705C12.3384 3.00472 12.3298 3.0085 12.3245 3.01643C12.3194 3.02406 12.3193 3.03309 12.3145 3.04085C12.2638 3.1315 12.2309 3.23102 12.2176 3.33404C12.2156 3.35599 12.2048 3.37489 12.2048 3.39735V6.23935C12.2048 6.42779 12.2797 6.60851 12.4129 6.74175C12.5462 6.875 12.7269 6.94985 12.9153 6.94985C13.1038 6.94985 13.2845 6.875 13.4177 6.74175C13.551 6.60851 13.6258 6.42779 13.6258 6.23935V4.97262C14.5415 6.00851 15.0469 7.34346 15.0468 8.72607C15.047 8.93502 15.0344 9.14379 15.0093 9.35123C14.9868 9.53825 15.0394 9.72656 15.1556 9.87485C15.2717 10.0231 15.442 10.1193 15.629 10.1422C15.6577 10.1456 15.6867 10.1472 15.7157 10.1471C15.8892 10.1468 16.0566 10.0831 16.1863 9.96797C16.316 9.85281 16.3992 9.69414 16.4199 9.52191C16.4521 9.25787 16.4681 8.9921 16.4678 8.7261C16.4668 7.03072 15.8575 5.39198 14.7505 4.10785H15.7573Z" fill="white"/>
</svg>
