<svg width="15" height="8" viewBox="0 0 15 8" fill="none" xmlns="http://www.w3.org/2000/svg">
<path d="M14.0906 1.06764C13.8064 0.783442 13.3801 0.783442 13.0959 1.06764L8.61975 5.54379L5.5646 2.48864C5.4225 2.34654 5.2804 2.27549 5.06725 2.27549C4.8541 2.27549 4.712 2.34654 4.5699 2.48864L0.3069 6.75164C0.1648 6.89374 0.09375 7.03584 0.09375 7.24899C0.09375 7.67529 0.37795 7.95949 0.80425 7.95949C1.0174 7.95949 1.1595 7.88844 1.3016 7.74634L5.06725 3.98069L8.1224 7.03584C8.19345 7.10689 8.2645 7.17794 8.33555 7.17794C8.4066 7.24899 8.5487 7.24899 8.61975 7.24899C8.76185 7.24899 8.975 7.17794 9.04605 7.03584C9.04605 7.03584 9.04605 7.03584 9.1171 7.03584L14.0906 2.06234C14.3748 1.77814 14.3748 1.35184 14.0906 1.06764Z" fill="white"/>
</svg>
