<svg width="18" height="18" viewBox="0 0 18 18" fill="none" xmlns="http://www.w3.org/2000/svg">
<path d="M14.9239 3.99988L15.4283 3.50253C15.5621 3.36874 15.6373 3.18728 15.6373 2.99808C15.6373 2.80887 15.5621 2.62741 15.4283 2.49362C15.2945 2.35983 15.1131 2.28467 14.9239 2.28467C14.7347 2.28467 14.5532 2.35983 14.4194 2.49362L13.4247 3.49543L11.414 5.50614L6.93075 9.98229C6.19612 9.49761 5.30773 9.30289 4.43772 9.43584C3.56771 9.56879 2.77803 10.02 2.22169 10.7019C1.66534 11.3839 1.38195 12.2481 1.42642 13.1271C1.47088 14.0061 1.84005 14.8372 2.46238 15.4596C3.08471 16.0819 3.9159 16.4511 4.79488 16.4955C5.67387 16.54 6.53807 16.2566 7.22003 15.7003C7.90199 15.1439 8.35316 14.3542 8.48611 13.4842C8.61906 12.6142 8.42434 11.7258 7.93966 10.9912L11.9114 7.0124L13.4176 8.52577C13.4839 8.59155 13.5624 8.64363 13.6488 8.67905C13.7352 8.71448 13.8277 8.73254 13.921 8.73221C14.0144 8.73188 14.1068 8.71316 14.1929 8.67713C14.279 8.6411 14.3572 8.58846 14.423 8.52221C14.4888 8.45597 14.5408 8.37741 14.5763 8.29104C14.6117 8.20466 14.6297 8.11215 14.6294 8.0188C14.6291 7.92544 14.6104 7.83307 14.5743 7.74694C14.5383 7.66082 14.4857 7.58264 14.4194 7.51686L12.9132 6.0106L13.9221 5.00879L14.4194 5.50614C14.4852 5.57239 14.5634 5.62503 14.6495 5.66106C14.7356 5.69709 14.828 5.7158 14.9214 5.71613C15.0147 5.71646 15.1072 5.6984 15.1936 5.66298C15.28 5.62756 15.3585 5.57547 15.4248 5.50969C15.491 5.44391 15.5437 5.36573 15.5797 5.27961C15.6157 5.19348 15.6344 5.10111 15.6348 5.00775C15.6351 4.91439 15.617 4.82189 15.5816 4.73551C15.5462 4.64914 15.4941 4.57058 15.4283 4.50434L14.9239 3.99988ZM4.97687 15.0766C4.5553 15.0766 4.1432 14.9516 3.79267 14.7174C3.44215 14.4831 3.16895 14.1502 3.00762 13.7608C2.84629 13.3713 2.80408 12.9427 2.88633 12.5292C2.96857 12.1158 3.17158 11.736 3.46967 11.4379C3.76777 11.1398 4.14757 10.9368 4.56104 10.8545C4.97451 10.7723 5.40308 10.8145 5.79256 10.9758C6.18204 11.1372 6.51494 11.4104 6.74915 11.7609C6.98336 12.1114 7.10837 12.5235 7.10837 12.9451C7.10837 13.5104 6.8838 14.0525 6.48407 14.4523C6.08434 14.852 5.54218 15.0766 4.97687 15.0766Z" fill="white"/>
</svg>
