<svg width="18" height="18" viewBox="0 0 18 18" fill="none" xmlns="http://www.w3.org/2000/svg">
<path d="M6.88374 6.18565H12.2764C12.4649 6.18565 12.6456 6.11079 12.7788 5.97755C12.9121 5.8443 12.9869 5.66358 12.9869 5.47515C12.9869 5.28671 12.9121 5.10599 12.7788 4.97275C12.6456 4.8395 12.4649 4.76465 12.2764 4.76465H5.17144C5.07859 4.76577 4.98687 4.78508 4.90145 4.82149C4.72784 4.89359 4.58988 5.03155 4.51778 5.20516C4.48137 5.29058 4.46206 5.3823 4.46094 5.47515V12.5801C4.46094 12.7686 4.53579 12.9493 4.66904 13.0825C4.80228 13.2158 4.983 13.2906 5.17144 13.2906C5.35987 13.2906 5.54059 13.2158 5.67384 13.0825C5.80708 12.9493 5.88194 12.7686 5.88194 12.5801V7.18745L11.772 13.0846C11.838 13.1512 11.9166 13.2041 12.0032 13.2401C12.0898 13.2762 12.1826 13.2948 12.2764 13.2948C12.3702 13.2948 12.4631 13.2762 12.5497 13.2401C12.6363 13.2041 12.7148 13.1512 12.7809 13.0846C12.8475 13.0186 12.9003 12.94 12.9364 12.8534C12.9725 12.7668 12.9911 12.6739 12.9911 12.5801C12.9911 12.4864 12.9725 12.3935 12.9364 12.3069C12.9003 12.2203 12.8475 12.1417 12.7809 12.0757L6.88374 6.18565Z" fill="white"/>
</svg>
