<svg width="18" height="18" viewBox="0 0 18 18" fill="none" xmlns="http://www.w3.org/2000/svg">
<path d="M15.565 11.8136L12.3536 8.60927C12.4208 8.282 12.4541 7.94867 12.453 7.61457C12.4528 6.69849 12.2216 5.79725 11.7809 4.99416C11.3401 4.19107 10.704 3.51205 9.93141 3.01987C9.15878 2.52768 8.27454 2.2382 7.36043 2.17821C6.44631 2.11821 5.53182 2.28962 4.70149 2.67659C4.59629 2.72465 4.50441 2.79766 4.43384 2.88929C4.36326 2.98091 4.31612 3.08838 4.2965 3.20236C4.27697 3.3149 4.28485 3.43048 4.31948 3.53932C4.35411 3.64816 4.41447 3.74705 4.49544 3.8276L7.58612 6.91117L6.30722 8.19007L3.22365 5.0994C3.14242 5.01968 3.04322 4.96065 2.93441 4.92726C2.82561 4.89388 2.71037 4.88712 2.59841 4.90756C2.48514 4.92646 2.37814 4.97253 2.28658 5.04182C2.19501 5.11112 2.1216 5.20157 2.07264 5.30544C1.68437 6.13851 1.51311 7.05624 1.57479 7.97328C1.63646 8.89031 1.92908 9.77684 2.42541 10.5504C2.92174 11.324 3.60566 11.9594 4.41355 12.3977C5.22144 12.836 6.12705 13.0628 7.04614 13.057C7.38024 13.0581 7.71357 13.0247 8.04084 12.9575L11.2452 16.169C11.3112 16.2356 11.3898 16.2884 11.4764 16.3245C11.563 16.3606 11.6559 16.3792 11.7497 16.3792C11.8434 16.3792 11.9363 16.3606 12.0229 16.3245C12.1095 16.2884 12.1881 16.2356 12.2541 16.169C12.3207 16.1029 12.3736 16.0244 12.4096 15.9378C12.4457 15.8512 12.4643 15.7583 12.4643 15.6645C12.4643 15.5707 12.4457 15.4779 12.4096 15.3913C12.3736 15.3047 12.3207 15.2261 12.2541 15.1601L8.77266 11.6786C8.68565 11.5922 8.57777 11.5298 8.45949 11.4974C8.34121 11.465 8.21656 11.4638 8.09768 11.4939C7.75463 11.5858 7.40127 11.6335 7.04614 11.636C6.51472 11.6407 5.98763 11.5402 5.49522 11.3403C5.00281 11.1404 4.55482 10.845 4.17706 10.4712C3.7993 10.0974 3.49923 9.65256 3.29414 9.16229C3.08905 8.67202 2.983 8.14601 2.98208 7.61457C2.98116 7.37656 3.00017 7.1389 3.03892 6.90407L5.82408 9.69634C5.89013 9.76293 5.96871 9.81579 6.05529 9.85186C6.14187 9.88793 6.23474 9.9065 6.32853 9.9065C6.42233 9.9065 6.5152 9.88793 6.60178 9.85186C6.68836 9.81579 6.76694 9.76293 6.83299 9.69634L9.09238 7.41563C9.22044 7.28314 9.29202 7.10609 9.29202 6.92183C9.29202 6.73757 9.22044 6.56052 9.09238 6.42803L6.32853 3.64287C6.56341 3.60452 6.80105 3.5855 7.03904 3.58603C8.10624 3.58792 9.12909 4.01318 9.88305 4.76847C10.637 5.52377 11.0605 6.54736 11.0605 7.61457C11.058 7.9697 11.0102 8.32306 10.9184 8.66611C10.8883 8.78499 10.8895 8.90964 10.9219 9.02792C10.9542 9.1462 11.0167 9.25408 11.1031 9.34109L14.5845 12.8225C14.7183 12.9563 14.8998 13.0315 15.089 13.0315C15.2782 13.0315 15.4597 12.9563 15.5935 12.8225C15.7272 12.6887 15.8024 12.5073 15.8024 12.3181C15.8024 12.1289 15.7272 11.9474 15.5935 11.8136H15.565Z" fill="white"/>
</svg>
