<svg width="18" height="18" viewBox="0 0 18 18" fill="none" xmlns="http://www.w3.org/2000/svg">
<path d="M9.13051 11.4653L6.37377 14.222C6.04001 14.5441 5.59426 14.7242 5.1304 14.7242C4.66654 14.7242 4.22079 14.5441 3.88702 14.222C3.72333 14.059 3.59344 13.8652 3.50481 13.6518C3.41618 13.4385 3.37056 13.2097 3.37056 12.9786C3.37056 12.7476 3.41618 12.5188 3.50481 12.3055C3.59344 12.0921 3.72333 11.8983 3.88702 11.7353L6.64376 8.97852C6.77755 8.84473 6.85272 8.66327 6.85272 8.47407C6.85272 8.28486 6.77755 8.1034 6.64376 7.96961C6.50997 7.83582 6.32852 7.76066 6.13931 7.76066C5.9501 7.76066 5.76864 7.83582 5.63485 7.96961L2.87811 10.7335C2.32276 11.3379 2.0224 12.1336 2.03978 12.9543C2.05715 13.775 2.39091 14.5572 2.97135 15.1377C3.5518 15.7181 4.33404 16.0519 5.15473 16.0693C5.97542 16.0866 6.77109 15.7863 7.37558 15.2309L10.1394 12.4742C10.2732 12.3404 10.3484 12.1589 10.3484 11.9697C10.3484 11.7805 10.2732 11.5991 10.1394 11.4653C10.0056 11.3315 9.82418 11.2563 9.63497 11.2563C9.44576 11.2563 9.2643 11.3315 9.13051 11.4653V11.4653ZM15.2266 2.88243C14.6289 2.28846 13.8205 1.95508 12.9779 1.95508C12.1352 1.95508 11.3268 2.28846 10.7291 2.88243L7.96529 5.63917C7.89905 5.70542 7.8465 5.78406 7.81065 5.87062C7.7748 5.95717 7.75634 6.04994 7.75634 6.14363C7.75634 6.23731 7.7748 6.33008 7.81065 6.41664C7.8465 6.50319 7.89905 6.58184 7.96529 6.64808C8.03154 6.71433 8.11019 6.76688 8.19674 6.80273C8.2833 6.83858 8.37606 6.85703 8.46975 6.85703C8.56344 6.85703 8.6562 6.83858 8.74276 6.80273C8.82931 6.76688 8.90796 6.71433 8.97421 6.64808L11.7309 3.89134C12.0647 3.56922 12.5105 3.3892 12.9743 3.3892C13.4382 3.3892 13.8839 3.56922 14.2177 3.89134C14.3814 4.05439 14.5113 4.24816 14.5999 4.46153C14.6885 4.6749 14.7342 4.90367 14.7342 5.13472C14.7342 5.36576 14.6885 5.59453 14.5999 5.8079C14.5113 6.02127 14.3814 6.21504 14.2177 6.37809L11.461 9.13483C11.3944 9.20088 11.3415 9.27946 11.3054 9.36605C11.2694 9.45263 11.2508 9.54549 11.2508 9.63929C11.2508 9.73308 11.2694 9.82595 11.3054 9.91253C11.3415 9.99911 11.3944 10.0777 11.461 10.1437C11.527 10.2103 11.6056 10.2632 11.6922 10.2993C11.7787 10.3353 11.8716 10.3539 11.9654 10.3539C12.0592 10.3539 12.1521 10.3353 12.2387 10.2993C12.3252 10.2632 12.4038 10.2103 12.4699 10.1437L15.2266 7.3799C15.8206 6.78221 16.154 5.9738 16.154 5.13116C16.154 4.28853 15.8206 3.48012 15.2266 2.88243V2.88243ZM6.80007 11.309C6.86646 11.3748 6.9452 11.4269 7.03176 11.4623C7.11833 11.4976 7.21102 11.5155 7.30453 11.515C7.39804 11.5155 7.49073 11.4976 7.57729 11.4623C7.66386 11.4269 7.7426 11.3748 7.80898 11.309L11.3046 7.8133C11.4384 7.67951 11.5136 7.49805 11.5136 7.30885C11.5136 7.11964 11.4384 6.93818 11.3046 6.80439C11.1709 6.6706 10.9894 6.59544 10.8002 6.59544C10.611 6.59544 10.4295 6.6706 10.2957 6.80439L6.80007 10.3001C6.73348 10.3661 6.68062 10.4447 6.64455 10.5313C6.60848 10.6178 6.58991 10.7107 6.58991 10.8045C6.58991 10.8983 6.60848 10.9912 6.64455 11.0777C6.68062 11.1643 6.73348 11.2429 6.80007 11.309Z" fill="white"/>
</svg>
