<svg width="18" height="18" viewBox="0 0 18 18" fill="none" xmlns="http://www.w3.org/2000/svg">
<path d="M13.6966 11.358H12.9861V4.96353C12.9861 4.7751 12.9112 4.59438 12.778 4.46113C12.6447 4.32789 12.464 4.25303 12.2756 4.25303H5.88106V3.54253C5.88106 3.3541 5.80621 3.17338 5.67296 3.04013C5.53972 2.90689 5.359 2.83203 5.17056 2.83203C4.98213 2.83203 4.80141 2.90689 4.66816 3.04013C4.53492 3.17338 4.46006 3.3541 4.46006 3.54253V4.25303H3.74956C3.56113 4.25303 3.38041 4.32789 3.24716 4.46113C3.11392 4.59438 3.03906 4.7751 3.03906 4.96353C3.03906 5.15197 3.11392 5.33269 3.24716 5.46593C3.38041 5.59918 3.56113 5.67403 3.74956 5.67403H4.46006V12.0685C4.46006 12.257 4.53492 12.4377 4.66816 12.5709C4.80141 12.7042 4.98213 12.779 5.17056 12.779H11.5651V13.4895C11.5651 13.678 11.6399 13.8587 11.7732 13.9919C11.9064 14.1252 12.0871 14.2 12.2756 14.2C12.464 14.2 12.6447 14.1252 12.778 13.9919C12.9112 13.8587 12.9861 13.678 12.9861 13.4895V12.779H13.6966C13.885 12.779 14.0657 12.7042 14.199 12.5709C14.3322 12.4377 14.4071 12.257 14.4071 12.0685C14.4071 11.8801 14.3322 11.6994 14.199 11.5661C14.0657 11.4329 13.885 11.358 13.6966 11.358ZM11.5651 11.358H5.88106V5.67403H11.5651V11.358Z" fill="white"/>
</svg>
