<svg width="18" height="18" viewBox="0 0 18 18" fill="none" xmlns="http://www.w3.org/2000/svg">
<path d="M11.3127 9.81453C12.0093 9.2665 12.5177 8.51497 12.7673 7.66452C13.0168 6.81406 12.9951 5.90697 12.7051 5.06943C12.4151 4.2319 11.8713 3.50557 11.1493 2.9915C10.4273 2.47742 9.56305 2.20117 8.67674 2.20117C7.79043 2.20117 6.92615 2.47742 6.20415 2.9915C5.48215 3.50557 4.93833 4.2319 4.64835 5.06943C4.35838 5.90697 4.33666 6.81406 4.58622 7.66452C4.83578 8.51497 5.34422 9.2665 6.04078 9.81453C4.8472 10.2927 3.80575 11.0859 3.02748 12.1094C2.2492 13.1329 1.76326 14.3485 1.62147 15.6264C1.61121 15.7197 1.61942 15.8141 1.64565 15.9043C1.67187 15.9944 1.71559 16.0785 1.77431 16.1517C1.8929 16.2996 2.06538 16.3944 2.25382 16.4151C2.44225 16.4358 2.63121 16.3808 2.77911 16.2622C2.92701 16.1437 3.02175 15.9712 3.04247 15.7827C3.19849 14.3938 3.86075 13.1111 4.90272 12.1796C5.94469 11.2482 7.29332 10.7332 8.69095 10.7332C10.0886 10.7332 11.4372 11.2482 12.4792 12.1796C13.5212 13.1111 14.1834 14.3938 14.3394 15.7827C14.3587 15.9573 14.442 16.1186 14.5733 16.2353C14.7045 16.3521 14.8743 16.4161 15.0499 16.4151H15.1281C15.3143 16.3936 15.4846 16.2995 15.6017 16.1531C15.7188 16.0067 15.7733 15.8199 15.7533 15.6335C15.6109 14.3519 15.1223 13.1333 14.34 12.1082C13.5578 11.0831 12.5112 10.2902 11.3127 9.81453V9.81453ZM8.67674 9.31008C8.11465 9.31008 7.56517 9.1434 7.09781 8.83111C6.63044 8.51883 6.26618 8.07497 6.05107 7.55566C5.83597 7.03636 5.77969 6.46492 5.88935 5.91363C5.99901 5.36234 6.26968 4.85594 6.66714 4.45848C7.0646 4.06102 7.571 3.79034 8.12229 3.68069C8.67359 3.57103 9.24502 3.62731 9.76433 3.84241C10.2836 4.05752 10.7275 4.42178 11.0398 4.88915C11.3521 5.35651 11.5187 5.90598 11.5187 6.46808C11.5187 7.22182 11.2193 7.9447 10.6863 8.47768C10.1534 9.01065 9.43049 9.31008 8.67674 9.31008Z" fill="white"/>
</svg>
