<svg width="35" height="23" viewBox="0 0 35 23" fill="none" xmlns="http://www.w3.org/2000/svg">
<path fill-rule="evenodd" clip-rule="evenodd" d="M20.4048 0.997652C19.7529 1.54627 19.2193 2.08837 19.2193 2.20237C19.2193 2.31638 21.0891 3.96478 23.3748 5.86586C25.6606 7.7667 27.5724 9.42209 27.6234 9.5447C27.6814 9.68383 22.6626 9.78993 14.241 9.82762L0.765625 9.88811L0.765625 11.5167L0.765625 13.1454L14.241 13.2059C22.5446 13.2431 27.6806 13.3506 27.6234 13.486C27.5724 13.607 25.6606 15.2675 23.3748 17.1758C21.0891 19.0843 19.2193 20.7425 19.2193 20.8607C19.2193 21.2729 21.6932 23.0775 22.1487 22.9974C22.4012 22.9532 25.4628 20.3642 28.9524 17.2439C34.578 12.2136 35.2559 11.5249 34.9353 11.1638C33.7317 9.80784 22.3953 0 22.0318 0C21.789 0 21.057 0.449036 20.4048 0.997652Z" fill="#A4A6A9"/>
</svg>
