<svg width="18" height="12" viewBox="0 0 18 12" fill="none" xmlns="http://www.w3.org/2000/svg">
<path d="M8.98794 1.83997C6.70211 1.83384 4.88553 3.70283 4.88553 6.0107C4.88553 8.29839 6.70839 10.1707 8.98124 10.1707C11.2522 10.1707 13.0823 8.30569 13.0823 6.01606C13.0823 3.70884 11.2669 1.8407 8.98794 1.83997ZM8.98794 1.83997L8.9866 2.33997V1.83997C8.98705 1.83997 8.9875 1.83997 8.98794 1.83997ZM4.811 2.58722L4.81183 2.58672C7.57688 0.930733 10.3391 0.951488 13.1548 2.50952L13.155 2.50967C14.4698 3.23613 15.5978 4.23048 16.6629 5.34295C16.8784 5.56912 17.0907 5.79904 17.3063 6.03319C15.8705 7.45872 14.4728 8.78455 12.7309 9.66975C9.86437 11.1258 7.0994 10.9621 4.38864 9.24311L4.38812 9.24278C3.44311 8.64512 2.61638 7.89333 1.78625 7.07916L1.78627 7.07913L1.78166 7.07472C1.41905 6.72805 1.07369 6.36841 0.711833 5.99158C0.708816 5.98844 0.705797 5.9853 0.702778 5.98216C1.99719 4.70853 3.28372 3.49789 4.811 2.58722Z" stroke="white"/>
<path d="M5.38574 6.0096C5.38574 3.96792 6.988 2.33887 8.98681 2.33887C10.9803 2.33887 12.5825 3.97864 12.5825 6.01496C12.5825 8.03521 10.9749 9.66962 8.98145 9.66962C6.99336 9.66426 5.38574 8.02985 5.38574 6.0096ZM11.0553 5.75774C10.3319 6.09534 9.81742 6.05783 9.378 5.62913C8.92787 5.19508 8.89571 4.69671 9.24939 3.88754C8.50453 3.71606 7.59354 4.17156 7.1702 4.92714C6.69863 5.7631 6.8326 6.81877 7.50244 7.50469C8.15085 8.16917 9.15293 8.31922 9.97818 7.8798C10.7338 7.4779 11.216 6.53476 11.0553 5.75774Z" fill="#2A2A2A"/>
<path d="M11.0562 5.75832C11.217 6.52998 10.7401 7.47848 9.97377 7.88574C9.14853 8.32516 8.1518 8.17511 7.49804 7.51063C6.82819 6.82471 6.68887 5.76904 7.16579 4.93308C7.59449 4.1775 8.50548 3.722 9.24498 3.89348C8.89131 4.70265 8.92346 5.20101 9.37359 5.63507C9.81301 6.05841 10.3274 6.09592 11.0562 5.75832Z" fill="white"/>
</svg>
