<svg style="width:0; height:0; visibility: hidden;" xmlns="http://www.w3.org/2000/svg">
	<symbol id="svg-footer-logo" viewBox="0 0 456 71">
		<g>
			<path
				d="M74.8247 0.554543C75.8141 1.08028 75.8973 1.77832 75.8896 9.50026C75.8846 14.1069 75.6443 18.2478 75.3552 18.702C74.9024 19.4127 71.2213 19.5503 48.8928 19.6912C31.4397 19.8013 22.7206 20.0485 22.2373 20.4471C21.32 21.2018 21.3034 24.8159 22.2118 26.0083C22.8316 26.8219 25.1427 26.9359 43.9914 27.0785C63.9588 27.2293 65.2284 27.2992 67.9252 28.3975C72.179 30.1294 74.4397 32.1084 76.5133 35.9168L78.3805 39.3459L78.5753 48.4293C78.7512 56.6125 78.6541 57.8192 77.5987 60.607C76.1432 64.4495 73.2999 67.4151 69.2763 69.2874L66.1872 70.7247L34.5582 70.8816C17.1622 70.9675 2.36757 70.9009 1.68061 70.7335C0.450408 70.433 0.432096 70.2975 0.432096 61.6172V52.8058L1.85541 52.269C2.70828 51.9475 13.9444 51.7323 29.8954 51.7323H56.5121L56.966 50.5162C57.4399 49.2457 57.2917 45.4395 56.734 44.5438C56.542 44.2355 48.6248 44.0252 37.2067 44.0252C25.7947 44.0252 16.5873 43.7808 14.5154 43.423C8.03084 42.3027 2.66278 37.7764 0.981446 32.0115C-0.00959769 28.6144 -0.334769 18.7944 0.401022 14.4757C1.81101 6.19502 6.91938 1.70509 16.2466 0.548478C21.5786 -0.11323 73.5779 -0.107165 74.8247 0.554543Z"
				fill="currentColor" />
			<path fill-rule="evenodd" clip-rule="evenodd"
				d="M142.355 1.57023C146.03 3.43038 148.892 7.30924 153.952 17.2916C156.571 22.4575 158.895 26.932 159.118 27.2348C159.341 27.5376 162.967 34.4739 167.177 42.649C171.387 50.824 176.168 60.0499 177.802 63.1509C182.269 71.6276 182.882 71.0506 169.596 70.8739L158.419 70.7247L155.329 64.8068L152.238 58.8889H131.915H111.592L108.76 64.9444L105.928 71H94.5197C83.3324 71 83.1115 70.978 83.1115 69.8538C83.1115 68.8393 105.282 24.2681 111.841 12.0959C117.695 1.23276 120.179 -0.151208 133.128 0.23855C138.799 0.409206 140.564 0.664094 142.355 1.57023ZM119.735 42.7233C119.735 42.6126 122.231 37.3916 125.281 31.1214C129.675 22.0898 131.029 19.7584 131.801 19.8999C132.44 20.0171 134.72 23.8607 138.437 31.0883C141.551 37.1439 144.11 42.284 144.125 42.5113C144.138 42.7387 138.657 42.9242 131.942 42.9242C125.228 42.9242 119.735 42.8339 119.735 42.7233Z"
				fill="currentColor" />
			<path
				d="M185.792 0.548478C186.423 0.883736 191.893 11.231 199.288 26.076C206.127 39.8067 211.978 51.1972 212.29 51.3882C212.602 51.5793 213.211 51.6007 213.645 51.4361C214.078 51.271 217.144 45.5105 220.458 38.6352C235.903 6.59194 238.959 0.684464 240.267 0.336545C241.915 -0.101658 259.766 -0.116529 260.91 0.318921C261.393 0.50279 261.788 1.13367 261.788 1.72161C261.788 2.69656 247.538 31.3151 235.241 55.0353C227.266 70.4181 226.491 71.0016 214.03 70.9967C204.902 70.9934 202.626 70.5332 199.869 68.1319C196.93 65.5715 195.505 63.2153 187.456 47.6035C179.355 31.8932 171.002 15.7678 166.82 7.76837C163.92 2.21982 163.579 0.757675 165.097 0.364063C167.111 -0.157816 184.758 -0.00092679 185.792 0.548478Z"
				fill="currentColor" />
			<path fill-rule="evenodd" clip-rule="evenodd"
				d="M337.935 1.2713C343.272 2.49067 346.284 3.95998 349.029 6.68443C354.593 12.2077 355.775 18.0463 355.415 38.2383C355.137 53.8005 354.8 55.9563 351.812 61.2395C349.785 64.8244 345.994 67.7482 341.197 69.4272C337.596 70.6879 337.083 70.7137 312.255 70.8855C291.3 71.0303 286.288 70.9174 282.941 70.2249C275.042 68.591 270.326 65.3513 267.637 59.7102C265.125 54.4424 264.839 51.9624 264.853 35.4924C264.864 22.5076 265.02 19.5162 265.844 16.5137C268.588 6.52257 274.952 1.83172 287.522 0.538028C290.001 0.282594 301.518 0.151574 313.116 0.246261C329.687 0.382236 335.001 0.601337 337.935 1.2713ZM286.783 23.5348C287.098 22.4085 287.901 21.1082 288.568 20.6447C289.602 19.9263 292.767 19.803 310.157 19.803H330.533L332.09 21.1313L333.647 22.4603V35.7676V49.075L332.09 50.4039L330.533 51.7323L310.449 51.724C288.32 51.7152 288.058 51.6783 286.928 48.4149C286.094 46.0037 285.979 26.4079 286.783 23.5348Z"
				fill="currentColor" />
			<path
				d="M380.403 0.709238C380.788 0.955865 386.709 12.3937 393.562 26.1255C400.415 39.8579 406.258 51.2379 406.546 51.4147C407.739 52.1457 408.798 50.8438 411.347 45.5132C412.824 42.4243 416.888 34.0748 420.378 26.9595C423.867 19.8443 428.17 11.0064 429.939 7.31971L433.156 0.616753L435.562 0.259466C436.885 0.0629352 441.91 -0.0174414 446.728 0.0810991C453.68 0.22313 455.592 0.426267 455.99 1.06595C456.62 2.07888 426.315 62.1495 423.204 66.0526C419.781 70.3504 417.759 71 407.81 71C398.511 71 397.068 70.6647 393.686 67.7184C391.002 65.381 389.4 62.6351 379.702 43.75C375.193 34.9694 371.322 27.5376 371.1 27.2348C369.915 25.6169 358.34 2.29138 358.34 1.52122C358.34 1.02081 358.902 0.494527 359.588 0.351396C361.666 -0.081852 379.652 0.226995 380.403 0.709238Z"
				fill="currentColor" />
				</g>
		</symbol>
</svg>
