<svg width="775" height="5886" viewBox="0 0 775 5886" fill="none" xmlns="http://www.w3.org/2000/svg">
<path d="M912.814 965.83C906.002 978.601 896.957 979.675 796.898 979.575C737.207 979.51 683.55 976.409 677.665 972.677C668.456 966.833 666.672 919.316 664.846 631.103C663.42 405.82 660.217 293.275 655.052 287.036C645.272 275.197 598.442 274.982 582.991 286.707C572.448 294.708 570.972 324.54 569.124 567.836C567.17 825.573 566.264 841.961 552.033 876.771C529.592 931.679 503.947 960.859 454.599 987.626L410.166 1011.73L292.466 1014.24C186.429 1016.51 170.793 1015.26 134.67 1001.64C84.8795 982.848 46.4524 946.147 22.192 894.212L3.56686 854.338L1.53386 446.073C0.421072 221.528 1.28436 30.5603 3.45288 21.6931C7.34766 5.81378 9.10248 5.57741 121.581 5.57742L235.756 5.57742L242.711 23.9493C246.877 34.9582 249.666 179.992 249.666 385.887L249.666 729.452L265.424 735.311C281.887 741.428 331.207 739.515 342.813 732.317C346.808 729.839 349.533 627.644 349.533 480.26C349.533 332.956 352.7 214.108 357.336 187.363C371.853 103.661 430.503 34.3709 505.203 12.6684C549.222 -0.123902 676.466 -4.32118 732.427 5.17635C839.727 23.3764 897.906 89.3147 912.893 209.71C921.467 278.535 921.389 949.736 912.814 965.83Z" fill="url(#paint0_linear_3560_9049)"/>
<path fill-rule="evenodd" clip-rule="evenodd" d="M899.653 1837.5C875.55 1884.94 825.289 1921.88 695.94 1987.19C629.001 2021 571.022 2051 567.098 2053.88C563.175 2056.76 473.295 2103.56 367.366 2157.9C261.436 2212.24 141.889 2273.95 101.707 2295.05C-8.13176 2352.7 -0.656109 2360.62 1.63369 2189.13L3.56681 2044.86L80.25 2004.97L156.933 1965.07L156.933 1702.75L156.933 1440.42L78.4667 1403.86L0.000184374 1367.3L0.000190811 1220.05C0.000197123 1075.65 0.285659 1072.8 14.8519 1072.8C27.9985 1072.8 605.54 1358.97 763.264 1443.63C904.026 1519.19 921.959 1551.26 916.909 1718.4C914.698 1791.6 911.395 1814.39 899.653 1837.5ZM366.403 1545.52C367.836 1545.52 435.489 1577.74 516.737 1617.11C633.766 1673.83 663.976 1691.31 662.143 1701.27C660.623 1709.52 610.818 1738.95 517.165 1786.93C438.699 1827.12 372.095 1860.16 369.149 1860.34C366.203 1860.52 363.799 1789.76 363.799 1703.1C363.799 1616.43 364.969 1545.52 366.403 1545.52Z" fill="url(#paint1_linear_3560_9049)"/>
<path d="M912.893 2398.18C908.549 2406.33 774.471 2476.94 582.114 2572.39C404.195 2660.67 256.6 2736.19 254.124 2740.22C251.649 2744.24 251.371 2752.11 253.504 2757.7C255.644 2763.3 330.287 2802.87 419.375 2845.65C834.583 3045.01 911.131 3084.46 915.639 3101.35C921.317 3122.62 921.51 3353.03 915.867 3367.8C913.485 3374.03 905.31 3379.13 897.692 3379.13C885.059 3379.13 514.226 3195.19 206.866 3036.46C7.54015 2933.53 -0.0211849 2923.52 0.0430311 2762.68C0.0858219 2644.85 6.0492 2615.47 37.1647 2579.89C70.3417 2541.95 100.872 2523.56 303.166 2419.66C506.736 2315.1 715.685 2207.28 819.339 2153.3C891.236 2115.86 910.182 2111.46 915.282 2131.06C922.045 2157.05 920.012 2384.84 912.893 2398.18Z" fill="url(#paint2_linear_3560_9049)"/>
<path fill-rule="evenodd" clip-rule="evenodd" d="M903.527 4362.02C887.726 4430.92 868.687 4469.8 833.385 4505.23C761.816 4577.05 686.16 4592.3 424.518 4587.66C222.866 4584.08 194.932 4579.72 126.474 4541.15C80.0217 4514.99 42.1366 4466.06 20.38 4404.14C4.04467 4357.66 3.70947 4351.03 1.48389 4030.55C-0.392132 3760.07 1.07009 3695.38 10.0438 3652.17C31.2155 3550.21 73.195 3489.34 146.29 3454.62C214.549 3422.2 246.684 3418.52 460.099 3418.69C628.352 3418.83 667.115 3420.85 706.02 3431.49C835.482 3466.9 896.265 3549.06 913.028 3711.3C916.338 3743.3 918.036 3891.97 916.809 4041.67C915.047 4255.57 912.208 4324.16 903.527 4362.02ZM615.041 3701.76C629.636 3705.84 646.485 3716.2 652.491 3724.8C661.8 3738.15 663.398 3779.01 663.398 4003.47L663.398 4266.48L646.185 4286.58L628.966 4306.68L456.532 4306.68L284.098 4306.68L266.879 4286.58L249.666 4266.48L249.773 4007.24C249.887 3721.61 250.365 3718.23 292.651 3703.64C323.895 3692.86 577.813 3691.38 615.041 3701.76Z" fill="url(#paint3_linear_3560_9049)"/>
<path d="M910.81 4910.2C907.614 4915.17 759.405 4991.6 581.472 5080.06C403.532 5168.52 256.072 5243.94 253.782 5247.66C244.309 5263.05 261.179 5276.72 330.251 5309.62C370.276 5328.69 478.467 5381.15 570.665 5426.19C662.863 5471.23 777.381 5526.77 825.153 5549.61L912.008 5591.13L916.638 5622.19C919.184 5639.26 920.226 5704.13 918.949 5766.32C917.108 5856.05 914.476 5880.74 906.187 5885.87C893.062 5894 114.682 5502.82 64.1071 5462.68C8.41737 5418.48 8.43204e-06 5392.38 1.40453e-05 5263.97C1.9292e-05 5143.94 4.34426 5125.31 42.5218 5081.65C72.8098 5047.01 108.391 5026.33 353.099 4901.15C466.875 4842.95 563.175 4792.99 567.098 4790.12C588.063 4774.82 890.309 4625.41 900.288 4625.41C906.772 4625.41 913.592 4632.67 915.446 4641.53C921.06 4668.34 917.058 4900.51 910.81 4910.2Z" fill="url(#paint4_linear_3560_9049)"/>
<defs>
<linearGradient id="paint0_linear_3560_9049" x1="793.5" y1="50" x2="868.999" y2="5993" gradientUnits="userSpaceOnUse">
<stop offset="0.0200234" stop-color="#1F1F1F" stop-opacity="0"/>
<stop offset="0.468067" stop-color="#1F1F1F"/>
<stop offset="1" stop-color="#2D2D2D" stop-opacity="0"/>
</linearGradient>
<linearGradient id="paint1_linear_3560_9049" x1="793.5" y1="50" x2="868.999" y2="5993" gradientUnits="userSpaceOnUse">
<stop offset="0.0200234" stop-color="#1F1F1F" stop-opacity="0"/>
<stop offset="0.468067" stop-color="#1F1F1F"/>
<stop offset="1" stop-color="#2D2D2D" stop-opacity="0"/>
</linearGradient>
<linearGradient id="paint2_linear_3560_9049" x1="793.5" y1="50" x2="868.999" y2="5993" gradientUnits="userSpaceOnUse">
<stop offset="0.0200234" stop-color="#1F1F1F" stop-opacity="0"/>
<stop offset="0.468067" stop-color="#1F1F1F"/>
<stop offset="1" stop-color="#2D2D2D" stop-opacity="0"/>
</linearGradient>
<linearGradient id="paint3_linear_3560_9049" x1="793.5" y1="50" x2="868.999" y2="5993" gradientUnits="userSpaceOnUse">
<stop offset="0.0200234" stop-color="#1F1F1F" stop-opacity="0"/>
<stop offset="0.468067" stop-color="#1F1F1F"/>
<stop offset="1" stop-color="#2D2D2D" stop-opacity="0"/>
</linearGradient>
<linearGradient id="paint4_linear_3560_9049" x1="793.5" y1="50" x2="868.999" y2="5993" gradientUnits="userSpaceOnUse">
<stop offset="0.0200234" stop-color="#1F1F1F" stop-opacity="0"/>
<stop offset="0.468067" stop-color="#1F1F1F"/>
<stop offset="1" stop-color="#2D2D2D" stop-opacity="0"/>
</linearGradient>
</defs>
</svg>
