<svg width="389" height="288" viewBox="0 0 389 288" fill="none" xmlns="http://www.w3.org/2000/svg">
<rect width="389.504" height="288.254" rx="24" fill="#282828"/>
<path d="M37.501 38.2283H40.573V50.1563L49.597 38.2283H52.501V55.0283H49.429V43.1243L40.405 55.0283H37.501V38.2283ZM56.8754 42.2123H59.8754V47.4203H66.3314V42.2123H69.3314V55.0283H66.3314V49.9643H59.8754V55.0283H56.8754V42.2123ZM87.0319 52.4843V57.8843H84.2239V55.0283H74.3359V57.8843H71.5519V52.4843H72.1519C72.9679 52.4523 73.5199 51.9323 73.8079 50.9243C74.1119 49.9003 74.3119 48.4603 74.4079 46.6043L74.5759 42.2123H85.1359V52.4843H87.0319ZM77.1439 46.8203C77.0799 48.2923 76.9599 49.4923 76.7839 50.4203C76.6079 51.3483 76.2879 52.0363 75.8239 52.4843H82.1359V44.7563H77.2159L77.1439 46.8203ZM89.7113 42.2123H92.7113V50.6603L99.7913 42.2123H102.527V55.0283H99.5273V46.5803L92.4713 55.0283H89.7113V42.2123ZM115.851 48.3563C117.435 48.8363 118.227 49.8603 118.227 51.4283C118.227 52.5803 117.795 53.4683 116.931 54.0923C116.067 54.7163 114.787 55.0283 113.091 55.0283H106.563V42.2123H112.827C114.395 42.2123 115.619 42.5003 116.499 43.0763C117.379 43.6523 117.819 44.4683 117.819 45.5243C117.819 46.1803 117.643 46.7483 117.291 47.2283C116.955 47.7083 116.475 48.0843 115.851 48.3563ZM109.419 47.5643H112.563C114.115 47.5643 114.891 47.0283 114.891 45.9563C114.891 44.9163 114.115 44.3963 112.563 44.3963H109.419V47.5643ZM112.851 52.8443C114.499 52.8443 115.323 52.3083 115.323 51.2363C115.323 50.6763 115.131 50.2603 114.747 49.9883C114.363 49.7003 113.763 49.5563 112.947 49.5563H109.419V52.8443H112.851ZM121.422 42.2123H124.422V50.6603L131.502 42.2123H134.238V55.0283H131.238V46.5803L124.182 55.0283H121.422V42.2123ZM151.954 52.4843V57.8843H149.146V55.0283H139.258V57.8843H136.474V52.4843H137.074C137.89 52.4523 138.442 51.9323 138.73 50.9243C139.034 49.9003 139.234 48.4603 139.33 46.6043L139.498 42.2123H150.058V52.4843H151.954ZM142.066 46.8203C142.002 48.2923 141.882 49.4923 141.706 50.4203C141.53 51.3483 141.21 52.0363 140.746 52.4843H147.058V44.7563H142.138L142.066 46.8203ZM166.729 42.2123L160.729 56.0603C160.169 57.4523 159.489 58.4283 158.689 58.9883C157.889 59.5643 156.921 59.8523 155.785 59.8523C155.145 59.8523 154.513 59.7483 153.889 59.5403C153.265 59.3323 152.753 59.0443 152.353 58.6763L153.553 56.4683C153.841 56.7403 154.177 56.9563 154.561 57.1163C154.961 57.2763 155.361 57.3563 155.761 57.3563C156.289 57.3563 156.721 57.2203 157.057 56.9483C157.409 56.6763 157.729 56.2203 158.017 55.5803L158.233 55.0763L152.641 42.2123H155.761L159.793 51.6923L163.849 42.2123H166.729ZM173.19 42.0683C175.078 42.0683 176.518 42.5243 177.51 43.4363C178.518 44.3323 179.022 45.6923 179.022 47.5163V55.0283H176.19V53.4683C175.822 54.0283 175.294 54.4603 174.606 54.7643C173.934 55.0523 173.118 55.1963 172.158 55.1963C171.198 55.1963 170.358 55.0363 169.638 54.7163C168.918 54.3803 168.358 53.9243 167.958 53.3483C167.574 52.7563 167.382 52.0923 167.382 51.3563C167.382 50.2043 167.806 49.2843 168.654 48.5963C169.518 47.8923 170.87 47.5403 172.71 47.5403H176.022V47.3483C176.022 46.4523 175.75 45.7643 175.206 45.2843C174.678 44.8043 173.886 44.5643 172.83 44.5643C172.11 44.5643 171.398 44.6763 170.694 44.9003C170.006 45.1243 169.422 45.4363 168.942 45.8363L167.766 43.6523C168.438 43.1403 169.246 42.7483 170.19 42.4763C171.134 42.2043 172.134 42.0683 173.19 42.0683ZM172.782 53.0123C173.534 53.0123 174.198 52.8443 174.774 52.5083C175.366 52.1563 175.782 51.6603 176.022 51.0203V49.5323H172.926C171.198 49.5323 170.334 50.1003 170.334 51.2363C170.334 51.7803 170.55 52.2123 170.982 52.5323C171.414 52.8523 172.014 53.0123 172.782 53.0123ZM194.351 42.2123V55.0283H191.351V44.7563H186.551L186.431 47.3003C186.351 48.9963 186.191 50.4203 185.951 51.5723C185.727 52.7083 185.335 53.6123 184.775 54.2843C184.231 54.9403 183.479 55.2683 182.519 55.2683C182.071 55.2683 181.519 55.1803 180.863 55.0043L181.007 52.4843C181.231 52.5323 181.423 52.5563 181.583 52.5563C182.191 52.5563 182.647 52.3163 182.951 51.8363C183.255 51.3403 183.447 50.7563 183.527 50.0843C183.623 49.3963 183.703 48.4203 183.767 47.1563L183.983 42.2123H194.351ZM204.823 46.4363C206.455 46.4363 207.703 46.8043 208.567 47.5403C209.447 48.2763 209.887 49.3163 209.887 50.6603C209.887 52.0683 209.407 53.1563 208.447 53.9243C207.487 54.6923 206.135 55.0683 204.391 55.0523L198.391 55.0283V42.2123H201.391V46.4123L204.823 46.4363ZM204.127 52.8443C205.007 52.8603 205.679 52.6763 206.143 52.2923C206.607 51.9083 206.839 51.3483 206.839 50.6123C206.839 49.8923 206.615 49.3643 206.167 49.0283C205.719 48.6923 205.039 48.5163 204.127 48.5003L201.391 48.4763V52.8203L204.127 52.8443ZM212.524 42.2123H215.524V47.4203H221.98V42.2123H224.98V55.0283H221.98V49.9643H215.524V55.0283H212.524V42.2123ZM235.24 46.4363C236.872 46.4363 238.12 46.8043 238.984 47.5403C239.848 48.2763 240.28 49.3163 240.28 50.6603C240.28 52.0683 239.8 53.1563 238.84 53.9243C237.896 54.6923 236.552 55.0683 234.808 55.0523L229 55.0283V42.2123H232V46.4123L235.24 46.4363ZM241.936 42.2123H244.936V55.0283H241.936V42.2123ZM234.544 52.8443C235.424 52.8603 236.096 52.6763 236.56 52.2923C237.024 51.9083 237.256 51.3483 237.256 50.6123C237.256 49.8923 237.032 49.3643 236.584 49.0283C236.136 48.6923 235.456 48.5163 234.544 48.5003L232 48.4763V52.8203L234.544 52.8443ZM248.969 42.2123H251.969V50.6603L259.049 42.2123H261.785V55.0283H258.785V46.5803L251.729 55.0283H248.969V42.2123ZM255.185 40.7003C253.889 40.7003 252.897 40.4043 252.209 39.8123C251.537 39.2043 251.193 38.3243 251.177 37.1723H253.169C253.185 37.7483 253.361 38.2043 253.697 38.5403C254.049 38.8763 254.537 39.0443 255.161 39.0443C255.769 39.0443 256.249 38.8763 256.601 38.5403C256.969 38.2043 257.161 37.7483 257.177 37.1723H259.217C259.201 38.3243 258.849 39.2043 258.161 39.8123C257.473 40.4043 256.481 40.7003 255.185 40.7003ZM49.429 71.2123V84.0283H46.453V73.7563H40.141V84.0283H37.141V71.2123H49.429ZM59.1889 84.1963C57.8929 84.1963 56.7249 83.9163 55.6849 83.3563C54.6449 82.7963 53.8289 82.0203 53.2369 81.0283C52.6609 80.0203 52.3729 78.8843 52.3729 77.6203C52.3729 76.3563 52.6609 75.2283 53.2369 74.2363C53.8289 73.2443 54.6449 72.4683 55.6849 71.9083C56.7249 71.3483 57.8929 71.0683 59.1889 71.0683C60.5009 71.0683 61.6769 71.3483 62.7169 71.9083C63.7569 72.4683 64.5649 73.2443 65.1409 74.2363C65.7329 75.2283 66.0289 76.3563 66.0289 77.6203C66.0289 78.8843 65.7329 80.0203 65.1409 81.0283C64.5649 82.0203 63.7569 82.7963 62.7169 83.3563C61.6769 83.9163 60.5009 84.1963 59.1889 84.1963ZM59.1889 81.6283C60.2929 81.6283 61.2049 81.2603 61.9249 80.5243C62.6449 79.7883 63.0049 78.8203 63.0049 77.6203C63.0049 76.4203 62.6449 75.4523 61.9249 74.7163C61.2049 73.9803 60.2929 73.6123 59.1889 73.6123C58.0849 73.6123 57.1729 73.9803 56.4529 74.7163C55.7489 75.4523 55.3969 76.4203 55.3969 77.6203C55.3969 78.8203 55.7489 79.7883 56.4529 80.5243C57.1729 81.2603 58.0849 81.6283 59.1889 81.6283ZM82.5319 81.4843V86.8843H79.7239V84.0283H69.8359V86.8843H67.0519V81.4843H67.6519C68.4679 81.4523 69.0199 80.9323 69.3079 79.9243C69.6119 78.9003 69.8119 77.4603 69.9079 75.6043L70.0759 71.2123H80.6359V81.4843H82.5319ZM72.6439 75.8203C72.5799 77.2923 72.4599 78.4923 72.2839 79.4203C72.1079 80.3483 71.7879 81.0363 71.3239 81.4843H77.6359V73.7563H72.7159L72.6439 75.8203ZM93.2273 84.0283L89.9393 79.5883L86.6273 84.0283H83.3153L88.3073 77.5243L83.5313 71.2123H86.8673L90.0113 75.4123L93.1553 71.2123H96.3953L91.5953 77.4763L96.6113 84.0283H93.2273ZM104.048 84.1963C102.752 84.1963 101.584 83.9163 100.544 83.3563C99.5043 82.7963 98.6883 82.0203 98.0963 81.0283C97.5203 80.0203 97.2323 78.8843 97.2323 77.6203C97.2323 76.3563 97.5203 75.2283 98.0963 74.2363C98.6883 73.2443 99.5043 72.4683 100.544 71.9083C101.584 71.3483 102.752 71.0683 104.048 71.0683C105.36 71.0683 106.536 71.3483 107.576 71.9083C108.616 72.4683 109.424 73.2443 110 74.2363C110.592 75.2283 110.888 76.3563 110.888 77.6203C110.888 78.8843 110.592 80.0203 110 81.0283C109.424 82.0203 108.616 82.7963 107.576 83.3563C106.536 83.9163 105.36 84.1963 104.048 84.1963ZM104.048 81.6283C105.152 81.6283 106.064 81.2603 106.784 80.5243C107.504 79.7883 107.864 78.8203 107.864 77.6203C107.864 76.4203 107.504 75.4523 106.784 74.7163C106.064 73.9803 105.152 73.6123 104.048 73.6123C102.944 73.6123 102.032 73.9803 101.312 74.7163C100.608 75.4523 100.256 76.4203 100.256 77.6203C100.256 78.8203 100.608 79.7883 101.312 80.5243C102.032 81.2603 102.944 81.6283 104.048 81.6283ZM127.391 81.4843V86.8843H124.583V84.0283H114.695V86.8843H111.911V81.4843H112.511C113.327 81.4523 113.879 80.9323 114.167 79.9243C114.471 78.9003 114.671 77.4603 114.767 75.6043L114.935 71.2123H125.495V81.4843H127.391ZM117.503 75.8203C117.439 77.2923 117.319 78.4923 117.143 79.4203C116.967 80.3483 116.647 81.0363 116.183 81.4843H122.495V73.7563H117.575L117.503 75.8203ZM142.032 78.8923H139.704V84.0283H136.704V71.2123H139.704V76.3963H142.104L145.896 71.2123H149.112L144.456 77.3803L149.424 84.0283H145.896L142.032 78.8923ZM163.5 78.8923H161.172V84.0283H158.172V71.2123H161.172V76.3963H163.572L167.364 71.2123H170.58L165.924 77.3803L170.892 84.0283H167.364L163.5 78.8923ZM184.624 71.2123V84.0283H181.624V73.7563H176.824L176.704 76.3003C176.624 77.9963 176.464 79.4203 176.224 80.5723C176 81.7083 175.608 82.6123 175.048 83.2843C174.504 83.9403 173.752 84.2683 172.792 84.2683C172.344 84.2683 171.792 84.1803 171.136 84.0043L171.28 81.4843C171.504 81.5323 171.696 81.5563 171.856 81.5563C172.464 81.5563 172.92 81.3163 173.224 80.8363C173.528 80.3403 173.72 79.7563 173.8 79.0843C173.896 78.3963 173.976 77.4203 174.04 76.1563L174.256 71.2123H184.624ZM188.664 71.2123H191.664V79.6603L198.744 71.2123H201.48V84.0283H198.48V75.5803L191.424 84.0283H188.664V71.2123ZM217.516 77.6923C217.516 77.9003 217.5 78.1963 217.468 78.5803H207.412C207.588 79.5243 208.044 80.2763 208.78 80.8363C209.532 81.3803 210.46 81.6523 211.564 81.6523C212.972 81.6523 214.132 81.1883 215.044 80.2603L216.652 82.1083C216.076 82.7963 215.348 83.3163 214.468 83.6683C213.588 84.0203 212.596 84.1963 211.492 84.1963C210.084 84.1963 208.844 83.9163 207.772 83.3563C206.7 82.7963 205.868 82.0203 205.276 81.0283C204.7 80.0203 204.412 78.8843 204.412 77.6203C204.412 76.3723 204.692 75.2523 205.252 74.2603C205.828 73.2523 206.62 72.4683 207.628 71.9083C208.636 71.3483 209.772 71.0683 211.036 71.0683C212.284 71.0683 213.396 71.3483 214.372 71.9083C215.364 72.4523 216.132 73.2283 216.676 74.2363C217.236 75.2283 217.516 76.3803 217.516 77.6923ZM211.036 73.4683C210.076 73.4683 209.26 73.7563 208.588 74.3323C207.932 74.8923 207.532 75.6443 207.388 76.5883H214.66C214.532 75.6603 214.14 74.9083 213.484 74.3323C212.828 73.7563 212.012 73.4683 211.036 73.4683ZM220.797 71.2123H223.797V76.4203H230.253V71.2123H233.253V84.0283H230.253V78.9643H223.797V84.0283H220.797V71.2123ZM247.426 73.7563H242.938V84.0283H239.938V73.7563H235.426V71.2123H247.426V73.7563ZM261.792 71.2123L255.792 85.0603C255.232 86.4523 254.552 87.4283 253.752 87.9883C252.952 88.5643 251.984 88.8523 250.848 88.8523C250.208 88.8523 249.576 88.7483 248.952 88.5403C248.328 88.3323 247.816 88.0443 247.416 87.6763L248.616 85.4683C248.904 85.7403 249.24 85.9563 249.624 86.1163C250.024 86.2763 250.424 86.3563 250.824 86.3563C251.352 86.3563 251.784 86.2203 252.12 85.9483C252.472 85.6763 252.792 85.2203 253.08 84.5803L253.296 84.0763L247.704 71.2123H250.824L254.856 80.6923L258.912 71.2123H261.792Z" fill="#282828"/>
<mask id="mask0_3560_10290" style="mask-type:alpha" maskUnits="userSpaceOnUse" x="-56" y="-10" width="591" height="316">
<g clip-path="url(#clip0_3560_10290)">
<path d="M57.8482 -0.566468L126.782 -0.566465L126.782 296.568L41.2529 296.568L41.2529 87.7249L-54.9146 131.871L-54.9146 51.2198L57.8482 -0.566468ZM245.991 260.487C216.205 233.038 201.312 195.542 201.312 148.001C201.312 100.459 216.205 62.9637 245.991 35.5142C276.061 8.06463 316.06 -5.66017 365.988 -5.66016C415.916 -5.66017 455.773 8.06459 485.559 35.5142C515.629 62.9638 530.664 100.459 530.664 148.001C530.664 195.542 515.629 233.038 485.559 260.487C455.773 287.937 415.916 301.662 365.988 301.662C316.06 301.662 276.061 287.937 245.991 260.487ZM308.543 86.4515C294.075 100.884 286.841 121.4 286.841 148.001C286.841 174.601 294.075 195.259 308.543 209.975C323.01 224.407 342.159 231.623 365.988 231.623C389.817 231.623 408.966 224.407 423.433 209.975C437.901 195.259 445.135 174.601 445.135 148.001C445.135 121.4 437.901 100.884 423.433 86.4515C408.966 71.7363 389.817 64.3787 365.988 64.3787C342.159 64.3787 323.01 71.7363 308.543 86.4515Z" fill="#D6D6D6"/>
</g>
</mask>
<g mask="url(#mask0_3560_10290)">
<rect width="389.504" height="288.254" rx="24" fill="#303030"/>
</g>
<g filter="url(#filter0_i_3560_10290)">
<path d="M57.8482 -0.566468L126.782 -0.566465L126.782 296.568L41.2529 296.568L41.2529 87.7249L-54.9146 131.871L-54.9146 51.2198L57.8482 -0.566468ZM245.991 260.487C216.205 233.038 201.312 195.542 201.312 148.001C201.312 100.459 216.205 62.9637 245.991 35.5142C276.061 8.06463 316.06 -5.66017 365.988 -5.66016C415.916 -5.66017 455.773 8.06459 485.559 35.5142C515.629 62.9638 530.664 100.459 530.664 148.001C530.664 195.542 515.629 233.038 485.559 260.487C455.773 287.937 415.916 301.662 365.988 301.662C316.06 301.662 276.061 287.937 245.991 260.487ZM308.543 86.4515C294.075 100.884 286.841 121.4 286.841 148.001C286.841 174.601 294.075 195.259 308.543 209.975C323.01 224.407 342.159 231.623 365.988 231.623C389.817 231.623 408.966 224.407 423.433 209.975C437.901 195.259 445.135 174.601 445.135 148.001C445.135 121.4 437.901 100.884 423.433 86.4515C408.966 71.7363 389.817 64.3787 365.988 64.3787C342.159 64.3787 323.01 71.7363 308.543 86.4515Z" fill="#302F2F" fill-opacity="0.05"/>
</g>
<g filter="url(#filter1_f_3560_10290)">
<ellipse cx="135" cy="288" rx="217" ry="178" fill="#282828"/>
</g>
<defs>
<filter id="filter0_i_3560_10290" x="-54.9141" y="-5.66016" width="594.578" height="308.322" filterUnits="userSpaceOnUse" color-interpolation-filters="sRGB">
<feFlood flood-opacity="0" result="BackgroundImageFix"/>
<feBlend mode="normal" in="SourceGraphic" in2="BackgroundImageFix" result="shape"/>
<feColorMatrix in="SourceAlpha" type="matrix" values="0 0 0 0 0 0 0 0 0 0 0 0 0 0 0 0 0 0 127 0" result="hardAlpha"/>
<feOffset dx="9" dy="1"/>
<feGaussianBlur stdDeviation="19.5"/>
<feComposite in2="hardAlpha" operator="arithmetic" k2="-1" k3="1"/>
<feColorMatrix type="matrix" values="0 0 0 0 0 0 0 0 0 0 0 0 0 0 0 0 0 0 0.77 0"/>
<feBlend mode="normal" in2="shape" result="effect1_innerShadow_3560_10290"/>
</filter>
<filter id="filter1_f_3560_10290" x="-177" y="15" width="624" height="546" filterUnits="userSpaceOnUse" color-interpolation-filters="sRGB">
<feFlood flood-opacity="0" result="BackgroundImageFix"/>
<feBlend mode="normal" in="SourceGraphic" in2="BackgroundImageFix" result="shape"/>
<feGaussianBlur stdDeviation="47.5" result="effect1_foregroundBlur_3560_10290"/>
</filter>
<clipPath id="clip0_3560_10290">
<rect width="316" height="591" fill="white" transform="translate(535 -10) rotate(90)"/>
</clipPath>
</defs>
</svg>
