<svg width="33" height="23" viewBox="0 0 33 23" fill="none" xmlns="http://www.w3.org/2000/svg">
<path fill-rule="evenodd" clip-rule="evenodd" d="M18.9305 0.997652C18.3021 1.54627 17.7877 2.08837 17.7877 2.20237C17.7877 2.31638 19.5901 3.96478 21.7934 5.86586C23.9966 7.7667 25.8394 9.42209 25.8886 9.5447C25.9445 9.68383 21.1068 9.78993 12.9891 9.82762L0 9.88811L0 11.5167L0 13.1454L12.9891 13.2059C20.993 13.2431 25.9437 13.3506 25.8886 13.486C25.8394 13.607 23.9966 15.2675 21.7934 17.1758C19.5901 19.0843 17.7877 20.7425 17.7877 20.8607C17.7877 21.2729 20.1724 23.0775 20.6115 22.9974C20.8548 22.9532 23.8059 20.3642 27.1696 17.2439C32.5923 12.2136 33.2457 11.5249 32.9366 11.1638C31.7765 9.80784 20.8491 0 20.4988 0C20.2647 0 19.5592 0.449036 18.9305 0.997652Z" fill="white"/>
<path fill-rule="evenodd" clip-rule="evenodd" d="M18.9305 0.997652C18.3021 1.54627 17.7877 2.08837 17.7877 2.20237C17.7877 2.31638 19.5901 3.96478 21.7934 5.86586C23.9966 7.7667 25.8394 9.42209 25.8886 9.5447C25.9445 9.68383 21.1068 9.78993 12.9891 9.82762L0 9.88811L0 11.5167L0 13.1454L12.9891 13.2059C20.993 13.2431 25.9437 13.3506 25.8886 13.486C25.8394 13.607 23.9966 15.2675 21.7934 17.1758C19.5901 19.0843 17.7877 20.7425 17.7877 20.8607C17.7877 21.2729 20.1724 23.0775 20.6115 22.9974C20.8548 22.9532 23.8059 20.3642 27.1696 17.2439C32.5923 12.2136 33.2457 11.5249 32.9366 11.1638C31.7765 9.80784 20.8491 0 20.4988 0C20.2647 0 19.5592 0.449036 18.9305 0.997652Z" fill="#F9F9F9"/>
</svg>
