<svg width="201" height="70" viewBox="0 0 201 70" fill="none" xmlns="http://www.w3.org/2000/svg">
<path opacity="0.6" fill-rule="evenodd" clip-rule="evenodd" d="M34.2156 0.158086C25.2169 0.905886 17.2714 4.27762 11.1549 9.94409C5.97948 14.7387 2.6504 20.5435 1.28528 27.1538C-0.123438 33.9749 2.04406 35.9893 8.58589 33.9388C10.6066 33.3055 13.8987 31.6765 16.1181 30.2121C17.9534 29.0009 20.2314 28.1077 21.2536 28.1981L22.128 28.2755L22.2654 30.5457C22.3906 32.6142 22.4684 32.876 23.1422 33.4936C23.8194 34.1144 24.0438 34.1695 25.813 34.1469C27.2889 34.1282 28.1153 33.9688 29.3157 33.4713C30.1799 33.1133 30.9269 32.8203 30.9758 32.8203C31.1724 32.8203 32.4281 36.8334 32.6833 38.2774C33.0329 40.2563 33.0353 43.1951 32.6889 44.8858C31.7927 49.2586 27.7144 52.6453 21.593 54.0999C18.7981 54.7642 13.466 54.7042 10.6373 53.9766C8.24541 53.3614 7.40238 53.4395 6.96748 54.3166C6.54623 55.1653 7.48716 56.4121 10.8663 59.4821C15.1981 63.4182 19.7112 65.9642 25.4389 67.704C29.604 68.9689 32.767 69.4241 37.3938 69.4241C43.9739 69.4241 48.9332 68.3837 54.6057 65.8136C64.8888 61.1541 71.9072 52.6134 74.4511 41.6642C75.3035 37.9954 75.3096 31.5939 74.4642 27.9837C71.0926 13.5834 58.8137 2.68743 43.5248 0.52928C40.1695 0.0556413 36.9793 -0.0716091 34.2156 0.158086ZM20.7353 8.93466C19.7794 10.6587 19.4622 11.523 19.3739 12.6425C19.2672 13.9998 19.3081 14.1317 19.9575 14.5225C20.9354 15.1109 22.2954 14.878 27.3314 13.2603C32.9032 11.4704 36.14 10.7106 38.1922 10.7106C41.0104 10.7106 41.8947 11.4232 41.3009 13.2156C40.7368 14.9178 40.7095 15.3366 41.1367 15.729C41.7647 16.3058 43.233 16.1933 46.0657 15.3509C56.3819 12.2833 65.0001 17.0207 68.1358 27.483L68.4875 28.6558L66.133 26.3775C62.6215 22.9795 59.7977 21.6259 54.9593 21.0218C49.934 20.3946 45.8667 20.9373 38.4998 23.2185C34.7032 24.3943 33.2295 24.6299 32.177 24.2294C31.0686 23.8076 30.7394 22.878 30.94 20.7388C31.1187 18.8349 31.0331 18.5671 30.1026 18.1173C28.4692 17.3275 25.268 18.1502 20.5738 20.5663C14.5471 23.6681 13.1908 24.2555 11.7371 24.3933C10.0706 24.5512 9.59395 24.2412 9.14435 22.7075C8.39653 20.1568 11.0941 15.5418 15.752 11.4031C17.1647 10.148 21.8236 6.54508 21.9212 6.6323C21.9544 6.66227 21.4208 7.69823 20.7353 8.93466ZM87.2887 17.1214C86.9578 17.4046 86.574 17.9092 86.436 18.2428C86.294 18.5858 86.1848 23.3308 86.1848 29.1636C86.1848 37.8335 86.2485 39.5908 86.5844 40.1875C87.5085 41.8285 89.5626 42.1774 91.0617 40.9476L91.9352 40.2312L92.0173 32.9198L92.0992 25.6083L95.3606 28.5715C97.2927 30.327 98.9138 31.5966 99.3388 31.6865C100.573 31.9482 101.47 31.4077 104.706 28.4514L107.849 25.5808V32.6284C107.849 40.2243 107.924 40.696 109.225 41.3141C110.68 42.0054 112.545 41.5327 113.146 40.3199C113.379 39.8517 113.466 36.7221 113.466 28.8592V18.0426L112.684 17.3246C112.039 16.7318 111.68 16.6065 110.628 16.6065H109.354L104.586 20.9614L99.8184 25.316L95.0717 20.9614L90.3251 16.6065H89.1076C88.2416 16.6065 87.7169 16.7551 87.2887 17.1214ZM127.22 17.0664C121.013 19.0123 116.983 24.9561 117.96 30.7265C118.549 34.2078 120.102 36.7671 122.923 38.9086C126.889 41.9189 132.347 42.5284 137.271 40.5108C140.125 39.3412 143.172 36.2374 144.269 33.3811C144.972 31.5495 145.192 28.6081 144.773 26.6291C143.858 22.3051 140.256 18.5185 135.726 17.1167C133.587 16.4549 129.252 16.4294 127.22 17.0664ZM150.409 17.1214C150.079 17.4046 149.695 17.9092 149.557 18.2428C149.415 18.5858 149.306 23.3308 149.306 29.1636C149.306 40.2496 149.322 40.3938 150.701 41.2807C151.476 41.7794 153.033 41.7708 153.821 41.2635C154.791 40.6392 155.19 39.4409 155.19 37.1462V35.0688L160.338 34.9885C165.368 34.9104 165.526 34.892 167.167 34.1957C169.33 33.2784 171.49 31.1881 172.325 29.2053C172.777 28.1323 172.925 27.2668 172.927 25.671C172.929 23.8201 172.827 23.3566 172.104 21.9369C171.069 19.9062 169.306 18.2664 167.15 17.3297L165.487 16.607L158.249 16.6067C151.27 16.6065 150.99 16.6249 150.409 17.1214ZM178.273 17.1993L177.523 17.7918L177.448 28.6764C177.367 40.413 177.392 40.6621 178.751 41.3072C179.885 41.8462 198.456 41.8337 199.594 41.2932C200.59 40.8198 200.926 40.2319 200.926 38.9592C200.926 38.1617 200.756 37.7859 200.144 37.2233L199.362 36.5052H191.184H183.006V34.1714V31.8376H188.898C195.595 31.8376 196.346 31.6946 197.08 30.2818C197.643 29.197 197.406 27.9409 196.487 27.1479C195.808 26.561 195.745 26.5551 189.404 26.4819L183.006 26.4082V24.0867V21.7654H190.921C197.826 21.7654 198.933 21.7131 199.591 21.3564C201.138 20.5167 201.416 18.4932 200.144 17.3246L199.362 16.6065H189.193H179.024L178.273 17.1993ZM135.127 22.6469C136.709 23.4369 138.369 25.1755 138.913 26.6138C139.393 27.8815 139.333 30.7641 138.802 31.8939C138.565 32.3977 137.818 33.3531 137.143 34.0169C133.423 37.6694 127.293 36.984 124.488 32.6024C123.837 31.5843 123.763 31.2316 123.764 29.1353C123.764 27.2096 123.866 26.6298 124.343 25.8189C125.18 24.3997 127.071 22.8105 128.595 22.2467C130.535 21.5286 133.217 21.6929 135.127 22.6469ZM165.268 22.4022C167.999 24.2638 167.907 27.722 165.085 29.2449C164.264 29.6881 163.604 29.76 159.67 29.8357L155.19 29.9219V25.8277V21.7337L159.852 21.8111C164.088 21.8811 164.582 21.9352 165.268 22.4022ZM48.0487 27.4771C49.394 29.3805 50.2196 36.0854 49.5753 39.872C48.8117 44.3598 46.8301 47.9215 43.3443 51.0723C39.1465 54.8666 34.41 56.827 28.9482 57.0312L26.1399 57.136L27.8971 56.6855C34.2694 55.0511 38.3019 51.3222 40.2019 45.3071C41.4052 41.4971 41.1367 34.888 39.6309 31.249C39.3455 30.5594 39.112 29.8141 39.112 29.593C39.1117 29.0975 41.7665 28.0212 44.5209 27.3997C47.1241 26.8123 47.5862 26.8224 48.0487 27.4771ZM59.9207 28.1517C62.6015 29.2692 66.0052 32.4139 67.6182 35.2634C68.5153 36.8479 68.5428 38.2052 67.7405 41.3116C66.2769 46.9774 63.4608 51.9444 59.4101 56.005C54.5793 60.8473 47.0909 63.8852 38.7105 64.4023C34.0107 64.6924 27.9225 63.6938 22.8977 61.8086C20.3197 60.8414 16.7862 59.1404 16.9818 58.9606C17.0422 58.9053 18.0398 59.0827 19.199 59.3549C27.5901 61.3261 36.5283 60.8239 43.0266 58.0163C49.5063 55.2167 54.5985 50.0138 56.9872 43.7523C58.6703 39.3407 59.0464 33.1787 57.9276 28.3369C57.734 27.4987 58.2411 27.4515 59.9207 28.1517ZM87.1571 48.315C86.1993 49.0068 86.2429 49.5254 87.2584 49.5254C87.7016 49.5254 88.2873 49.3974 88.5602 49.2409C89.1256 48.9166 90.0253 49.1377 89.871 49.563C89.8145 49.7185 89.1777 49.9836 88.4558 50.1521C86.9808 50.496 86.1848 51.2197 86.1848 52.2169C86.1848 53.27 87.0033 53.7862 88.378 53.5995C90.2093 53.3506 90.5388 53.3445 91.6009 53.5395L92.6039 53.724V52.8529C92.6039 52.2871 92.4867 52.0036 92.2696 52.0434C92.0382 52.0859 91.8941 51.588 91.8015 50.4248C91.6913 49.0407 91.5565 48.6619 91.0363 48.2752C90.1507 47.6168 88.094 47.638 87.1571 48.315ZM98.7555 50.6309V53.456H99.5579C100.331 53.456 100.36 53.415 100.36 52.3505C100.36 51.5649 100.469 51.245 100.736 51.245C100.943 51.245 101.429 51.7425 101.817 52.3505C102.465 53.3661 102.609 53.456 103.584 53.456H104.645L103.682 52.1243L102.72 50.7923L103.412 49.8561C103.793 49.3414 104.105 48.6693 104.105 48.3629C104.105 47.89 103.963 47.8057 103.169 47.8057C102.443 47.8057 102.232 47.906 102.232 48.2506C102.232 48.7975 101.284 49.7711 100.751 49.7711C100.473 49.7711 100.36 49.4863 100.36 48.7884C100.36 47.8603 100.316 47.8057 99.5579 47.8057H98.7555V50.6309ZM110.791 50.5957V53.456H113.082C114.342 53.456 115.606 53.3415 115.891 53.2017C116.53 52.8873 116.598 51.4504 115.995 50.9908C115.709 50.7726 115.668 50.598 115.862 50.4201C116.015 50.2793 116.14 49.8032 116.14 49.362C116.14 48.3059 115.553 48.0354 112.897 47.8681L110.791 47.7355V50.5957ZM123.007 48.6042L122.158 49.4026L123.221 49.4822C123.817 49.5266 124.327 49.4458 124.381 49.2979C124.524 48.9034 125.689 48.9795 125.862 49.3947C126.044 49.8298 125.917 49.9054 124.659 50.1138C123.206 50.3543 122.292 51.1156 122.292 52.0847C122.292 52.5515 122.497 53.059 122.781 53.2951C123.381 53.7933 124.948 53.8252 125.65 53.3536C125.935 53.1619 126.29 53.0922 126.437 53.1986C126.585 53.3049 127.157 53.4666 127.708 53.558L128.711 53.724V52.8529C128.711 52.2871 128.594 52.0036 128.377 52.0434C128.145 52.0859 128.018 51.6418 127.964 50.5918C127.857 48.557 127.106 47.8057 125.177 47.8057C124.039 47.8057 123.738 47.9163 123.007 48.6042ZM135.351 48.2263C134.43 48.7513 134.06 49.52 134.06 50.9127C134.06 51.8572 134.202 52.1611 134.97 52.8664C135.732 53.5668 136.072 53.7017 137.073 53.7017C138.382 53.7017 139.511 53.0831 139.753 52.2336C139.875 51.8059 139.766 51.7364 138.98 51.7364C138.477 51.7364 137.842 51.8643 137.569 52.0208C136.659 52.5426 136.2 52.1176 136.2 50.7537C136.2 49.3898 136.659 48.9648 137.569 49.4866C137.842 49.6431 138.428 49.7711 138.871 49.7711C139.895 49.7711 139.934 49.2294 138.969 48.4081C138.12 47.6851 136.448 47.6011 135.351 48.2263ZM146.631 48.6656C146.631 49.4844 146.676 49.5254 147.567 49.5254H148.503V51.4907V53.456H149.306H150.108V51.4907V49.5254H151.044C151.936 49.5254 151.98 49.4844 151.98 48.6656V47.8057H149.306H146.631V48.6656ZM159.575 50.0631C160.076 51.3212 160.567 52.5355 160.667 52.7615C160.882 53.2489 160.12 53.7017 159.086 53.7017C158.578 53.7017 158.399 53.8294 158.399 54.193C158.399 54.6286 158.578 54.6843 159.971 54.6843C160.926 54.6843 161.655 54.5603 161.829 54.3684C162.058 54.1144 164.551 48.1787 164.551 47.8861C164.551 47.8419 164.144 47.8057 163.647 47.8057C162.701 47.8057 162.418 48.1529 161.987 49.844C161.771 50.693 161.592 50.5469 161.052 49.078C160.662 48.0155 160.556 47.9229 159.647 47.8522L158.665 47.776L159.575 50.0631ZM171.963 47.99C171.904 48.0915 171.703 48.727 171.518 49.4026C170.831 51.9113 170.678 52.2277 170.147 52.2277C169.716 52.2277 169.633 52.4063 169.633 53.3332C169.633 54.3976 169.662 54.4387 170.435 54.4387C171.059 54.4387 171.237 54.3296 171.237 53.9473C171.237 53.5056 171.416 53.456 173.001 53.456C174.539 53.456 174.782 53.5187 174.904 53.9473C175.003 54.2954 175.269 54.4387 175.816 54.4387C176.551 54.4387 176.587 54.3878 176.587 53.3332C176.587 52.3915 176.507 52.2277 176.052 52.2277C175.556 52.2277 175.517 52.0638 175.517 50.0167V47.8057H173.794C172.846 47.8057 172.023 47.8885 171.963 47.99ZM182.203 50.6309V53.456L183.073 53.4422C183.803 53.4307 184.134 53.2052 185.145 52.0297L186.349 50.6309L186.429 52.0434L186.509 53.456H187.432H188.355V50.6309V47.8057H187.419C186.851 47.8057 186.48 47.9266 186.477 48.1128C186.474 48.2818 185.937 48.9726 185.284 49.6482L184.096 50.8765L184.086 49.3411L184.076 47.8057H183.139H182.203V50.6309ZM195.046 48.7164C194.381 49.4925 194.497 50.3975 195.345 51.0569L195.893 51.4828L195.333 52.3142C194.598 53.4069 194.614 53.456 195.705 53.456C196.521 53.456 196.702 53.3354 197.181 52.4734C197.481 51.9329 197.845 51.4907 197.989 51.4907C198.133 51.4907 198.251 51.9329 198.251 52.4734C198.251 53.4327 198.273 53.456 199.187 53.456H200.123V50.7537V48.0514H197.869C195.738 48.0514 195.584 48.0875 195.046 48.7164ZM114.402 49.6482C114.402 49.7833 114.011 49.9285 113.533 49.9708C112.874 50.0292 112.663 49.9511 112.663 49.6482C112.663 49.3453 112.874 49.2672 113.533 49.3257C114.011 49.3679 114.402 49.5131 114.402 49.6482ZM173.912 50.7537C173.912 52.1621 173.882 52.2277 173.243 52.2277C172.48 52.2277 172.473 52.1967 172.864 50.5201C173.29 48.699 173.912 48.8375 173.912 50.7537ZM198.251 49.9101C198.251 50.183 198.043 50.2725 197.536 50.2172C196.495 50.1042 196.403 49.5254 197.426 49.5254C197.997 49.5254 198.251 49.644 198.251 49.9101ZM89.8635 51.5521C89.803 51.7211 89.4634 51.9931 89.1087 52.1567C88.3226 52.5195 87.8142 52.1783 88.3152 51.6238C88.7297 51.1649 90.0242 51.105 89.8635 51.5521ZM114.402 51.7364C114.402 51.9724 114.09 52.1326 113.533 52.1817C112.798 52.2468 112.663 52.1778 112.663 51.7364C112.663 51.2949 112.798 51.2259 113.533 51.291C114.09 51.3401 114.402 51.5003 114.402 51.7364ZM126.036 51.4843C126.036 51.616 125.673 51.8963 125.229 52.1071C124.491 52.4576 124.408 52.4559 124.254 52.0886C124.16 51.8631 124.25 51.5914 124.46 51.4696C124.963 51.1767 126.036 51.1868 126.036 51.4843Z" fill="white"/>
</svg>
