<svg width="211" height="47" viewBox="0 0 211 47" fill="none" xmlns="http://www.w3.org/2000/svg">
<g opacity="0.6">
<path d="M1.04083 19.0046V28.391C10.2757 28.391 16.7 25.3089 22.8208 21.8678V45.7053H32.7072V21.8678C38.7834 24.9381 44.4046 28.391 54.041 28.391V19.0046C40.8839 19.0046 32.7072 9.91531 32.7072 1.20417H22.8208C22.8208 9.98284 14.644 19.0046 1.04083 19.0046Z" fill="#414141"/>
<path fill-rule="evenodd" clip-rule="evenodd" d="M22.4635 0.876953H33.0644V1.20417C33.0644 9.73298 41.0794 18.6774 54.041 18.6774H54.3983V28.7182H54.041C45.276 28.7182 39.7803 25.8843 34.3557 23.087C33.9254 22.8651 33.4955 22.6435 33.0644 22.4234V46.0325H22.4635V22.4511C16.484 25.7789 10.1006 28.7182 1.04083 28.7182H0.683594V18.6774H1.04083C14.4544 18.6774 22.4635 9.79514 22.4635 1.20417V0.876953ZM23.1743 1.53138C22.976 10.3143 14.8109 19.175 1.39806 19.3298V28.0623C10.3418 27.9841 16.6103 24.9754 22.6339 21.5889L23.178 21.283V45.3781H32.35V21.3136L32.8798 21.5813C33.4922 21.8908 34.099 22.2035 34.7048 22.5157C40.052 25.2714 45.3213 27.9869 53.6838 28.0622V19.3296C40.7024 19.1686 32.5534 10.243 32.3537 1.53138H23.1743Z" fill="#414141"/>
<path d="M70.2322 5.24909V12.9289H84.4638C86.5534 12.9625 87.4889 13.1554 87.5622 15.4471V41.6591H95.5944V15.4471C95.5944 14.3516 95.5944 12.9289 98.3304 12.9289H112.927V5.24909H87.5622H70.2322Z" fill="#AAADB1"/>
<path fill-rule="evenodd" clip-rule="evenodd" d="M69.875 4.92188H113.284V13.2561H98.3304C97.0263 13.2561 96.4881 13.5922 96.2378 13.9528C95.9615 14.3508 95.9516 14.8776 95.9516 15.4471V41.9863H87.205V15.4519C87.1684 14.3292 86.9199 13.8485 86.5578 13.6051C86.3675 13.4772 86.1128 13.391 85.7602 13.337C85.4066 13.2829 84.9805 13.2645 84.4606 13.2561H69.875V4.92188ZM70.5895 12.6017H84.4701C84.9936 12.6101 85.467 12.6286 85.8781 12.6916C86.2909 12.7548 86.6664 12.8664 86.9804 13.0774C87.6262 13.5115 87.882 14.272 87.9193 15.4375L87.9195 15.4423V41.3319H95.2372V15.4471C95.2372 15.435 95.2371 15.4229 95.2371 15.4106C95.2369 14.8876 95.2366 14.1753 95.6349 13.6016C96.0686 12.9769 96.8985 12.6017 98.3304 12.6017H112.57V5.5763H70.5895V12.6017Z" fill="#AAADB1"/>
<path d="M210.094 5.24909V12.8968L176.516 12.8969C174.659 12.8969 174.101 13.5619 174.101 14.5594V32.3488C174.101 33.3463 175.03 34.1776 176.516 34.1776L210.094 34.1776V41.6591L177.817 41.6591C170.757 41.6591 165.927 38.1677 165.927 32.3488V14.5594C165.927 9.23924 170.757 5.24911 177.817 5.24911L210.094 5.24909Z" fill="#AAADB1"/>
<path fill-rule="evenodd" clip-rule="evenodd" d="M210.451 4.92188V13.2241L176.516 13.2241C175.622 13.2241 175.121 13.386 174.844 13.6028C174.581 13.8089 174.458 14.1148 174.458 14.5594V32.3488C174.458 33.1238 175.178 33.8504 176.516 33.8504L210.451 33.8503V41.9863L177.817 41.9863C174.226 41.9863 171.165 41.0983 168.996 39.4371C166.819 37.7704 165.57 35.3482 165.57 32.3488V14.5594C165.57 9.01672 170.609 4.92189 177.817 4.92189L210.451 4.92188ZM209.737 5.5763L177.817 5.57632C170.906 5.57632 166.284 9.46176 166.284 14.5594V32.3488C166.284 35.1682 167.451 37.4013 169.454 38.935C171.464 40.4742 174.348 41.3319 177.817 41.3319L209.737 41.3318V34.5048L176.516 34.5048C174.882 34.5048 173.744 33.5688 173.744 32.3488V14.5594C173.744 14.0065 173.9 13.4811 174.38 13.1054C174.846 12.7402 175.553 12.5696 176.516 12.5696L209.737 12.5696V5.5763Z" fill="#AAADB1"/>
<path d="M128.558 5.24909H118.816L118.816 15.0249C118.816 9.21921 118.831 5.24909 128.558 5.24909Z" fill="#AAADB1"/>
<path fill-rule="evenodd" clip-rule="evenodd" d="M118.816 32.0413L126.644 32.9296L126.646 29.156C126.646 28.0569 127.438 26.9577 128.592 26.9577H150.297C151.607 26.9577 152.037 27.9195 152.037 28.8812L152.034 32.9296C152.034 34.4611 151.338 34.9205 150.295 34.9205H128.558C127.514 34.9205 126.644 34.1548 126.644 32.9296L118.816 32.0413C118.816 37.861 118.816 41.6591 124.905 41.6591H150.295C155.861 41.6591 160.039 38.0894 160.039 32.2698C160.039 28.8053 159.234 25.7893 157.575 23.6595C159.232 21.5298 160.036 18.5143 160.036 15.0506C160.036 9.23095 155.861 5.24909 150.295 5.24909L128.558 5.24909C118.831 5.24909 118.816 9.21921 118.816 15.0249V15.0506L118.816 32.0413ZM150.295 11.9876C151.338 11.9876 152.034 12.4471 152.034 13.9786L152.034 18.4391C152.034 19.4009 151.605 20.3627 150.295 20.3627L128.558 20.3627C127.404 20.3627 126.644 19.2635 126.644 18.1643V13.9786C126.644 12.7534 127.514 11.9876 128.558 11.9876H150.295Z" fill="#AAADB1"/>
<path d="M124.905 41.6591C118.816 41.6591 118.816 37.861 118.816 32.0413V41.6591H124.905Z" fill="#AAADB1"/>
<path fill-rule="evenodd" clip-rule="evenodd" d="M158.01 23.6594C159.628 25.8502 160.396 28.8655 160.396 32.2698C160.396 35.2531 159.323 37.687 157.509 39.3763C155.694 41.0653 153.163 41.9863 150.295 41.9863H118.459V4.92188L150.295 4.92188C156.084 4.92188 160.394 9.07479 160.394 15.0506C160.394 18.4541 159.627 21.4687 158.01 23.6594ZM123.046 5.5763H119.173V8.80363C119.326 8.44302 119.513 8.10145 119.74 7.78151C120.437 6.7993 121.489 6.05782 123.046 5.5763ZM128.558 5.5763C123.727 5.5763 121.456 6.56448 120.339 8.1382C119.771 8.93811 119.475 9.92266 119.325 11.0865C119.175 12.2523 119.173 13.5684 119.173 15.0249L119.173 31.7522L126.287 32.5594L126.289 29.156C126.289 28.5387 126.51 27.9186 126.902 27.4466C127.296 26.9719 127.88 26.6305 128.592 26.6305H150.297C151.064 26.6305 151.611 26.9194 151.952 27.3732C152.28 27.8088 152.394 28.3639 152.394 28.8812L152.392 32.9296C152.391 33.731 152.211 34.3262 151.82 34.7197C151.421 35.1208 150.869 35.2478 150.295 35.2478H128.558C127.382 35.2478 126.433 34.4408 126.302 33.2205L119.173 32.4116C119.174 33.7231 119.182 34.9141 119.268 35.9751C119.362 37.1361 119.548 38.116 119.907 38.907C120.262 39.6899 120.785 40.285 121.562 40.6904C122.346 41.0998 123.42 41.3319 124.905 41.3319H150.295C152.993 41.3319 155.334 40.4681 156.999 38.9173C158.665 37.3669 159.681 35.106 159.681 32.2698C159.681 28.8446 158.884 25.9043 157.284 23.8495L157.136 23.6596L157.284 23.4696C158.883 21.4149 159.679 18.4751 159.679 15.0506C159.679 9.38712 155.638 5.5763 150.295 5.5763L128.558 5.5763ZM121.353 41.3319C121.304 41.3082 121.256 41.2839 121.208 41.259C120.272 40.7704 119.653 40.0523 119.247 39.1582C119.222 39.102 119.197 39.0452 119.173 38.9876V41.3319H121.353ZM151.364 27.7444C151.163 27.4768 150.841 27.2849 150.297 27.2849H128.592C128.15 27.2849 127.761 27.4931 127.471 27.8427C127.178 28.195 127.004 28.6742 127.004 29.156L127.001 32.9296C127.002 33.9985 127.737 34.5933 128.558 34.5933H150.295C150.764 34.5933 151.082 34.4905 151.292 34.2791C151.51 34.06 151.677 33.6596 151.677 32.9296L151.679 28.8812C151.679 28.4368 151.579 28.0301 151.364 27.7444ZM152.392 13.9786L152.392 18.4391C152.392 18.9565 152.278 19.5116 151.95 19.9471C151.609 20.4005 151.062 20.6893 150.297 20.6899L126.646 20.6899V20.0355H127.028C126.977 19.9827 126.928 19.9277 126.882 19.8708C126.498 19.3978 126.287 18.7786 126.287 18.1643V13.9786C126.287 12.5972 127.291 11.6604 128.558 11.6604H150.295C150.869 11.6604 151.421 11.7873 151.82 12.1885C152.211 12.582 152.392 13.1771 152.392 13.9786ZM128.558 20.0355C128.118 20.0355 127.737 19.8286 127.455 19.4806C127.17 19.1292 127.001 18.6493 127.001 18.1643V13.9786C127.001 12.9095 127.737 12.3148 128.558 12.3148H150.295C150.764 12.3148 151.082 12.4176 151.292 12.6291C151.51 12.8482 151.677 13.2486 151.677 13.9786L151.677 18.4391C151.677 18.8836 151.577 19.2902 151.362 19.576C151.161 19.8435 150.838 20.0355 150.295 20.0355L128.558 20.0355Z" fill="#AAADB1"/>
</g>
</svg>
