<svg width="219" height="50" viewBox="0 0 219 50" fill="none" xmlns="http://www.w3.org/2000/svg">
<g opacity="0.6">
<path fill-rule="evenodd" clip-rule="evenodd" d="M138.846 3.92433C138.683 4.43986 138.513 4.97253 138.27 5.471C138.206 5.60246 138.343 5.76598 138.504 5.75145C139.116 5.69761 139.744 5.7154 140.351 5.73275C141.582 5.7677 142.745 5.80064 143.618 5.23629C144.841 4.44605 145.106 2.92688 144.209 1.84906C143.313 0.771246 141.589 0.537382 140.366 1.32762C139.493 1.89195 139.179 2.87919 138.846 3.92433ZM184.149 27.586C183.985 28.1035 183.816 28.6383 183.573 29.1387C183.509 29.2706 183.645 29.4348 183.807 29.4202C184.419 29.3662 185.047 29.384 185.654 29.4014C186.885 29.4365 188.047 29.4696 188.921 28.9031C190.144 28.1097 190.409 26.5847 189.512 25.5027C188.616 24.4207 186.892 24.1859 185.669 24.9792C184.796 25.5457 184.482 26.5368 184.149 27.586ZM195.102 29.8412H193.436C190.651 29.8412 189.138 30.3459 187.385 32.6949L180.588 42.0323V29.8412H176.071V47.6623H181.268L190.585 35.0244V47.6623H195.102V29.8412ZM213.785 29.8533H218.307V47.6623H213.785V40.5039H203.798V47.6623H199.276V29.8533H203.798V36.7596H213.785V29.8533ZM153.726 36.4032V41.093C153.726 47.4994 154.34 47.6623 161.088 47.6623H172.327V43.9221H160.87C158.54 43.9221 158.213 43.5732 158.213 41.3061V40.5116H169.561V36.8102H158.213V36.2095C158.213 33.9422 158.54 33.5933 160.87 33.5933H172.204V29.8533H160.029C154.279 29.8533 153.726 30.6134 153.726 36.4032ZM119.908 6.28895H114.961C109.226 6.28895 107.562 7.71578 107.562 12.8061V17.4722C107.562 22.5239 109.795 23.9894 115.53 23.9894H119.361C125.14 23.9894 127.329 22.5239 127.329 17.4722V12.8061C127.329 7.71578 125.709 6.28895 119.908 6.28895ZM122.82 17.4722C122.82 19.7281 122.272 20.268 119.93 20.268H114.983C112.641 20.268 112.093 19.7281 112.093 17.4722V12.8061C112.093 10.5501 112.641 10.0103 114.983 10.0103H119.93C122.272 10.0103 122.82 10.5501 122.82 12.8061V17.4722ZM127.307 29.8533H114.939C109.204 29.8533 107.54 31.2888 107.562 36.4104V41.1051C107.562 46.1878 109.226 47.6623 114.961 47.6623H127.329V43.918H114.961C112.619 43.918 112.072 43.3748 112.072 41.1051V36.4104C112.072 34.1406 112.619 33.5974 114.961 33.5974H122.863V35.4457H126.899C127.309 34.1918 127.309 33.8866 127.307 32.386V32.379C127.307 32.2797 127.307 32.1752 127.307 32.0648V29.8533ZM137.53 29.8533H149.898V32.0648C149.898 32.1778 149.898 32.2846 149.898 32.3859C149.9 33.8865 149.9 34.1918 149.49 35.4457H145.454V33.5974H137.552C135.21 33.5974 134.663 34.1406 134.663 36.4104V41.1051C134.663 43.3748 135.21 43.918 137.552 43.918H149.92V47.6623H137.552C131.817 47.6623 130.153 46.1878 130.153 41.1051V36.4104C130.131 31.2888 131.795 29.8533 137.53 29.8533ZM84.8483 36.4104C84.8483 31.2306 86.5711 29.8533 92.2194 29.8533H103.756V47.6623H99.2633V41.6872H89.3407V47.6623H84.8483V36.4104ZM89.3407 38.0013H99.2633V33.6168H92.2194C89.624 33.6168 89.3407 34.4122 89.3407 36.4298V38.0013ZM80.4417 33.6556V29.8533H62.2572V47.6623H68.3916H74.5264C78.974 47.6623 81.165 45.6445 81.165 42.3273C81.165 41.784 81.0551 41.2408 80.9021 40.717C80.3103 38.7965 78.2946 37.5162 76.0381 37.5162H66.7704V33.6556H80.4417ZM74.5703 40.465H66.7704V43.918H74.5703C76.082 43.918 76.6295 43.1808 76.6295 42.1332C76.6295 41.1051 76.082 40.465 74.5703 40.465ZM103.204 10.9936C103.204 12.8639 102.328 14.0787 101.276 14.6378C102.678 15.1777 104.102 16.4888 104.124 18.6869C104.124 21.9841 101.933 23.9894 97.4857 23.9894H85.2166V6.28895H97.0258C101.648 6.28895 103.226 8.60272 103.204 10.9936ZM96.5219 10.0681H89.7297V13.2496H96.5219C98.0771 13.2496 98.6905 12.6711 98.6905 11.5914C98.6905 10.5501 98.0771 10.0681 96.5219 10.0681ZM89.7297 20.268H97.5297C99.0414 20.268 99.5888 19.5353 99.5888 18.4941C99.5888 17.4722 99.0414 16.8359 97.5297 16.8359H89.7297V20.268ZM149.92 6.23712H148.254C145.469 6.23712 143.957 6.72056 142.202 9.07981L135.406 18.3813V6.23712H130.89V23.9894H136.086L145.404 11.4003V23.9894H149.92V6.23712ZM81.165 6.28895V10.1452L73.8404 10.0488V23.9894H69.3364V10.0488L62.0117 10.1452V6.28895H81.165Z" fill="white"/>
<path fill-rule="evenodd" clip-rule="evenodd" d="M13.2846 3.9707C6.16347 3.9707 0.390625 9.25829 0.390625 15.7809V37.9047C0.390625 44.4273 6.16347 49.7148 13.2846 49.7148H36.5556C43.6768 49.7148 49.4496 44.4273 49.4496 37.9047V15.7809C49.4496 9.25829 43.6768 3.9707 36.5556 3.9707H13.2846ZM13.8587 9.39043C9.61522 9.39043 6.17526 12.5412 6.17526 16.428V37.2575C6.17526 41.1444 9.61522 44.2951 13.8587 44.2951H35.9816C40.225 44.2951 43.665 41.1444 43.665 37.2575V16.428C43.665 12.5412 40.225 9.39043 35.9816 9.39043H13.8587Z" fill="white"/>
<path d="M25.8242 12.7691C28.5121 12.7691 31.2042 12.7117 33.888 12.7959C35.6034 12.8494 37.0351 13.5605 38.1369 14.7955C40.324 17.2501 39.6228 20.8863 36.8097 22.645C35.6911 23.3447 34.4473 23.6238 33.12 23.5321C31.3921 23.4097 29.9563 22.7062 28.9337 21.4292C27.0972 19.1351 26.6924 15.4111 25.8242 12.7691Z" fill="#929292"/>
</g>
</svg>
